<svg width="168" height="76" viewBox="0 0 168 76" fill="none" xmlns="http://www.w3.org/2000/svg">
<rect x="0.5" y="0.5" width="167" height="75" rx="37.5" fill="#232325"/>
<rect x="0.5" y="0.5" width="167" height="75" rx="37.5" stroke="url(#paint0_linear_88_8083)"/>
<rect x="10" y="10" width="56" height="56" rx="28" fill="#454545"/>
<mask id="mask0_88_8083" style="mask-type:alpha" maskUnits="userSpaceOnUse" x="10" y="10" width="56" height="56">
<rect x="10" y="10" width="56" height="56" fill="#D9D9D9"/>
</mask>
<g mask="url(#mask0_88_8083)">
<path fill-rule="evenodd" clip-rule="evenodd" d="M53.9252 24.6785L54.1373 26.0041C54.2964 27.2237 54.3759 28.4433 54.3494 29.6893C54.3494 32.4201 54.0313 35.1243 53.395 37.7755C52.5466 41.3546 51.0619 44.7747 49.0205 47.8501C46.6609 51.3497 43.2409 54.7697 38.2831 57.58L37.6733 57.9247L37.0635 57.58C32.1058 54.8228 28.6857 51.3762 26.3261 47.8501C24.2582 44.7747 22.8 41.3812 21.9517 37.7755C21.3154 35.1243 20.9972 32.4201 20.9972 29.6893C20.9972 28.4698 21.0502 27.2237 21.2093 26.0041L21.3949 24.6785C21.4214 24.5725 21.4214 24.4664 21.3949 24.3604C21.3684 24.2543 21.3419 24.1483 21.2623 24.0688C21.2093 23.9892 21.1298 23.9097 21.0502 23.8567C20.9707 23.8036 20.8647 23.7771 20.7851 23.7506C20.6791 23.7241 20.573 23.7241 20.467 23.7506C20.3609 23.7771 20.2549 23.8302 20.1753 23.8832C20.0958 23.9362 20.0163 24.0157 19.9632 24.0953C19.9102 24.2013 19.8837 24.3074 19.8572 24.4134L19.6451 25.739C19.486 27.0381 19.4065 28.3637 19.4065 29.6893C19.4065 32.5526 19.7512 35.3894 20.414 38.1732C20.8647 40.0555 21.4744 41.9114 22.2433 43.6877C23.0121 45.464 23.9401 47.1608 25.0271 48.778C27.5192 52.4897 31.1248 56.1219 36.3212 58.9852L37.3021 59.5419C37.4347 59.5949 37.5673 59.6215 37.6998 59.6215C37.8324 59.6215 37.9649 59.5949 38.0975 59.5419L39.0785 58.9852C44.2483 56.0954 47.8805 52.4632 50.3726 48.778C52.5466 45.5435 54.1108 41.9379 54.9857 38.1732C55.6485 35.3894 55.9666 32.5526 55.9666 29.6893C55.9666 28.3637 55.8871 27.0381 55.728 25.7125L55.5159 24.3869C55.4894 24.2809 55.4629 24.1748 55.4099 24.0688C55.3569 23.9892 55.2773 23.9097 55.1978 23.8567C55.1183 23.8036 55.0122 23.7506 54.9062 23.7241C54.8001 23.6976 54.6941 23.6976 54.588 23.7241C54.482 23.7506 54.3759 23.7771 54.2699 23.8302C54.1903 23.8832 54.1108 23.9627 54.0578 24.0423C54.0048 24.1218 53.9517 24.2278 53.9252 24.3339V24.6785Z" fill="white"/>
<path fill-rule="evenodd" clip-rule="evenodd" d="M25.849 23.7771L37.7264 20.0389L49.8424 23.8566C49.9485 23.8832 50.0545 23.8832 50.1606 23.8832C50.2666 23.8832 50.3727 23.8566 50.4787 23.8036C50.5848 23.7506 50.6643 23.6976 50.7438 23.5915C50.8234 23.512 50.8764 23.4059 50.8764 23.2999C50.9029 23.1938 50.9029 23.0878 50.9029 22.9817C50.9029 22.8757 50.8764 22.7697 50.8234 22.6636C50.7704 22.5576 50.7173 22.478 50.6378 22.3985C50.5583 22.3189 50.4522 22.2659 50.3462 22.2659L37.965 18.3421C37.806 18.2891 37.6469 18.2891 37.4878 18.3421L25.3983 22.1599C25.2923 22.1864 25.2127 22.2394 25.1067 22.2924C25.0271 22.372 24.9476 22.4515 24.9211 22.5576C24.8681 22.6636 24.8416 22.7697 24.8416 22.8757C24.8416 22.9817 24.8416 23.0878 24.8681 23.1938C24.8946 23.2999 24.9476 23.4059 25.0006 23.4855C25.0536 23.565 25.1597 23.6446 25.2657 23.6976C25.3453 23.7506 25.4513 23.7771 25.5839 23.7771C25.6369 23.8036 25.743 23.8036 25.849 23.7771Z" fill="white"/>
<path fill-rule="evenodd" clip-rule="evenodd" d="M19.9898 24.9172L36.9841 59.1708C37.0371 59.3033 37.1431 59.4094 37.2492 59.4889C37.5143 59.648 37.8325 59.648 38.0976 59.4889C38.2301 59.4094 38.3362 59.3033 38.4157 59.1708L48.7819 39.1542L48.8085 39.1276L55.4365 24.8907C55.4895 24.7846 55.516 24.6786 55.516 24.5725C55.516 24.4665 55.516 24.3604 55.463 24.2544C55.4365 24.1483 55.3834 24.0423 55.3039 23.9627C55.2509 23.8832 55.1448 23.8037 55.0653 23.7506C54.9858 23.6976 54.8797 23.6711 54.7472 23.6711C54.6411 23.6711 54.5351 23.6711 54.429 23.6976C54.323 23.7241 54.2169 23.7772 54.1374 23.8567C54.0578 23.9362 53.9783 24.0158 53.9518 24.1218L47.3238 38.3588L37.6734 56.9968L21.395 24.1218C21.3419 24.0423 21.2624 23.9362 21.2094 23.8567C21.1299 23.7772 21.0238 23.7241 20.9178 23.6976C20.8117 23.6446 20.7057 23.6446 20.5996 23.6711C20.4936 23.6711 20.3875 23.6976 20.2815 23.7506C20.2019 23.8037 20.0959 23.8832 20.0429 23.9627C19.9898 24.0423 19.9368 24.1483 19.9103 24.2544C19.8838 24.3604 19.8573 24.4665 19.8838 24.5725C19.9103 24.7051 19.9368 24.8111 19.9898 24.9172Z" fill="white"/>
<path fill-rule="evenodd" clip-rule="evenodd" d="M28.129 40.188H47.0586C47.1647 40.188 47.2707 40.1615 47.3768 40.135C47.4828 40.1085 47.5623 40.029 47.6154 39.9494C47.6949 39.8699 47.7479 39.7904 47.7744 39.6843C47.854 39.4722 47.854 39.2601 47.7744 39.048C47.7479 38.942 47.6684 38.8624 47.6154 38.7829C47.5358 38.7034 47.4563 38.6503 47.3768 38.5973C47.2707 38.5708 47.1647 38.5443 47.0586 38.5443H28.129C28.0229 38.5443 27.9169 38.5708 27.8108 38.5973C27.7048 38.6238 27.6253 38.7034 27.5722 38.7829C27.4927 38.8624 27.4397 38.942 27.4132 39.048C27.3336 39.2601 27.3336 39.4722 27.4132 39.6843C27.4397 39.7904 27.4927 39.8699 27.5722 39.9494C27.6518 40.029 27.7313 40.082 27.8108 40.135C27.9169 40.1615 28.0229 40.1615 28.129 40.188ZM80.888 33.0563H68.5864C68.4804 33.0563 68.3743 33.0828 68.2683 33.1093C68.1622 33.1358 68.0827 33.2154 68.0297 33.2949C67.9501 33.3744 67.8971 33.454 67.8706 33.56C67.8441 33.6661 67.8176 33.7721 67.8176 33.8782V38.9817V44.0853C67.8176 44.1914 67.8441 44.2974 67.8706 44.4035C67.8971 44.5095 67.9501 44.5891 68.0297 44.6686C68.1092 44.7481 68.1887 44.8011 68.2683 44.8542C68.3743 44.8807 68.4804 44.9072 68.5864 44.9072H80.888V46.6305H68.5864C68.4273 46.6305 68.2683 46.604 68.1092 46.5775C67.9501 46.5509 67.7911 46.4979 67.632 46.4449C67.4729 46.3919 67.3404 46.3123 67.2078 46.2328C67.0752 46.1267 66.9692 46.0207 66.8366 45.9146C66.598 45.676 66.4389 45.4109 66.3064 45.1193C66.2534 44.9602 66.2003 44.8011 66.1738 44.6421C66.1473 44.483 66.1208 44.3239 66.1208 44.1649V33.9047C66.1208 33.7456 66.1473 33.5865 66.1738 33.4275C66.2003 33.2684 66.2534 33.1093 66.3064 32.9502C66.3594 32.7912 66.4389 32.6321 66.5185 32.4995C66.598 32.367 66.7041 32.2344 66.8366 32.1284C66.9427 32.0223 67.0752 31.9163 67.2078 31.8102C67.3404 31.7307 67.4729 31.6512 67.632 31.5981C67.7911 31.5451 67.9501 31.4921 68.1092 31.4656C68.2683 31.4391 68.4273 31.4125 68.5864 31.4125H80.888V33.0563ZM103.98 31.333V33.0563H92.1291V38.1201H101.647V39.8699H92.1291V44.9337H103.98V46.657H90.4854V31.333H103.98Z" fill="white"/>
</g>
<path d="M78.8 26.352C78.8 23.072 81.008 20.56 84.592 20.56C87.744 20.56 89.824 22.288 90.16 25.072H87.6C87.344 23.584 86.16 22.8 84.624 22.8C82.656 22.8 81.36 24.032 81.36 26.352C81.36 28.688 82.656 29.92 84.624 29.92C86.16 29.92 87.344 29.12 87.6 27.632H90.16C89.824 30.432 87.744 32.16 84.592 32.16C81.008 32.16 78.8 29.648 78.8 26.352ZM90.9525 27.856C90.9525 25.296 92.6965 23.76 95.2085 23.76C97.7205 23.76 99.4805 25.248 99.4805 27.696V28.496H93.3525C93.3525 29.424 94.0245 30.08 95.4805 30.08C96.3765 30.08 97.0485 29.76 97.2085 29.152H99.7685C99.6085 30.32 98.2805 32.16 95.4805 32.16C92.3765 32.16 90.9525 30.144 90.9525 27.856ZM93.3525 27.056H97.0805C97.0805 26.448 96.6325 25.84 95.2085 25.84C93.7845 25.84 93.3525 26.448 93.3525 27.056ZM100.882 32V25.136C100.882 24.256 101.378 23.776 102.258 23.792L107.554 23.92V26.16L103.442 26.064V32H100.882ZM112.515 29.92L115.491 29.76V32L111.315 32.16C110.435 32.192 109.955 31.68 109.955 30.8V26.16H108.035V23.92H109.955V22.4L112.515 21.6V23.92H115.171V26.16H112.515V29.92ZM119.765 23.12C118.821 23.12 118.261 22.672 118.261 21.84C118.261 21.024 118.821 20.56 119.765 20.56C120.709 20.56 121.301 21.024 121.301 21.84C121.301 22.672 120.709 23.12 119.765 23.12ZM116.453 32V29.76H118.741V26.064L116.773 26.16V23.92L119.812 23.76C120.709 23.712 121.205 24.208 121.205 25.104V29.76H123.493V32H116.453ZM130.812 32L128.796 28.88L127.02 29.712V32H124.46V20.24H127.02V27.072L130.716 25.376L130.684 23.92H133.244V25.68C133.244 26.448 132.94 26.944 132.236 27.28L130.988 27.856L133.724 32H130.812Z" fill="#F3F3F3"/>
<path d="M85.364 55L84.412 52.536H80.408L79.456 55H78.112L81.808 45.9H83.04L86.708 55H85.364ZM80.828 51.444H83.992L82.41 47.356L80.828 51.444ZM93.7077 55H92.6437L92.5737 53.894C92.2377 54.678 91.3417 55.168 90.2917 55.168C88.7237 55.168 87.6037 53.992 87.6037 52.368V48H88.7237V52.256C88.7237 53.264 89.4517 54.02 90.4597 54.02C91.6357 54.02 92.5037 53.124 92.5317 51.892V48H93.6517V53.6L93.7077 55ZM102.102 55H101.15L101.01 53.754C100.478 54.594 99.6097 55.112 98.5737 55.112C96.5577 55.112 95.1017 53.572 95.1017 51.444C95.1017 49.372 96.5577 47.832 98.5177 47.832C99.5397 47.832 100.38 48.294 100.926 49.078V45.48H102.046V53.6L102.102 55ZM98.6297 54.02C99.9737 54.02 100.954 52.928 100.954 51.472C100.954 49.988 99.9457 48.896 98.5737 48.896C97.2297 48.896 96.2637 49.988 96.2637 51.472C96.2637 52.928 97.2577 54.02 98.6297 54.02ZM104.532 45.312C105.022 45.312 105.4 45.718 105.4 46.208C105.4 46.698 105.022 47.104 104.532 47.104C104.042 47.104 103.664 46.698 103.664 46.208C103.664 45.718 104.042 45.312 104.532 45.312ZM103.972 55V48H105.092V55H103.972ZM106.348 49.106V48.042H106.796C107.272 48.042 107.552 47.692 107.552 47.132V46.18H108.616V48H110.184V49.092H108.616V53.152C108.616 53.712 109.008 54.02 109.568 54.02C109.904 54.02 110.072 53.992 110.296 53.936L110.324 55C110.044 55.112 109.764 55.168 109.316 55.168C108.252 55.168 107.496 54.44 107.496 53.32V49.106H106.348Z" fill="#CBFB45"/>
<defs>
<linearGradient id="paint0_linear_88_8083" x1="137.73" y1="-19" x2="48.2975" y2="86.0042" gradientUnits="userSpaceOnUse">
<stop stop-color="#FCFFF2" stop-opacity="0.24"/>
<stop offset="0.875" stop-opacity="0"/>
<stop offset="1" stop-color="#E8EBDF" stop-opacity="0.24"/>
</linearGradient>
</defs>
</svg>
