<svg width="216" height="82" viewBox="0 0 216 82" fill="none" xmlns="http://www.w3.org/2000/svg">
<g filter="url(#filter0_f_65_1097)">
<path d="M38.0687 59.124C39.0207 59.124 39.8234 58.6013 40.4767 57.556C41.13 56.5107 41.6247 54.7933 41.9607 52.404C42.3154 49.996 42.4927 46.7853 42.4927 42.772C42.4927 39.2067 42.3994 36.2013 42.2127 33.756C42.026 31.292 41.7367 29.3227 41.3447 27.848C40.9714 26.3547 40.5047 25.272 39.9447 24.6C39.3847 23.928 38.7127 23.592 37.9287 23.592C36.9767 23.592 36.1647 24.1147 35.4927 25.16C34.8394 26.2053 34.3447 27.9227 34.0087 30.312C33.6727 32.7013 33.5047 35.912 33.5047 39.944C33.5047 43.4907 33.598 46.496 33.7847 48.96C33.9714 51.424 34.2514 53.4027 34.6247 54.896C35.0167 56.3707 35.4927 57.444 36.0527 58.116C36.6127 58.788 37.2847 59.124 38.0687 59.124ZM38.2927 20.876C41.7834 20.876 44.7887 21.7253 47.3087 23.424C49.8474 25.104 51.798 27.4747 53.1607 30.536C54.542 33.5973 55.2327 37.2 55.2327 41.344C55.2327 45.488 54.4954 49.1 53.0207 52.18C51.546 55.2413 49.4927 57.6213 46.8607 59.32C44.2287 61 41.1767 61.84 37.7047 61.84C34.2327 61.84 31.2274 61 28.6887 59.32C26.15 57.6213 24.1994 55.2413 22.8367 52.18C21.474 49.1 20.7927 45.488 20.7927 41.344C20.7927 37.2 21.5207 33.5973 22.9767 30.536C24.4514 27.456 26.5047 25.076 29.1367 23.396C31.7874 21.716 34.8394 20.876 38.2927 20.876ZM64.7846 50.304C66.4833 50.304 67.874 50.8547 68.9566 51.956C70.058 53.0387 70.6086 54.3827 70.6086 55.988C70.6086 57.5933 70.058 58.9467 68.9566 60.048C67.874 61.1307 66.474 61.672 64.7566 61.672C63.058 61.672 61.658 61.1307 60.5566 60.048C59.474 58.9467 58.9326 57.5933 58.9326 55.988C58.9326 54.3827 59.474 53.0387 60.5566 51.956C61.658 50.8547 63.0673 50.304 64.7846 50.304ZM91.6624 59.124C92.6144 59.124 93.4171 58.6013 94.0704 57.556C94.7238 56.5107 95.2184 54.7933 95.5544 52.404C95.9091 49.996 96.0864 46.7853 96.0864 42.772C96.0864 39.2067 95.9931 36.2013 95.8064 33.756C95.6198 31.292 95.3304 29.3227 94.9384 27.848C94.5651 26.3547 94.0984 25.272 93.5384 24.6C92.9784 23.928 92.3064 23.592 91.5224 23.592C90.5704 23.592 89.7584 24.1147 89.0864 25.16C88.4331 26.2053 87.9384 27.9227 87.6024 30.312C87.2664 32.7013 87.0984 35.912 87.0984 39.944C87.0984 43.4907 87.1918 46.496 87.3784 48.96C87.5651 51.424 87.8451 53.4027 88.2184 54.896C88.6104 56.3707 89.0864 57.444 89.6464 58.116C90.2064 58.788 90.8784 59.124 91.6624 59.124ZM91.8864 20.876C95.3771 20.876 98.3824 21.7253 100.902 23.424C103.441 25.104 105.392 27.4747 106.754 30.536C108.136 33.5973 108.826 37.2 108.826 41.344C108.826 45.488 108.089 49.1 106.614 52.18C105.14 55.2413 103.086 57.6213 100.454 59.32C97.8224 61 94.7704 61.84 91.2984 61.84C87.8264 61.84 84.8211 61 82.2824 59.32C79.7438 57.6213 77.7931 55.2413 76.4304 52.18C75.0678 49.1 74.3864 45.488 74.3864 41.344C74.3864 37.2 75.1144 33.5973 76.5704 30.536C78.0451 27.456 80.0984 25.076 82.7304 23.396C85.3811 21.716 88.4331 20.876 91.8864 20.876ZM129.998 59.124C130.95 59.124 131.753 58.6013 132.406 57.556C133.06 56.5107 133.554 54.7933 133.89 52.404C134.245 49.996 134.422 46.7853 134.422 42.772C134.422 39.2067 134.329 36.2013 134.142 33.756C133.956 31.292 133.666 29.3227 133.274 27.848C132.901 26.3547 132.434 25.272 131.874 24.6C131.314 23.928 130.642 23.592 129.858 23.592C128.906 23.592 128.094 24.1147 127.422 25.16C126.769 26.2053 126.274 27.9227 125.938 30.312C125.602 32.7013 125.434 35.912 125.434 39.944C125.434 43.4907 125.528 46.496 125.714 48.96C125.901 51.424 126.181 53.4027 126.554 54.896C126.946 56.3707 127.422 57.444 127.982 58.116C128.542 58.788 129.214 59.124 129.998 59.124ZM130.222 20.876C133.713 20.876 136.718 21.7253 139.238 23.424C141.777 25.104 143.728 27.4747 145.09 30.536C146.472 33.5973 147.162 37.2 147.162 41.344C147.162 45.488 146.425 49.1 144.95 52.18C143.476 55.2413 141.422 57.6213 138.79 59.32C136.158 61 133.106 61.84 129.634 61.84C126.162 61.84 123.157 61 120.618 59.32C118.08 57.6213 116.129 55.2413 114.766 52.18C113.404 49.1 112.722 45.488 112.722 41.344C112.722 37.2 113.45 33.5973 114.906 30.536C116.381 27.456 118.434 25.076 121.066 23.396C123.717 21.716 126.769 20.876 130.222 20.876ZM157.666 61L185.022 21.716H188.046L160.69 61H157.666ZM161.39 41.372C162.342 41.372 163.042 40.6907 163.49 39.328C163.938 37.9653 164.162 35.8933 164.162 33.112C164.162 30.6107 164.022 28.66 163.742 27.26C163.462 25.8413 163.08 24.8427 162.594 24.264C162.128 23.6667 161.586 23.368 160.97 23.368C160 23.368 159.29 24.0493 158.842 25.412C158.394 26.756 158.17 28.8373 158.17 31.656C158.17 34.1387 158.31 36.0893 158.59 37.508C158.87 38.9267 159.253 39.9253 159.738 40.504C160.224 41.0827 160.774 41.372 161.39 41.372ZM161.138 43.612C159.066 43.612 157.237 43.1453 155.65 42.212C154.082 41.26 152.85 39.944 151.954 38.264C151.077 36.5653 150.638 34.6053 150.638 32.384C150.638 30.144 151.077 28.184 151.954 26.504C152.85 24.824 154.092 23.5173 155.678 22.584C157.265 21.632 159.104 21.156 161.194 21.156C163.285 21.156 165.114 21.6227 166.682 22.556C168.25 23.4893 169.473 24.8053 170.35 26.504C171.246 28.184 171.694 30.1347 171.694 32.356C171.694 34.596 171.246 36.5653 170.35 38.264C169.473 39.944 168.241 41.26 166.654 42.212C165.068 43.1453 163.229 43.612 161.138 43.612ZM185.33 59.32C186.282 59.32 186.982 58.6387 187.43 57.276C187.878 55.9133 188.102 53.8413 188.102 51.06C188.102 48.5587 187.962 46.608 187.682 45.208C187.402 43.7893 187.02 42.7907 186.534 42.212C186.068 41.6147 185.526 41.316 184.91 41.316C183.94 41.316 183.23 41.9973 182.782 43.36C182.334 44.704 182.11 46.7853 182.11 49.604C182.11 52.0867 182.25 54.0373 182.53 55.456C182.81 56.8747 183.193 57.8733 183.678 58.452C184.164 59.0307 184.714 59.32 185.33 59.32ZM185.078 61.56C183.006 61.56 181.177 61.0933 179.59 60.16C178.022 59.208 176.79 57.892 175.894 56.212C175.017 54.5133 174.578 52.5533 174.578 50.332C174.578 48.092 175.017 46.132 175.894 44.452C176.79 42.772 178.032 41.4653 179.618 40.532C181.205 39.58 183.044 39.104 185.134 39.104C187.225 39.104 189.054 39.5707 190.622 40.504C192.19 41.4373 193.413 42.7533 194.29 44.452C195.186 46.132 195.634 48.0827 195.634 50.304C195.634 52.544 195.186 54.5133 194.29 56.212C193.413 57.892 192.181 59.208 190.594 60.16C189.008 61.0933 187.169 61.56 185.078 61.56Z" fill="white"/>
</g>
<defs>
<filter id="filter0_f_65_1097" x="0.79248" y="0.875977" width="214.842" height="80.964" filterUnits="userSpaceOnUse" color-interpolation-filters="sRGB">
<feFlood flood-opacity="0" result="BackgroundImageFix"/>
<feBlend mode="normal" in="SourceGraphic" in2="BackgroundImageFix" result="shape"/>
<feGaussianBlur stdDeviation="10" result="effect1_foregroundBlur_65_1097"/>
</filter>
</defs>
</svg>
