<svg width="390" height="600" viewBox="0 0 390 600" fill="none" xmlns="http://www.w3.org/2000/svg">
<rect width="1367.09" height="600" fill="#111111"/>
<path d="M63.3401 85.5648V85.0092H62.7845V85.5648H63.3401ZM289 85.5648L283.444 82.357V88.7727L289 85.5648ZM63.8957 352.121V85.5648H62.7845V352.121H63.8957ZM63.3401 86.1204H284V85.0092H63.3401V86.1204Z" fill="url(#paint0_linear_316_14165)"/>
<path d="M670.488 388.374L670.488 387.819L671.043 387.819L671.043 388.374L670.488 388.374ZM83.3421 388.374L88.8983 385.166L88.8983 391.582L83.3421 388.374ZM669.932 484.496L669.932 388.374L671.043 388.374L671.043 484.496L669.932 484.496ZM670.488 388.93L88.3427 388.93L88.3427 387.819L670.488 387.819L670.488 388.93Z" fill="url(#paint1_linear_316_14165)"/>
<path d="M289 225L282.589 225.247L286.009 230.676L289 225ZM78.9158 358.008L285.065 228.136L284.473 227.195L78.3235 357.067L78.9158 358.008Z" fill="url(#paint2_linear_316_14165)"/>
<path d="M289 513L285.741 507.474L282.585 513.059L289 513ZM77.5123 394.136L284.373 511.024L284.92 510.056L78.059 393.169L77.5123 394.136Z" fill="url(#paint3_linear_316_14165)"/>
<path d="M83.8972 364.483L90.3102 364.297L86.9426 358.836L83.8972 364.483ZM288.708 237.527L87.8618 361.385L88.4451 362.331L289.292 238.473L288.708 237.527Z" fill="url(#paint4_linear_316_14165)"/>
<path d="M83.8977 380.04L90.0248 381.943L88.6087 375.685L83.8977 380.04ZM611.609 260.041L88.6522 378.395L88.8975 379.478L611.854 261.125L611.609 260.041Z" fill="url(#paint5_linear_316_14165)"/>
<path d="M85.7212 375.039C85.7212 387.553 75.5765 397.698 63.0625 397.698C50.5485 397.698 40.4039 387.553 40.4039 375.039C40.4039 362.525 50.5485 352.381 63.0625 352.381C75.5766 352.381 85.7212 362.525 85.7212 375.039Z" fill="url(#paint6_linear_316_14165)" stroke="url(#paint7_linear_316_14165)" stroke-width="1.56266"/>
<path d="M83.8986 375.04C83.8986 363.56 74.5435 354.205 63.0631 354.205C51.5827 354.205 42.2275 363.56 42.2275 375.04C42.2275 381.082 44.832 386.52 48.9574 390.333C48.9574 390.354 48.9574 390.354 48.9366 390.375C49.1449 390.583 49.395 390.75 49.6033 390.938C49.7283 391.042 49.8325 391.146 49.9575 391.229C50.3326 391.542 50.7493 391.834 51.1451 392.125C51.291 392.229 51.416 392.313 51.5619 392.417C51.9577 392.688 52.3744 392.938 52.812 393.167C52.9578 393.25 53.1245 393.355 53.2704 393.438C53.6871 393.667 54.1246 393.875 54.583 394.063C54.7497 394.146 54.9164 394.23 55.0831 394.292C55.5414 394.48 55.9998 394.646 56.4582 394.792C56.6249 394.855 56.7916 394.917 56.9583 394.959C57.4583 395.105 57.9584 395.23 58.4584 395.355C58.6043 395.396 58.7501 395.438 58.9168 395.459C59.5002 395.584 60.0836 395.667 60.6878 395.73C60.7712 395.73 60.8545 395.751 60.9378 395.771C61.6463 395.834 62.3547 395.876 63.0631 395.876C63.7715 395.876 64.4799 395.834 65.1675 395.771C65.2508 395.771 65.3341 395.751 65.4175 395.73C66.0217 395.667 66.6051 395.584 67.1885 395.459C67.3344 395.438 67.4802 395.376 67.6469 395.355C68.1469 395.23 68.6678 395.126 69.147 394.959C69.3137 394.896 69.4804 394.834 69.6471 394.792C70.1055 394.626 70.5847 394.48 71.0222 394.292C71.1889 394.23 71.3556 394.146 71.5223 394.063C71.9598 393.875 72.3974 393.667 72.8349 393.438C73.0016 393.355 73.1475 393.25 73.2933 393.167C73.71 392.917 74.1267 392.688 74.5435 392.417C74.6893 392.334 74.8143 392.229 74.9602 392.125C75.3769 391.834 75.7727 391.542 76.1478 391.229C76.2728 391.125 76.377 391.021 76.502 390.938C76.7312 390.75 76.9604 390.563 77.1687 390.375C77.1687 390.354 77.1687 390.354 77.1479 390.333C81.2942 386.52 83.8986 381.082 83.8986 375.04ZM73.3558 385.395C67.7094 381.603 58.4584 381.603 52.7703 385.395C51.8536 386 51.1035 386.708 50.4784 387.479C47.3114 384.27 45.3529 379.874 45.3529 375.04C45.3529 365.268 53.2912 357.33 63.0631 357.33C72.8349 357.33 80.7733 365.268 80.7733 375.04C80.7733 379.874 78.8147 384.27 75.6477 387.479C75.0435 386.708 74.2726 386 73.3558 385.395Z" fill="#1D2800"/>
<path d="M63.0626 364.476C58.7496 364.476 55.2493 367.977 55.2493 372.29C55.2493 376.519 58.5621 379.957 62.9584 380.082C63.0209 380.082 63.1043 380.082 63.1459 380.082C63.1876 380.082 63.2501 380.082 63.2918 380.082C63.3126 380.082 63.3335 380.082 63.3335 380.082C67.5422 379.936 70.8551 376.519 70.8759 372.29C70.8759 367.977 67.3755 364.476 63.0626 364.476Z" fill="#1D2800"/>
<path d="M48.021 415.549V409.642H50.1545V414.603C50.1545 416.283 50.3012 417.31 52.2614 417.31C54.2216 417.31 54.3816 416.283 54.3816 414.603V409.642H56.5152V415.549C56.5152 417.896 55.0484 419.176 52.2614 419.176C49.4745 419.176 48.021 417.896 48.021 415.549ZM63.9964 417.19C63.9964 418.323 63.183 419.176 60.8627 419.176C58.3825 419.176 57.3157 418.176 57.3157 416.603H59.4493C59.4493 417.123 59.8093 417.576 60.9294 417.576C61.5028 417.576 61.8628 417.443 61.8628 417.123C61.8628 416.776 61.4895 416.683 60.4094 416.323C59.1559 415.909 57.6224 415.576 57.6224 414.069C57.6224 412.869 58.7025 412.176 60.556 412.176C62.8363 412.176 63.7697 413.309 63.7697 414.616H61.6362C61.6362 414.136 61.2761 413.776 60.5427 413.776C60.036 413.776 59.756 413.896 59.756 414.163C59.756 414.483 60.4227 414.683 61.4895 415.029C62.7963 415.456 63.9964 415.789 63.9964 417.19ZM64.6633 415.589C64.6633 413.456 66.1168 412.176 68.2104 412.176C70.3039 412.176 71.7708 413.416 71.7708 415.456V416.123H66.6636C66.6636 416.896 67.2236 417.443 68.4371 417.443C69.1838 417.443 69.7439 417.176 69.8772 416.67H72.0108C71.8774 417.643 70.7707 419.176 68.4371 419.176C65.8501 419.176 64.6633 417.496 64.6633 415.589ZM66.6636 414.923H69.7706C69.7706 414.416 69.3972 413.909 68.2104 413.909C67.0236 413.909 66.6636 414.416 66.6636 414.923ZM72.9387 419.043V413.322C72.9387 412.589 73.3521 412.189 74.0855 412.202L78.4993 412.309V414.176L75.0723 414.096V419.043H72.9387Z" fill="white"/>
<rect x="289.313" y="53.1929" width="101.4" height="59.1729" fill="url(#paint8_linear_316_14165)" fill-opacity="0.15"/>
<rect x="289.313" y="53.1929" width="101.4" height="59.1729" stroke="url(#paint9_linear_316_14165)" stroke-width="0.833421"/>
<path d="M311.459 75.7288H313.06V76.0389L312.76 76.939H313.16C313.42 76.2689 313.9 75.6288 315.15 75.6288C316.61 75.6288 317.34 76.8289 317.34 78.2591C317.34 79.6892 316.61 80.8794 315.15 80.8794C313.9 80.8794 313.42 80.2393 313.16 79.5692H312.76L313.06 80.4693V82.6796H311.459V75.7288ZM313.06 78.2591C313.06 79.1192 313.54 79.4792 314.4 79.4792C315.26 79.4792 315.74 79.1192 315.74 78.2591C315.74 77.399 315.26 77.029 314.4 77.029C313.54 77.029 313.06 77.399 313.06 78.2591ZM320.342 79.4792L322.203 79.3792V80.7794L319.592 80.8794C319.042 80.8994 318.742 80.5793 318.742 80.0293V77.129H317.542V75.7288H318.742V74.7787L320.342 74.2787V75.7288H322.003V77.129H320.342V79.4792ZM323.101 80.7794V73.7286H328.132V75.1288H324.702V76.5489H327.632V77.9491H324.702V79.3792H328.132V80.7794H323.101ZM335.038 73.7286V75.1288H332.738V80.7794H331.138V75.1288H328.827V73.7286H335.038ZM340.88 73.7286H342.48V80.7794H340.88V78.0491H337.34V80.7794H335.739V73.7286H337.34V76.6489H340.88V73.7286ZM346.96 72.6385L348.09 73.0785L344.71 81.8695L343.58 81.4294L346.96 72.6385ZM349.188 80.7794V73.7286H354.219V75.1288H350.788V76.5489H353.719V77.9491H350.788V79.3792H354.219V80.7794H349.188ZM361.125 73.7286V75.1288H358.824V80.7794H357.224V75.1288H354.914V73.7286H361.125ZM366.967 73.7286H368.567V80.7794H366.967V78.0491H363.426V80.7794H361.826V73.7286H363.426V76.6489H366.967V73.7286ZM314.797 92.2794V93.2795C312.637 92.8795 311.686 91.1993 311.686 88.9991C311.686 86.7988 312.637 85.1287 314.797 84.7286V85.7287C313.197 86.2288 312.887 87.3989 312.887 88.9991C312.887 90.5992 313.197 91.7794 314.797 92.2794ZM315.999 88.249C315.999 86.1988 317.379 84.6286 319.619 84.6286C321.589 84.6286 322.889 85.7087 323.099 87.4489H321.499C321.339 86.5188 320.599 86.0287 319.639 86.0287C318.409 86.0287 317.599 86.7988 317.599 88.249C317.599 89.7091 318.409 90.4792 319.639 90.4792C320.599 90.4792 321.339 89.9792 321.499 89.0491H323.099C322.889 90.7993 321.589 91.8794 319.619 91.8794C317.379 91.8794 315.999 90.3092 315.999 88.249ZM324 91.7794V84.7286H329.03V86.1288H325.6V87.5489H328.53V88.9491H325.6V90.3792H329.03V91.7794H324ZM329.626 91.7794L332.006 88.449V88.049L329.626 84.7286H331.466L333.366 87.4289L335.276 84.7286H337.117L334.726 88.049V88.449L337.117 91.7794H335.276L333.366 89.0691L331.466 91.7794H329.626ZM338.597 89.9592L339.758 90.2692L338.777 93.8096L337.617 93.4995L338.597 89.9592ZM346.466 84.7286C348.346 84.7286 350.306 85.2187 350.306 88.249C350.306 91.2893 348.346 91.7794 346.466 91.7794H343.865V84.7286H346.466ZM346.466 90.3792C347.716 90.3792 348.706 90.2792 348.706 88.249C348.706 86.2288 347.716 86.1288 346.466 86.1288H345.465V90.3792H346.466ZM351.21 91.7794V84.7286H356.24V86.1288H352.81V87.5489H355.74V88.9491H352.81V90.3792H356.24V91.7794H351.21ZM356.836 91.7794L359.216 88.449V88.049L356.836 84.7286H358.676L360.576 87.4289L362.486 84.7286H364.327L361.936 88.049V88.449L364.327 91.7794H362.486L360.576 89.0691L358.676 91.7794H356.836ZM365.227 92.2794C366.827 91.7794 367.137 90.5992 367.137 88.9991C367.137 87.3989 366.827 86.2288 365.227 85.7287V84.7286C367.388 85.1287 368.338 86.7988 368.338 88.9991C368.338 91.1993 367.388 92.8795 365.227 93.2795V92.2794Z" fill="white"/>
<g filter="url(#filter0_b_316_14165)">
<rect x="128.666" y="69.8535" width="100.844" height="28.753" fill="black" fill-opacity="0.1"/>
<rect x="128.666" y="69.8535" width="100.844" height="28.753" stroke="url(#paint10_linear_316_14165)" stroke-width="0.416711" stroke-linecap="round" stroke-linejoin="round" stroke-dasharray="5 5"/>
<path d="M139.878 80.0132L140.662 79.8465C140.662 80.6133 141.295 81.1633 142.162 81.1633C142.845 81.1633 143.345 80.7799 143.345 80.2132C143.345 79.8465 143.029 79.5048 142.562 79.3965L141.545 79.1631C140.712 78.9714 140.145 78.4464 140.145 77.7463C140.145 76.8462 140.895 76.2128 141.978 76.2128C142.995 76.2128 143.812 76.8129 143.912 77.6463L143.162 77.8463C143.129 77.2462 142.612 76.8462 141.945 76.8462C141.312 76.8462 140.862 77.1796 140.862 77.6796C140.862 78.113 141.212 78.3964 141.745 78.513L142.795 78.7464C143.562 78.9131 144.079 79.4631 144.079 80.1632C144.079 81.1466 143.295 81.8301 142.145 81.8301C140.895 81.8301 139.945 81.08 139.878 80.0132ZM148.596 80.5633C148.43 81.2967 147.646 81.8301 146.78 81.8301C145.613 81.8301 144.746 80.9133 144.746 79.6465C144.746 78.3797 145.596 77.4629 146.746 77.4629C147.88 77.4629 148.672 78.363 148.672 79.6132C148.672 79.7048 148.672 79.8132 148.663 79.9048H145.479C145.53 80.6549 146.046 81.1883 146.746 81.1883C147.346 81.1883 147.813 80.8299 147.88 80.2966L148.596 80.5633ZM145.471 79.2631H147.988C147.955 78.5797 147.405 78.088 146.738 78.088C146.071 78.088 145.521 78.5797 145.471 79.2631ZM149.537 76.0628H150.204V81.73H149.537V76.0628ZM151.336 76.0628H152.003V81.73H151.336V76.0628ZM156.87 77.4629C158.02 77.4629 158.87 78.3797 158.87 79.6132C158.87 80.88 158.02 81.7967 156.887 81.7967C156.278 81.7967 155.762 81.4883 155.436 80.9883V83.3969H154.77V77.5629H155.336L155.395 78.3047C155.712 77.788 156.237 77.4629 156.87 77.4629ZM156.803 81.1466C157.603 81.1466 158.178 80.5132 158.178 79.6298C158.178 78.7464 157.62 78.1047 156.82 78.1047C156.02 78.1047 155.42 78.7464 155.42 79.6298C155.42 80.5132 156.003 81.1466 156.803 81.1466ZM159.335 78.2213V77.5879H159.602C159.885 77.5879 160.052 77.3796 160.052 77.0462V76.4795H160.685V77.5629H161.619V78.213H160.685V80.6299C160.685 80.9633 160.919 81.1466 161.252 81.1466C161.452 81.1466 161.552 81.13 161.685 81.0966L161.702 81.73C161.535 81.7967 161.369 81.8301 161.102 81.8301C160.469 81.8301 160.019 81.3967 160.019 80.7299V78.2213H159.335ZM163.186 81.0633H166.336V81.73H162.502V76.3128H166.303V76.9629H163.186V78.6797H165.869V79.3381H163.186V81.0633ZM171.335 76.3128V76.9795H169.368V81.73H168.684V76.9795H166.701V76.3128H171.335ZM175.816 76.3128H176.499V81.73H175.816V79.3298H172.749V81.73H172.066V76.3128H172.749V78.6714H175.816V76.3128ZM178.901 78.2213V77.5879H179.168C179.451 77.5879 179.618 77.3796 179.618 77.0462V76.4795H180.251V77.5629H181.185V78.213H180.251V80.6299C180.251 80.9633 180.485 81.1466 180.818 81.1466C181.018 81.1466 181.118 81.13 181.251 81.0966L181.268 81.73C181.101 81.7967 180.935 81.8301 180.668 81.8301C180.035 81.8301 179.584 81.3967 179.584 80.7299V78.2213H178.901ZM183.821 81.8301C182.604 81.8301 181.737 80.9133 181.737 79.6465C181.737 78.3797 182.604 77.4629 183.821 77.4629C185.038 77.4629 185.904 78.3797 185.904 79.6465C185.904 80.9133 185.038 81.8301 183.821 81.8301ZM183.821 81.1716C184.621 81.1716 185.213 80.5132 185.213 79.6465C185.213 78.7714 184.621 78.1047 183.821 78.1047C183.021 78.1047 182.429 78.7714 182.429 79.6465C182.429 80.5132 183.021 81.1716 183.821 81.1716ZM189.157 81.0633H192.307V81.73H188.474V76.3128H192.274V76.9629H189.157V78.6797H191.841V79.3381H189.157V81.0633ZM197.306 76.3128V76.9795H195.339V81.73H194.656V76.9795H192.672V76.3128H197.306ZM201.787 76.3128H202.471V81.73H201.787V79.3298H198.72V81.73H198.037V76.3128H198.72V78.6714H201.787V76.3128ZM208.456 81.73H207.839L207.781 81.0133C207.548 81.4883 207.064 81.7967 206.439 81.7967C205.639 81.7967 205.006 81.2967 205.006 80.5299C205.006 79.9299 205.422 79.4965 206.056 79.4298L207.489 79.2631C207.656 79.2464 207.756 79.1631 207.756 79.0298V78.9631C207.756 78.4297 207.356 78.063 206.806 78.063C206.256 78.063 205.856 78.4464 205.839 79.0464L205.106 78.9464C205.189 78.063 205.906 77.4629 206.822 77.4629C207.756 77.4629 208.423 78.0797 208.423 78.9464V80.8966L208.456 81.73ZM206.506 81.13C207.239 81.13 207.756 80.6633 207.756 80.0299V79.7465C207.731 79.7715 207.614 79.7965 207.473 79.8132L206.256 79.9465C205.889 79.9965 205.689 80.1965 205.689 80.4966C205.689 80.8633 206.039 81.13 206.506 81.13ZM211.488 77.4629C212.422 77.4629 213.105 78.1963 213.105 79.1964V81.73H212.439V79.2298C212.439 78.5964 212.022 78.1297 211.422 78.1297C210.655 78.1297 210.138 78.6964 210.122 79.4631V81.73H209.455V77.5629H210.022L210.08 78.2797C210.28 77.7713 210.847 77.4629 211.488 77.4629ZM218.068 81.73H217.502L217.418 80.9883C217.102 81.4883 216.585 81.7967 215.968 81.7967C214.768 81.7967 213.901 80.88 213.901 79.6132C213.901 78.3797 214.768 77.4629 215.935 77.4629C216.543 77.4629 217.043 77.738 217.368 78.2047V76.0628H218.035V80.8966L218.068 81.73ZM216.002 81.1466C216.802 81.1466 217.385 80.4966 217.385 79.6298C217.385 78.7464 216.785 78.0963 215.968 78.0963C215.168 78.0963 214.593 78.7464 214.593 79.6298C214.593 80.4966 215.185 81.1466 216.002 81.1466ZM139.941 91.0466H142.875V91.73H139.258V86.3128H139.941V91.0466ZM145.657 86.3128C146.691 86.3128 147.424 87.0129 147.424 87.9963C147.424 88.9964 146.682 89.7048 145.632 89.7048H144.157V91.73H143.474V86.3128H145.657ZM145.657 89.0464C146.274 89.0464 146.724 88.613 146.724 88.013C146.724 87.4129 146.291 86.9795 145.691 86.9795H144.157V89.0464H145.657ZM152.006 86.3128C153.039 86.3128 153.772 87.0129 153.772 87.9963C153.772 88.9964 153.031 89.7048 151.981 89.7048H150.505V91.73H149.822V86.3128H152.006ZM152.006 89.0464C152.622 89.0464 153.072 88.613 153.072 88.013C153.072 87.4129 152.639 86.9795 152.039 86.9795H150.505V89.0464H152.006ZM156.185 87.4796C156.419 87.4796 156.619 87.5296 156.719 87.6129L156.702 88.413C156.569 88.313 156.385 88.2463 156.119 88.2463C155.552 88.2463 155.152 88.7631 155.135 89.4631V91.73H154.469V87.5629H155.019L155.094 88.3797C155.269 87.838 155.669 87.4796 156.185 87.4796ZM159.136 91.8301C157.919 91.8301 157.052 90.9133 157.052 89.6465C157.052 88.3797 157.919 87.4629 159.136 87.4629C160.352 87.4629 161.219 88.3797 161.219 89.6465C161.219 90.9133 160.352 91.8301 159.136 91.8301ZM159.136 91.1716C159.936 91.1716 160.527 90.5132 160.527 89.6465C160.527 88.7714 159.936 88.1047 159.136 88.1047C158.336 88.1047 157.744 88.7714 157.744 89.6465C157.744 90.5132 158.336 91.1716 159.136 91.1716ZM161.555 87.5629H162.355L163.605 90.9633H163.622L164.83 87.5629H165.622L163.955 91.73H163.238L161.555 87.5629ZM166.605 85.9628C166.896 85.9628 167.121 86.2045 167.121 86.4962C167.121 86.7879 166.896 87.0295 166.605 87.0295C166.313 87.0295 166.088 86.7879 166.088 86.4962C166.088 86.2045 166.313 85.9628 166.605 85.9628ZM166.271 91.73V87.5629H166.938V91.73H166.271ZM171.986 91.73H171.419L171.336 90.9883C171.019 91.4883 170.503 91.7967 169.886 91.7967C168.686 91.7967 167.819 90.88 167.819 89.6132C167.819 88.3797 168.686 87.4629 169.853 87.4629C170.461 87.4629 170.961 87.738 171.286 88.2047V86.0628H171.953V90.8966L171.986 91.73ZM169.919 91.1466C170.719 91.1466 171.303 90.4966 171.303 89.6298C171.303 88.7464 170.703 88.0963 169.886 88.0963C169.086 88.0963 168.511 88.7464 168.511 89.6298C168.511 90.4966 169.103 91.1466 169.919 91.1466ZM176.7 90.5633C176.533 91.2967 175.75 91.8301 174.883 91.8301C173.716 91.8301 172.85 90.9133 172.85 89.6465C172.85 88.3797 173.7 87.4629 174.85 87.4629C175.983 87.4629 176.775 88.363 176.775 89.6132C176.775 89.7048 176.775 89.8132 176.767 89.9048H173.583C173.633 90.6549 174.15 91.1883 174.85 91.1883C175.45 91.1883 175.917 90.8299 175.983 90.2966L176.7 90.5633ZM173.575 89.2631H176.092C176.058 88.5797 175.508 88.088 174.842 88.088C174.175 88.088 173.625 88.5797 173.575 89.2631ZM181.376 87.4629C182.526 87.4629 183.376 88.3797 183.376 89.6132C183.376 90.88 182.526 91.7967 181.393 91.7967C180.784 91.7967 180.268 91.4883 179.943 90.9883V93.3969H179.276V87.5629H179.843L179.901 88.3047C180.218 87.788 180.743 87.4629 181.376 87.4629ZM181.309 91.1466C182.11 91.1466 182.685 90.5132 182.685 89.6298C182.685 88.7464 182.126 88.1047 181.326 88.1047C180.526 88.1047 179.926 88.7464 179.926 89.6298C179.926 90.5132 180.509 91.1466 181.309 91.1466ZM183.841 88.2213V87.5879H184.108C184.391 87.5879 184.558 87.3796 184.558 87.0462V86.4795H185.192V87.5629H186.125V88.213H185.192V90.6299C185.192 90.9633 185.425 91.1466 185.758 91.1466C185.958 91.1466 186.058 91.13 186.192 91.0966L186.208 91.73C186.042 91.7967 185.875 91.8301 185.608 91.8301C184.975 91.8301 184.525 91.3967 184.525 90.7299V88.2213H183.841ZM187.692 91.0633H190.842V91.73H187.009V86.3128H190.809V86.9629H187.692V88.6797H190.376V89.3381H187.692V91.0633ZM195.841 86.3128V86.9795H193.874V91.73H193.191V86.9795H191.207V86.3128H195.841ZM200.322 86.3128H201.006V91.73H200.322V89.3298H197.255V91.73H196.572V86.3128H197.255V88.6714H200.322V86.3128ZM203.347 85.6961H204.006L202.606 92.8635H201.922L203.347 85.6961ZM205.606 91.0633H208.756V91.73H204.922V86.3128H208.723V86.9629H205.606V88.6797H208.289V89.3381H205.606V91.0633ZM213.755 86.3128V86.9795H211.788V91.73H211.104V86.9795H209.121V86.3128H213.755ZM218.236 86.3128H218.919V91.73H218.236V89.3298H215.169V91.73H214.485V86.3128H215.169V88.6714H218.236V86.3128Z" fill="white"/>
</g>
<g filter="url(#filter1_b_316_14165)">
<rect x="128.666" y="438.503" width="100.844" height="28.753" fill="black" fill-opacity="0.1"/>
<rect x="128.666" y="438.503" width="100.844" height="28.753" stroke="url(#paint11_linear_316_14165)" stroke-width="0.416711" stroke-linecap="round" stroke-linejoin="round" stroke-dasharray="5 5"/>
<path d="M140.43 449.962H141.113V455.38H140.43V449.962ZM144.245 451.113C145.178 451.113 145.862 451.846 145.862 452.846V455.38H145.195V452.879C145.195 452.246 144.778 451.779 144.178 451.779C143.412 451.779 142.895 452.346 142.878 453.113V455.38H142.211V451.213H142.778L142.837 451.929C143.037 451.421 143.603 451.113 144.245 451.113ZM146.359 451.213H147.16L148.41 454.613H148.426L149.635 451.213H150.427L148.76 455.38H148.043L146.359 451.213ZM154.473 454.213C154.306 454.946 153.523 455.48 152.656 455.48C151.489 455.48 150.622 454.563 150.622 453.296C150.622 452.029 151.472 451.113 152.623 451.113C153.756 451.113 154.548 452.013 154.548 453.263C154.548 453.354 154.548 453.463 154.539 453.554H151.356C151.406 454.305 151.922 454.838 152.623 454.838C153.223 454.838 153.689 454.48 153.756 453.946L154.473 454.213ZM151.347 452.913H153.864C153.831 452.229 153.281 451.738 152.614 451.738C151.947 451.738 151.397 452.229 151.347 452.913ZM155.113 454.146L155.83 453.946C155.864 454.48 156.314 454.855 156.914 454.855C157.43 454.855 157.714 454.563 157.714 454.23C157.714 453.963 157.572 453.729 157.172 453.638L156.48 453.479C155.814 453.329 155.313 452.929 155.313 452.329C155.313 451.654 155.989 451.113 156.78 451.113C157.58 451.113 158.23 451.529 158.33 452.246L157.63 452.429C157.614 452.029 157.255 451.721 156.764 451.721C156.322 451.721 156.03 451.988 156.03 452.296C156.03 452.563 156.205 452.754 156.639 452.863L157.272 453.021C157.939 453.188 158.43 453.529 158.43 454.196C158.43 454.905 157.814 455.48 156.88 455.48C155.98 455.48 155.213 455.013 155.113 454.146ZM158.896 451.871V451.238H159.162C159.446 451.238 159.612 451.029 159.612 450.696V450.129H160.246V451.213H161.179V451.863H160.246V454.28C160.246 454.613 160.479 454.796 160.813 454.796C161.013 454.796 161.113 454.78 161.246 454.746L161.263 455.38C161.096 455.446 160.929 455.48 160.663 455.48C160.029 455.48 159.579 455.046 159.579 454.38V451.871H158.896ZM162.413 449.612C162.705 449.612 162.93 449.854 162.93 450.146C162.93 450.437 162.705 450.679 162.413 450.679C162.121 450.679 161.896 450.437 161.896 450.146C161.896 449.854 162.121 449.612 162.413 449.612ZM162.08 455.38V451.213H162.746V455.38H162.08ZM165.894 451.113C166.828 451.113 167.511 451.846 167.511 452.846V455.38H166.845V452.879C166.845 452.246 166.428 451.779 165.828 451.779C165.061 451.779 164.544 452.346 164.528 453.113V455.38H163.861V451.213H164.428L164.486 451.929C164.686 451.421 165.253 451.113 165.894 451.113ZM171.883 451.213H172.449V455.28C172.449 456.43 171.633 457.263 170.499 457.263C169.432 457.263 168.632 456.613 168.499 455.713L169.199 455.513C169.249 456.13 169.766 456.596 170.499 456.596C171.249 456.596 171.799 456.08 171.799 455.38V454.638C171.483 455.088 170.991 455.363 170.399 455.363C169.199 455.363 168.341 454.48 168.341 453.213C168.341 451.979 169.199 451.096 170.366 451.096C170.999 451.096 171.508 451.388 171.833 451.871L171.883 451.213ZM170.433 454.713C171.233 454.713 171.799 454.096 171.799 453.229C171.799 452.346 171.216 451.729 170.399 451.729C169.599 451.729 169.032 452.346 169.032 453.229C169.032 454.096 169.616 454.713 170.433 454.713ZM178.75 455.38H178.116L178.075 454.721C177.875 455.188 177.341 455.48 176.716 455.48C175.783 455.48 175.116 454.78 175.116 453.813V451.213H175.783V453.746C175.783 454.346 176.216 454.796 176.816 454.796C177.516 454.796 178.033 454.263 178.05 453.529V451.213H178.717V454.546L178.75 455.38ZM179.546 454.146L180.263 453.946C180.296 454.48 180.746 454.855 181.347 454.855C181.863 454.855 182.147 454.563 182.147 454.23C182.147 453.963 182.005 453.729 181.605 453.638L180.913 453.479C180.246 453.329 179.746 452.929 179.746 452.329C179.746 451.654 180.421 451.113 181.213 451.113C182.013 451.113 182.663 451.529 182.763 452.246L182.063 452.429C182.047 452.029 181.688 451.721 181.197 451.721C180.755 451.721 180.463 451.988 180.463 452.296C180.463 452.563 180.638 452.754 181.072 452.863L181.705 453.021C182.372 453.188 182.863 453.529 182.863 454.196C182.863 454.905 182.247 455.48 181.313 455.48C180.413 455.48 179.646 455.013 179.546 454.146ZM184.079 449.612C184.37 449.612 184.595 449.854 184.595 450.146C184.595 450.437 184.37 450.679 184.079 450.679C183.787 450.679 183.562 450.437 183.562 450.146C183.562 449.854 183.787 449.612 184.079 449.612ZM183.745 455.38V451.213H184.412V455.38H183.745ZM187.56 451.113C188.494 451.113 189.177 451.846 189.177 452.846V455.38H188.51V452.879C188.51 452.246 188.093 451.779 187.493 451.779C186.727 451.779 186.21 452.346 186.193 453.113V455.38H185.527V451.213H186.093L186.152 451.929C186.352 451.421 186.918 451.113 187.56 451.113ZM193.548 451.213H194.115V455.28C194.115 456.43 193.298 457.263 192.165 457.263C191.098 457.263 190.298 456.613 190.165 455.713L190.865 455.513C190.915 456.13 191.432 456.596 192.165 456.596C192.915 456.596 193.465 456.08 193.465 455.38V454.638C193.148 455.088 192.657 455.363 192.065 455.363C190.865 455.363 190.006 454.48 190.006 453.213C190.006 451.979 190.865 451.096 192.032 451.096C192.665 451.096 193.173 451.388 193.498 451.871L193.548 451.213ZM192.098 454.713C192.898 454.713 193.465 454.096 193.465 453.229C193.465 452.346 192.882 451.729 192.065 451.729C191.265 451.729 190.698 452.346 190.698 453.229C190.698 454.096 191.282 454.713 192.098 454.713ZM196.348 451.213H197.132L198.382 454.413H198.399L199.615 451.213H200.382L198.449 455.913C198.19 456.546 197.699 457.03 197.132 457.13L196.965 456.496C197.365 456.396 197.599 456.18 197.732 455.88L198.032 455.213L196.348 451.213ZM200.583 451.871V451.238H200.85C201.133 451.238 201.3 451.029 201.3 450.696V450.129H201.933V451.213H202.867V451.863H201.933V454.28C201.933 454.613 202.167 454.796 202.5 454.796C202.7 454.796 202.8 454.78 202.933 454.746L202.95 455.38C202.783 455.446 202.617 455.48 202.35 455.48C201.716 455.48 201.266 455.046 201.266 454.38V451.871H200.583ZM204.434 454.713H207.584V455.38H203.75V449.962H207.551V450.612H204.434V452.329H207.117V452.988H204.434V454.713ZM212.583 449.962V450.629H210.616V455.38H209.932V450.629H207.949V449.962H212.583ZM217.064 449.962H217.747V455.38H217.064V452.979H213.997V455.38H213.313V449.962H213.997V452.321H217.064V449.962Z" fill="white"/>
</g>
<g filter="url(#filter2_b_316_14165)">
<rect x="129" y="255" width="120" height="47" fill="black" fill-opacity="0.1"/>
<rect x="129" y="255" width="120" height="47" stroke="url(#paint12_linear_316_14165)" stroke-width="0.416711" stroke-linecap="round" stroke-linejoin="round" stroke-dasharray="5 5"/>
<path d="M139.734 263.85V260.583H140.418V263.8C140.418 264.733 141.051 265.4 141.918 265.4C142.784 265.4 143.418 264.733 143.418 263.8V260.583H144.101V263.833C144.101 265.133 143.184 266.1 141.918 266.1C140.651 266.1 139.734 265.15 139.734 263.85ZM144.833 264.767L145.549 264.567C145.583 265.1 146.033 265.475 146.633 265.475C147.149 265.475 147.433 265.183 147.433 264.85C147.433 264.583 147.291 264.35 146.891 264.258L146.199 264.1C145.533 263.95 145.033 263.55 145.033 262.95C145.033 262.275 145.708 261.733 146.499 261.733C147.299 261.733 147.95 262.15 148.05 262.866L147.349 263.05C147.333 262.65 146.974 262.341 146.483 262.341C146.041 262.341 145.749 262.608 145.749 262.916C145.749 263.183 145.924 263.375 146.358 263.483L146.991 263.641C147.658 263.808 148.15 264.15 148.15 264.817C148.15 265.525 147.533 266.1 146.599 266.1C145.699 266.1 144.933 265.633 144.833 264.767ZM152.632 264.833C152.465 265.567 151.682 266.1 150.815 266.1C149.648 266.1 148.781 265.183 148.781 263.916C148.781 262.65 149.632 261.733 150.782 261.733C151.915 261.733 152.707 262.633 152.707 263.883C152.707 263.975 152.707 264.083 152.699 264.175H149.515C149.565 264.925 150.082 265.458 150.782 265.458C151.382 265.458 151.848 265.1 151.915 264.567L152.632 264.833ZM149.507 263.533H152.023C151.99 262.85 151.44 262.358 150.773 262.358C150.107 262.358 149.557 262.85 149.507 263.533ZM155.256 261.75C155.489 261.75 155.689 261.8 155.789 261.883L155.773 262.683C155.639 262.583 155.456 262.516 155.189 262.516C154.623 262.516 154.223 263.033 154.206 263.733V266H153.539V261.833H154.089L154.164 262.65C154.339 262.108 154.739 261.75 155.256 261.75ZM157.855 264.767L158.571 264.567C158.605 265.1 159.055 265.475 159.655 265.475C160.172 265.475 160.455 265.183 160.455 264.85C160.455 264.583 160.313 264.35 159.913 264.258L159.222 264.1C158.555 263.95 158.055 263.55 158.055 262.95C158.055 262.275 158.73 261.733 159.522 261.733C160.322 261.733 160.972 262.15 161.072 262.866L160.372 263.05C160.355 262.65 159.997 262.341 159.505 262.341C159.063 262.341 158.771 262.608 158.771 262.916C158.771 263.183 158.947 263.375 159.38 263.483L160.013 263.641C160.68 263.808 161.172 264.15 161.172 264.817C161.172 265.525 160.555 266.1 159.622 266.1C158.721 266.1 157.955 265.633 157.855 264.767ZM161.637 262.491V261.858H161.904C162.187 261.858 162.354 261.65 162.354 261.316V260.749H162.987V261.833H163.921V262.483H162.987V264.9C162.987 265.233 163.22 265.417 163.554 265.417C163.754 265.417 163.854 265.4 163.987 265.367L164.004 266C163.837 266.067 163.671 266.1 163.404 266.1C162.77 266.1 162.32 265.667 162.32 265V262.491H161.637ZM167.988 266H167.371L167.313 265.283C167.079 265.758 166.596 266.067 165.971 266.067C165.171 266.067 164.538 265.567 164.538 264.8C164.538 264.2 164.954 263.766 165.588 263.7L167.021 263.533C167.188 263.516 167.288 263.433 167.288 263.3V263.233C167.288 262.7 166.888 262.333 166.338 262.333C165.788 262.333 165.388 262.716 165.371 263.316L164.638 263.216C164.721 262.333 165.438 261.733 166.354 261.733C167.288 261.733 167.955 262.35 167.955 263.216V265.167L167.988 266ZM166.038 265.4C166.771 265.4 167.288 264.933 167.288 264.3V264.016C167.263 264.041 167.146 264.066 167.004 264.083L165.788 264.216C165.421 264.266 165.221 264.467 165.221 264.767C165.221 265.133 165.571 265.4 166.038 265.4ZM169.02 266V260.333H169.687V263.883L171.654 261.833H172.587L171.012 263.483L172.821 266H171.987L170.52 263.958L169.687 264.817V266H169.02ZM173.773 260.233C174.065 260.233 174.29 260.474 174.29 260.766C174.29 261.058 174.065 261.3 173.773 261.3C173.482 261.3 173.257 261.058 173.257 260.766C173.257 260.474 173.482 260.233 173.773 260.233ZM173.44 266V261.833H174.107V266H173.44ZM177.255 261.733C178.188 261.733 178.872 262.466 178.872 263.466V266H178.205V263.5C178.205 262.866 177.788 262.4 177.188 262.4C176.421 262.4 175.905 262.966 175.888 263.733V266H175.221V261.833H175.788L175.846 262.55C176.046 262.041 176.613 261.733 177.255 261.733ZM183.243 261.833H183.81V265.9C183.81 267.05 182.993 267.884 181.86 267.884C180.793 267.884 179.993 267.233 179.859 266.333L180.559 266.133C180.609 266.75 181.126 267.217 181.86 267.217C182.61 267.217 183.16 266.7 183.16 266V265.258C182.843 265.708 182.351 265.983 181.76 265.983C180.559 265.983 179.701 265.1 179.701 263.833C179.701 262.6 180.559 261.716 181.726 261.716C182.36 261.716 182.868 262.008 183.193 262.491L183.243 261.833ZM181.793 265.333C182.593 265.333 183.16 264.717 183.16 263.85C183.16 262.966 182.576 262.35 181.76 262.35C180.96 262.35 180.393 262.966 180.393 263.85C180.393 264.717 180.976 265.333 181.793 265.333ZM187.227 265.333H190.377V266H186.543V260.583H190.344V261.233H187.227V262.95H189.91V263.608H187.227V265.333ZM195.375 260.583V261.249H193.409V266H192.725V261.249H190.742V260.583H195.375ZM199.857 260.583H200.54V266H199.857V263.6H196.79V266H196.106V260.583H196.79V262.941H199.857V260.583ZM202.942 262.491V261.858H203.208C203.492 261.858 203.659 261.65 203.659 261.316V260.749H204.292V261.833H205.225V262.483H204.292V264.9C204.292 265.233 204.525 265.417 204.859 265.417C205.059 265.417 205.159 265.4 205.292 265.367L205.309 266C205.142 266.067 204.975 266.1 204.709 266.1C204.075 266.1 203.625 265.667 203.625 265V262.491H202.942ZM207.862 266.1C206.645 266.1 205.778 265.183 205.778 263.916C205.778 262.65 206.645 261.733 207.862 261.733C209.078 261.733 209.945 262.65 209.945 263.916C209.945 265.183 209.078 266.1 207.862 266.1ZM207.862 265.442C208.662 265.442 209.253 264.783 209.253 263.916C209.253 263.041 208.662 262.375 207.862 262.375C207.061 262.375 206.47 263.041 206.47 263.916C206.47 264.783 207.061 265.442 207.862 265.442ZM214.198 261.75C214.431 261.75 214.631 261.8 214.731 261.883L214.715 262.683C214.581 262.583 214.398 262.516 214.131 262.516C213.564 262.516 213.164 263.033 213.148 263.733V266H212.481V261.833H213.031L213.106 262.65C213.281 262.108 213.681 261.75 214.198 261.75ZM218.915 264.833C218.748 265.567 217.965 266.1 217.098 266.1C215.931 266.1 215.064 265.183 215.064 263.916C215.064 262.65 215.915 261.733 217.065 261.733C218.198 261.733 218.99 262.633 218.99 263.883C218.99 263.975 218.99 264.083 218.982 264.175H215.798C215.848 264.925 216.365 265.458 217.065 265.458C217.665 265.458 218.131 265.1 218.198 264.567L218.915 264.833ZM215.79 263.533H218.306C218.273 262.85 217.723 262.358 217.056 262.358C216.39 262.358 215.84 262.85 215.79 263.533ZM223.589 264.567C223.423 265.467 222.623 266.1 221.689 266.1C220.472 266.1 219.622 265.183 219.622 263.916C219.622 262.65 220.497 261.733 221.672 261.733C222.589 261.733 223.373 262.35 223.506 263.2L222.789 263.45C222.723 262.833 222.256 262.375 221.656 262.375C220.889 262.375 220.322 263.025 220.322 263.908C220.322 264.792 220.889 265.442 221.689 265.442C222.289 265.442 222.806 264.967 222.856 264.333L223.589 264.567ZM227.973 264.833C227.807 265.567 227.023 266.1 226.157 266.1C224.99 266.1 224.123 265.183 224.123 263.916C224.123 262.65 224.973 261.733 226.123 261.733C227.257 261.733 228.048 262.633 228.048 263.883C228.048 263.975 228.048 264.083 228.04 264.175H224.856C224.906 264.925 225.423 265.458 226.123 265.458C226.723 265.458 227.19 265.1 227.257 264.567L227.973 264.833ZM224.848 263.533H227.365C227.332 262.85 226.782 262.358 226.115 262.358C225.448 262.358 224.898 262.85 224.848 263.533ZM229.264 260.233C229.556 260.233 229.781 260.474 229.781 260.766C229.781 261.058 229.556 261.3 229.264 261.3C228.973 261.3 228.747 261.058 228.747 260.766C228.747 260.474 228.973 260.233 229.264 260.233ZM228.931 266V261.833H229.598V266H228.931ZM230.245 261.833H231.045L232.296 265.233H232.312L233.521 261.833H234.312L232.646 266H231.929L230.245 261.833ZM238.359 264.833C238.192 265.567 237.409 266.1 236.542 266.1C235.375 266.1 234.508 265.183 234.508 263.916C234.508 262.65 235.358 261.733 236.508 261.733C237.642 261.733 238.434 262.633 238.434 263.883C238.434 263.975 238.434 264.083 238.425 264.175H235.242C235.292 264.925 235.808 265.458 236.508 265.458C237.109 265.458 237.575 265.1 237.642 264.567L238.359 264.833ZM235.233 263.533H237.75C237.717 262.85 237.167 262.358 236.5 262.358C235.833 262.358 235.283 262.85 235.233 263.533ZM146.536 271.733C147.686 271.733 148.536 272.65 148.536 273.883C148.536 275.15 147.686 276.067 146.553 276.067C145.944 276.067 145.428 275.758 145.103 275.258V277.667H144.436V271.833H145.003L145.061 272.575C145.378 272.058 145.903 271.733 146.536 271.733ZM146.469 275.417C147.27 275.417 147.845 274.783 147.845 273.9C147.845 273.016 147.286 272.375 146.486 272.375C145.686 272.375 145.086 273.016 145.086 273.9C145.086 274.783 145.669 275.417 146.469 275.417ZM149.001 272.491V271.858H149.268C149.551 271.858 149.718 271.65 149.718 271.316V270.749H150.351V271.833H151.285V272.483H150.351V274.9C150.351 275.233 150.585 275.417 150.918 275.417C151.118 275.417 151.218 275.4 151.352 275.367L151.368 276C151.202 276.067 151.035 276.1 150.768 276.1C150.135 276.1 149.685 275.667 149.685 275V272.491H149.001ZM152.852 275.333H156.002V276H152.169V270.583H155.969V271.233H152.852V272.95H155.536V273.608H152.852V275.333ZM161.001 270.583V271.249H159.034V276H158.351V271.249H156.367V270.583H161.001ZM165.482 270.583H166.166V276H165.482V273.6H162.415V276H161.732V270.583H162.415V272.941H165.482V270.583ZM168.667 271.833H169.384L169.776 275.083H169.809L170.801 271.833H171.534L172.484 275.1H172.518L172.968 271.833H173.651L172.951 276H172.118L171.167 272.8H171.134L170.134 276H169.284L168.667 271.833ZM174.835 270.233C175.127 270.233 175.352 270.474 175.352 270.766C175.352 271.058 175.127 271.3 174.835 271.3C174.544 271.3 174.319 271.058 174.319 270.766C174.319 270.474 174.544 270.233 174.835 270.233ZM174.502 276V271.833H175.169V276H174.502ZM175.917 272.491V271.858H176.183C176.467 271.858 176.633 271.65 176.633 271.316V270.749H177.267V271.833H178.2V272.483H177.267V274.9C177.267 275.233 177.5 275.417 177.833 275.417C178.034 275.417 178.134 275.4 178.267 275.367L178.284 276C178.117 276.067 177.95 276.1 177.683 276.1C177.05 276.1 176.6 275.667 176.6 275V272.491H175.917ZM181.117 271.733C182.051 271.733 182.734 272.466 182.734 273.466V276H182.068V273.5C182.068 272.866 181.651 272.4 181.051 272.4C180.284 272.4 179.767 272.966 179.751 273.733V276H179.084V270.333H179.751V272.458C179.976 272.008 180.509 271.733 181.117 271.733ZM185.473 270.333H186.14V276H185.473V270.333ZM189.122 276.1C187.905 276.1 187.038 275.183 187.038 273.916C187.038 272.65 187.905 271.733 189.122 271.733C190.339 271.733 191.205 272.65 191.205 273.916C191.205 275.183 190.339 276.1 189.122 276.1ZM189.122 275.442C189.922 275.442 190.514 274.783 190.514 273.916C190.514 273.041 189.922 272.375 189.122 272.375C188.322 272.375 187.73 273.041 187.73 273.916C187.73 274.783 188.322 275.442 189.122 275.442ZM195.84 274.567C195.673 275.467 194.873 276.1 193.94 276.1C192.723 276.1 191.873 275.183 191.873 273.916C191.873 272.65 192.748 271.733 193.923 271.733C194.84 271.733 195.623 272.35 195.756 273.2L195.04 273.45C194.973 272.833 194.506 272.375 193.906 272.375C193.14 272.375 192.573 273.025 192.573 273.908C192.573 274.792 193.14 275.442 193.94 275.442C194.54 275.442 195.056 274.967 195.106 274.333L195.84 274.567ZM196.607 276V270.333H197.274V273.883L199.241 271.833H200.174L198.599 273.483L200.407 276H199.574L198.107 273.958L197.274 274.817V276H196.607ZM202.278 272.491V271.858H202.545C202.829 271.858 202.995 271.65 202.995 271.316V270.749H203.629V271.833H204.562V272.483H203.629V274.9C203.629 275.233 203.862 275.417 204.195 275.417C204.395 275.417 204.495 275.4 204.629 275.367L204.645 276C204.479 276.067 204.312 276.1 204.045 276.1C203.412 276.1 202.962 275.667 202.962 275V272.491H202.278ZM205.796 270.233C206.087 270.233 206.312 270.474 206.312 270.766C206.312 271.058 206.087 271.3 205.796 271.3C205.504 271.3 205.279 271.058 205.279 270.766C205.279 270.474 205.504 270.233 205.796 270.233ZM205.462 276V271.833H206.129V276H205.462ZM212.036 271.733C212.886 271.733 213.478 272.433 213.478 273.4V276H212.819V273.466C212.819 272.833 212.436 272.4 211.869 272.4C211.219 272.4 210.727 272.966 210.711 273.766V276H210.044V273.5C210.044 272.883 209.652 272.4 209.085 272.4C208.402 272.4 207.927 272.966 207.91 273.766V276H207.244V271.833H207.81L207.869 272.566C208.077 272.075 208.594 271.733 209.219 271.733C209.844 271.733 210.336 272.108 210.569 272.666C210.744 272.116 211.344 271.733 212.036 271.733ZM218.162 274.833C217.995 275.567 217.212 276.1 216.345 276.1C215.178 276.1 214.312 275.183 214.312 273.916C214.312 272.65 215.162 271.733 216.312 271.733C217.445 271.733 218.237 272.633 218.237 273.883C218.237 273.975 218.237 274.083 218.229 274.175H215.045C215.095 274.925 215.612 275.458 216.312 275.458C216.912 275.458 217.379 275.1 217.445 274.567L218.162 274.833ZM215.037 273.533H217.554C217.52 272.85 216.97 272.358 216.304 272.358C215.637 272.358 215.087 272.85 215.037 273.533ZM223.955 276H223.338L223.28 275.283C223.046 275.758 222.563 276.067 221.938 276.067C221.138 276.067 220.505 275.567 220.505 274.8C220.505 274.2 220.921 273.766 221.555 273.7L222.988 273.533C223.155 273.516 223.255 273.433 223.255 273.3V273.233C223.255 272.7 222.855 272.333 222.305 272.333C221.755 272.333 221.355 272.716 221.338 273.316L220.605 273.216C220.688 272.333 221.405 271.733 222.321 271.733C223.255 271.733 223.922 272.35 223.922 273.216V275.167L223.955 276ZM222.005 275.4C222.738 275.4 223.255 274.933 223.255 274.3V274.016C223.23 274.041 223.113 274.066 222.971 274.083L221.755 274.216C221.388 274.266 221.188 274.467 221.188 274.767C221.188 275.133 221.538 275.4 222.005 275.4ZM226.987 271.733C227.921 271.733 228.604 272.466 228.604 273.466V276H227.937V273.5C227.937 272.866 227.521 272.4 226.921 272.4C226.154 272.4 225.637 272.966 225.621 273.733V276H224.954V271.833H225.521L225.579 272.55C225.779 272.041 226.346 271.733 226.987 271.733ZM233.567 276H233.001L232.917 275.258C232.601 275.758 232.084 276.067 231.467 276.067C230.267 276.067 229.4 275.15 229.4 273.883C229.4 272.65 230.267 271.733 231.434 271.733C232.042 271.733 232.542 272.008 232.867 272.475V270.333H233.534V275.167L233.567 276ZM231.501 275.417C232.301 275.417 232.884 274.767 232.884 273.9C232.884 273.016 232.284 272.366 231.467 272.366C230.667 272.366 230.092 273.016 230.092 273.9C230.092 274.767 230.684 275.417 231.501 275.417ZM145.703 281.733C146.853 281.733 147.703 282.65 147.703 283.883C147.703 285.15 146.853 286.067 145.719 286.067C145.086 286.067 144.553 285.733 144.228 285.192L144.069 286H143.602V280.333H144.269V282.508C144.594 282.033 145.094 281.733 145.703 281.733ZM145.636 285.417C146.436 285.417 147.011 284.783 147.011 283.9C147.011 283.016 146.453 282.375 145.653 282.375C144.853 282.375 144.253 283.016 144.253 283.9C144.253 284.783 144.836 285.417 145.636 285.417ZM152.134 286H151.501L151.459 285.342C151.259 285.808 150.726 286.1 150.101 286.1C149.167 286.1 148.5 285.4 148.5 284.433V281.833H149.167V284.366C149.167 284.967 149.601 285.417 150.201 285.417C150.901 285.417 151.417 284.883 151.434 284.15V281.833H152.101V285.167L152.134 286ZM154.914 281.75C155.148 281.75 155.348 281.8 155.448 281.883L155.431 282.683C155.298 282.583 155.114 282.516 154.848 282.516C154.281 282.516 153.881 283.033 153.864 283.733V286H153.197V281.833H153.747L153.822 282.65C153.997 282.108 154.398 281.75 154.914 281.75ZM158.145 281.733C159.078 281.733 159.762 282.466 159.762 283.466V286H159.095V283.5C159.095 282.866 158.678 282.4 158.078 282.4C157.311 282.4 156.795 282.966 156.778 283.733V286H156.111V281.833H156.678L156.736 282.55C156.936 282.041 157.503 281.733 158.145 281.733ZM164.56 281.733C165.71 281.733 166.56 282.65 166.56 283.883C166.56 285.15 165.71 286.067 164.576 286.067C163.968 286.067 163.451 285.758 163.126 285.258V287.667H162.459V281.833H163.026L163.085 282.575C163.401 282.058 163.926 281.733 164.56 281.733ZM164.493 285.417C165.293 285.417 165.868 284.783 165.868 283.9C165.868 283.016 165.31 282.375 164.51 282.375C163.71 282.375 163.11 283.016 163.11 283.9C163.11 284.783 163.693 285.417 164.493 285.417ZM167.025 282.491V281.858H167.292C167.575 281.858 167.742 281.65 167.742 281.316V280.749H168.375V281.833H169.308V282.483H168.375V284.9C168.375 285.233 168.608 285.417 168.942 285.417C169.142 285.417 169.242 285.4 169.375 285.367L169.392 286C169.225 286.067 169.058 286.1 168.792 286.1C168.158 286.1 167.708 285.667 167.708 285V282.491H167.025ZM170.876 285.333H174.026V286H170.192V280.583H173.993V281.233H170.876V282.95H173.559V283.608H170.876V285.333ZM179.024 280.583V281.249H177.058V286H176.374V281.249H174.391V280.583H179.024ZM183.506 280.583H184.189V286H183.506V283.6H180.439V286H179.755V280.583H180.439V282.941H183.506V280.583ZM186.591 282.491V281.858H186.857C187.141 281.858 187.308 281.65 187.308 281.316V280.749H187.941V281.833H188.874V282.483H187.941V284.9C187.941 285.233 188.174 285.417 188.508 285.417C188.708 285.417 188.808 285.4 188.941 285.367L188.958 286C188.791 286.067 188.624 286.1 188.358 286.1C187.724 286.1 187.274 285.667 187.274 285V282.491H186.591ZM191.511 286.1C190.294 286.1 189.427 285.183 189.427 283.916C189.427 282.65 190.294 281.733 191.511 281.733C192.727 281.733 193.594 282.65 193.594 283.916C193.594 285.183 192.727 286.1 191.511 286.1ZM191.511 285.442C192.311 285.442 192.902 284.783 192.902 283.916C192.902 283.041 192.311 282.375 191.511 282.375C190.71 282.375 190.119 283.041 190.119 283.916C190.119 284.783 190.71 285.442 191.511 285.442ZM199.897 284.567C199.73 285.467 198.93 286.1 197.997 286.1C196.78 286.1 195.93 285.183 195.93 283.916C195.93 282.65 196.805 281.733 197.98 281.733C198.897 281.733 199.68 282.35 199.814 283.2L199.097 283.45C199.03 282.833 198.564 282.375 197.964 282.375C197.197 282.375 196.63 283.025 196.63 283.908C196.63 284.792 197.197 285.442 197.997 285.442C198.597 285.442 199.114 284.967 199.164 284.333L199.897 284.567ZM200.664 280.333H201.331V286H200.664V280.333ZM205.646 286H205.03L204.971 285.283C204.738 285.758 204.255 286.067 203.63 286.067C202.83 286.067 202.196 285.567 202.196 284.8C202.196 284.2 202.613 283.766 203.246 283.7L204.68 283.533C204.846 283.516 204.946 283.433 204.946 283.3V283.233C204.946 282.7 204.546 282.333 203.996 282.333C203.446 282.333 203.046 282.716 203.03 283.316L202.296 283.216C202.379 282.333 203.096 281.733 204.013 281.733C204.946 281.733 205.613 282.35 205.613 283.216V285.167L205.646 286ZM203.696 285.4C204.43 285.4 204.946 284.933 204.946 284.3V284.016C204.921 284.041 204.805 284.066 204.663 284.083L203.446 284.216C203.08 284.266 202.88 284.467 202.88 284.767C202.88 285.133 203.23 285.4 203.696 285.4ZM207.029 280.233C207.32 280.233 207.546 280.474 207.546 280.766C207.546 281.058 207.32 281.3 207.029 281.3C206.737 281.3 206.512 281.058 206.512 280.766C206.512 280.474 206.737 280.233 207.029 280.233ZM206.695 286V281.833H207.362V286H206.695ZM213.269 281.733C214.119 281.733 214.711 282.433 214.711 283.4V286H214.052V283.466C214.052 282.833 213.669 282.4 213.102 282.4C212.452 282.4 211.96 282.966 211.944 283.766V286H211.277V283.5C211.277 282.883 210.885 282.4 210.319 282.4C209.635 282.4 209.16 282.966 209.143 283.766V286H208.477V281.833H209.043L209.102 282.566C209.31 282.075 209.827 281.733 210.452 281.733C211.077 281.733 211.569 282.108 211.802 282.666C211.977 282.116 212.577 281.733 213.269 281.733ZM219.547 281.733C220.697 281.733 221.547 282.65 221.547 283.883C221.547 285.15 220.697 286.067 219.563 286.067C218.93 286.067 218.397 285.733 218.072 285.192L217.913 286H217.447V280.333H218.113V282.508C218.438 282.033 218.938 281.733 219.547 281.733ZM219.48 285.417C220.28 285.417 220.855 284.783 220.855 283.9C220.855 283.016 220.297 282.375 219.497 282.375C218.697 282.375 218.097 283.016 218.097 283.9C218.097 284.783 218.68 285.417 219.48 285.417ZM225.595 286H224.978L224.92 285.283C224.686 285.758 224.203 286.067 223.578 286.067C222.778 286.067 222.145 285.567 222.145 284.8C222.145 284.2 222.561 283.766 223.195 283.7L224.628 283.533C224.795 283.516 224.895 283.433 224.895 283.3V283.233C224.895 282.7 224.495 282.333 223.945 282.333C223.395 282.333 222.995 282.716 222.978 283.316L222.245 283.216C222.328 282.333 223.045 281.733 223.961 281.733C224.895 281.733 225.562 282.35 225.562 283.216V285.167L225.595 286ZM223.645 285.4C224.378 285.4 224.895 284.933 224.895 284.3V284.016C224.87 284.041 224.753 284.066 224.611 284.083L223.395 284.216C223.028 284.266 222.828 284.467 222.828 284.767C222.828 285.133 223.178 285.4 223.645 285.4ZM230.361 284.567C230.194 285.467 229.394 286.1 228.461 286.1C227.244 286.1 226.394 285.183 226.394 283.916C226.394 282.65 227.269 281.733 228.444 281.733C229.361 281.733 230.144 282.35 230.278 283.2L229.561 283.45C229.494 282.833 229.027 282.375 228.427 282.375C227.661 282.375 227.094 283.025 227.094 283.908C227.094 284.792 227.661 285.442 228.461 285.442C229.061 285.442 229.577 284.967 229.627 284.333L230.361 284.567ZM231.128 286V280.333H231.795V283.883L233.762 281.833H234.695L233.12 283.483L234.928 286H234.095L232.628 283.958L231.795 284.817V286H231.128ZM153.658 295.333H156.808V296H152.974V290.583H156.775V291.233H153.658V292.95H156.341V293.608H153.658V295.333ZM161.807 290.583V291.249H159.84V296H159.156V291.249H157.173V290.583H161.807ZM166.288 290.583H166.971V296H166.288V293.6H163.221V296H162.538V290.583H163.221V292.941H166.288V290.583ZM172.957 296H172.34L172.282 295.283C172.048 295.758 171.565 296.067 170.94 296.067C170.14 296.067 169.506 295.567 169.506 294.8C169.506 294.2 169.923 293.766 170.556 293.7L171.99 293.533C172.157 293.516 172.257 293.433 172.257 293.3V293.233C172.257 292.7 171.857 292.333 171.307 292.333C170.756 292.333 170.356 292.716 170.34 293.316L169.606 293.216C169.69 292.333 170.406 291.733 171.323 291.733C172.257 291.733 172.923 292.35 172.923 293.216V295.167L172.957 296ZM171.006 295.4C171.74 295.4 172.257 294.933 172.257 294.3V294.016C172.232 294.041 172.115 294.066 171.973 294.083L170.756 294.216C170.39 294.266 170.19 294.467 170.19 294.767C170.19 295.133 170.54 295.4 171.006 295.4ZM174.339 290.233C174.631 290.233 174.856 290.474 174.856 290.766C174.856 291.058 174.631 291.3 174.339 291.3C174.047 291.3 173.822 291.058 173.822 290.766C173.822 290.474 174.047 290.233 174.339 290.233ZM174.006 296V291.833H174.672V296H174.006ZM182.247 291.733C183.098 291.733 183.689 292.433 183.689 293.4V296H183.031V293.466C183.031 292.833 182.648 292.4 182.081 292.4C181.431 292.4 180.939 292.966 180.922 293.766V296H180.256V293.5C180.256 292.883 179.864 292.4 179.297 292.4C178.614 292.4 178.139 292.966 178.122 293.766V296H177.455V291.833H178.022L178.08 292.566C178.289 292.075 178.805 291.733 179.431 291.733C180.056 291.733 180.547 292.108 180.781 292.666C180.956 292.116 181.556 291.733 182.247 291.733ZM187.94 296H187.324L187.265 295.283C187.032 295.758 186.549 296.067 185.923 296.067C185.123 296.067 184.49 295.567 184.49 294.8C184.49 294.2 184.907 293.766 185.54 293.7L186.974 293.533C187.14 293.516 187.24 293.433 187.24 293.3V293.233C187.24 292.7 186.84 292.333 186.29 292.333C185.74 292.333 185.34 292.716 185.323 293.316L184.59 293.216C184.673 292.333 185.39 291.733 186.307 291.733C187.24 291.733 187.907 292.35 187.907 293.216V295.167L187.94 296ZM185.99 295.4C186.724 295.4 187.24 294.933 187.24 294.3V294.016C187.215 294.041 187.099 294.066 186.957 294.083L185.74 294.216C185.373 294.266 185.173 294.467 185.173 294.767C185.173 295.133 185.523 295.4 185.99 295.4ZM188.573 292.491V291.858H188.839C189.123 291.858 189.289 291.65 189.289 291.316V290.749H189.923V291.833H190.856V292.483H189.923V294.9C189.923 295.233 190.156 295.417 190.489 295.417C190.689 295.417 190.789 295.4 190.923 295.367L190.94 296C190.773 296.067 190.606 296.1 190.339 296.1C189.706 296.1 189.256 295.667 189.256 295V292.491H188.573ZM195.307 296H194.673L194.632 295.342C194.432 295.808 193.898 296.1 193.273 296.1C192.34 296.1 191.673 295.4 191.673 294.433V291.833H192.34V294.366C192.34 294.967 192.773 295.417 193.373 295.417C194.073 295.417 194.59 294.883 194.607 294.15V291.833H195.274V295.167L195.307 296ZM198.087 291.75C198.32 291.75 198.52 291.8 198.62 291.883L198.604 292.683C198.47 292.583 198.287 292.516 198.02 292.516C197.454 292.516 197.053 293.033 197.037 293.733V296H196.37V291.833H196.92L196.995 292.65C197.17 292.108 197.57 291.75 198.087 291.75ZM199.667 290.233C199.959 290.233 200.184 290.474 200.184 290.766C200.184 291.058 199.959 291.3 199.667 291.3C199.375 291.3 199.15 291.058 199.15 290.766C199.15 290.474 199.375 290.233 199.667 290.233ZM199.334 296V291.833H200.001V296H199.334ZM200.748 292.491V291.858H201.015C201.298 291.858 201.465 291.65 201.465 291.316V290.749H202.098V291.833H203.032V292.483H202.098V294.9C202.098 295.233 202.332 295.417 202.665 295.417C202.865 295.417 202.965 295.4 203.099 295.367L203.115 296C202.949 296.067 202.782 296.1 202.515 296.1C201.882 296.1 201.432 295.667 201.432 295V292.491H200.748ZM203.416 291.833H204.199L205.449 295.033H205.466L206.683 291.833H207.449L205.516 296.533C205.257 297.167 204.766 297.65 204.199 297.75L204.032 297.117C204.432 297.017 204.666 296.8 204.799 296.5L205.099 295.833L203.416 291.833ZM213.619 296H213.052L212.969 295.258C212.652 295.758 212.136 296.067 211.519 296.067C210.319 296.067 209.452 295.15 209.452 293.883C209.452 292.65 210.319 291.733 211.485 291.733C212.094 291.733 212.594 292.008 212.919 292.475V290.333H213.586V295.167L213.619 296ZM211.552 295.417C212.352 295.417 212.936 294.767 212.936 293.9C212.936 293.016 212.336 292.366 211.519 292.366C210.719 292.366 210.144 293.016 210.144 293.9C210.144 294.767 210.735 295.417 211.552 295.417ZM217.9 296H217.283L217.225 295.283C216.991 295.758 216.508 296.067 215.883 296.067C215.083 296.067 214.449 295.567 214.449 294.8C214.449 294.2 214.866 293.766 215.499 293.7L216.933 293.533C217.099 293.516 217.199 293.433 217.199 293.3V293.233C217.199 292.7 216.799 292.333 216.249 292.333C215.699 292.333 215.299 292.716 215.283 293.316L214.549 293.216C214.633 292.333 215.349 291.733 216.266 291.733C217.199 291.733 217.866 292.35 217.866 293.216V295.167L217.9 296ZM215.949 295.4C216.683 295.4 217.199 294.933 217.199 294.3V294.016C217.174 294.041 217.058 294.066 216.916 294.083L215.699 294.216C215.333 294.266 215.133 294.467 215.133 294.767C215.133 295.133 215.483 295.4 215.949 295.4ZM218.532 292.491V291.858H218.798C219.082 291.858 219.249 291.65 219.249 291.316V290.749H219.882V291.833H220.815V292.483H219.882V294.9C219.882 295.233 220.115 295.417 220.449 295.417C220.649 295.417 220.749 295.4 220.882 295.367L220.899 296C220.732 296.067 220.565 296.1 220.299 296.1C219.665 296.1 219.215 295.667 219.215 295V292.491H218.532ZM225.218 294.833C225.052 295.567 224.268 296.1 223.402 296.1C222.235 296.1 221.368 295.183 221.368 293.916C221.368 292.65 222.218 291.733 223.368 291.733C224.502 291.733 225.293 292.633 225.293 293.883C225.293 293.975 225.293 294.083 225.285 294.175H222.101C222.151 294.925 222.668 295.458 223.368 295.458C223.968 295.458 224.435 295.1 224.502 294.567L225.218 294.833ZM222.093 293.533H224.61C224.577 292.85 224.027 292.358 223.36 292.358C222.693 292.358 222.143 292.85 222.093 293.533Z" fill="white"/>
</g>
<g filter="url(#filter3_b_316_14165)">
<rect x="244.341" y="378.683" width="206.272" height="18.752" fill="black" fill-opacity="0.1"/>
<rect x="244.341" y="378.683" width="206.272" height="18.752" stroke="url(#paint13_linear_316_14165)" stroke-width="0.416711" stroke-linecap="round" stroke-linejoin="round" stroke-dasharray="5 5"/>
<path d="M260.577 385.142C261.611 385.142 262.344 385.842 262.344 386.825C262.344 387.825 261.602 388.534 260.552 388.534H259.077V390.559H258.394V385.142H260.577ZM260.577 387.875C261.194 387.875 261.644 387.442 261.644 386.842C261.644 386.242 261.211 385.809 260.611 385.809H259.077V387.875H260.577ZM264.757 386.309C264.99 386.309 265.19 386.359 265.29 386.442L265.274 387.242C265.14 387.142 264.957 387.075 264.69 387.075C264.124 387.075 263.724 387.592 263.707 388.292V390.559H263.04V386.392H263.59L263.665 387.209C263.84 386.667 264.24 386.309 264.757 386.309ZM267.707 390.659C266.49 390.659 265.624 389.742 265.624 388.476C265.624 387.209 266.49 386.292 267.707 386.292C268.924 386.292 269.791 387.209 269.791 388.476C269.791 389.742 268.924 390.659 267.707 390.659ZM267.707 390.001C268.507 390.001 269.099 389.342 269.099 388.476C269.099 387.6 268.507 386.934 267.707 386.934C266.907 386.934 266.315 387.6 266.315 388.476C266.315 389.342 266.907 390.001 267.707 390.001ZM272.208 385.509C271.875 385.509 271.675 385.759 271.675 386.125V386.392H272.675V387.059H271.675V390.559H271.008V387.059H270.325V386.392H271.008V386.125C271.008 385.375 271.475 384.825 272.125 384.825C272.458 384.825 272.608 384.892 272.842 385.025L272.675 385.692C272.575 385.592 272.442 385.509 272.208 385.509ZM273.793 384.792C274.084 384.792 274.309 385.033 274.309 385.325C274.309 385.617 274.084 385.859 273.793 385.859C273.501 385.859 273.276 385.617 273.276 385.325C273.276 385.033 273.501 384.792 273.793 384.792ZM273.459 390.559V386.392H274.126V390.559H273.459ZM274.874 387.05V386.417H275.14C275.424 386.417 275.59 386.209 275.59 385.875V385.309H276.224V386.392H277.157V387.042H276.224V389.459C276.224 389.792 276.457 389.976 276.791 389.976C276.991 389.976 277.091 389.959 277.224 389.926L277.241 390.559C277.074 390.626 276.907 390.659 276.641 390.659C276.007 390.659 275.557 390.226 275.557 389.559V387.05H274.874ZM279.409 389.326L280.126 389.126C280.159 389.659 280.61 390.034 281.21 390.034C281.726 390.034 282.01 389.742 282.01 389.409C282.01 389.142 281.868 388.909 281.468 388.817L280.776 388.659C280.109 388.509 279.609 388.109 279.609 387.509C279.609 386.834 280.285 386.292 281.076 386.292C281.876 386.292 282.526 386.709 282.626 387.425L281.926 387.609C281.91 387.209 281.551 386.9 281.06 386.9C280.618 386.9 280.326 387.167 280.326 387.475C280.326 387.742 280.501 387.934 280.935 388.042L281.568 388.2C282.235 388.367 282.726 388.709 282.726 389.376C282.726 390.084 282.11 390.659 281.176 390.659C280.276 390.659 279.509 390.192 279.409 389.326ZM285.625 386.292C286.559 386.292 287.242 387.025 287.242 388.025V390.559H286.575V388.059C286.575 387.425 286.159 386.959 285.559 386.959C284.792 386.959 284.275 387.525 284.258 388.292V390.559H283.592V384.892H284.258V387.017C284.483 386.567 285.017 386.292 285.625 386.292ZM291.496 390.559H290.879L290.821 389.842C290.587 390.317 290.104 390.626 289.479 390.626C288.679 390.626 288.046 390.126 288.046 389.359C288.046 388.759 288.462 388.326 289.096 388.259L290.529 388.092C290.696 388.075 290.796 387.992 290.796 387.859V387.792C290.796 387.259 290.396 386.892 289.846 386.892C289.296 386.892 288.896 387.275 288.879 387.875L288.146 387.775C288.229 386.892 288.946 386.292 289.862 386.292C290.796 386.292 291.463 386.909 291.463 387.775V389.726L291.496 390.559ZM289.546 389.959C290.279 389.959 290.796 389.492 290.796 388.859V388.576C290.771 388.601 290.654 388.626 290.512 388.642L289.296 388.776C288.929 388.826 288.729 389.026 288.729 389.326C288.729 389.692 289.079 389.959 289.546 389.959ZM294.212 386.309C294.445 386.309 294.645 386.359 294.745 386.442L294.728 387.242C294.595 387.142 294.412 387.075 294.145 387.075C293.578 387.075 293.178 387.592 293.162 388.292V390.559H292.495V386.392H293.045L293.12 387.209C293.295 386.667 293.695 386.309 294.212 386.309ZM295.792 384.792C296.084 384.792 296.309 385.033 296.309 385.325C296.309 385.617 296.084 385.859 295.792 385.859C295.5 385.859 295.275 385.617 295.275 385.325C295.275 385.033 295.5 384.792 295.792 384.792ZM295.459 390.559V386.392H296.125V390.559H295.459ZM299.273 386.292C300.207 386.292 300.89 387.025 300.89 388.025V390.559H300.223V388.059C300.223 387.425 299.807 386.959 299.207 386.959C298.44 386.959 297.923 387.525 297.907 388.292V390.559H297.24V386.392H297.807L297.865 387.109C298.065 386.6 298.632 386.292 299.273 386.292ZM305.262 386.392H305.828V390.459C305.828 391.609 305.012 392.443 303.878 392.443C302.811 392.443 302.011 391.793 301.878 390.892L302.578 390.692C302.628 391.309 303.145 391.776 303.878 391.776C304.628 391.776 305.178 391.259 305.178 390.559V389.817C304.862 390.267 304.37 390.542 303.778 390.542C302.578 390.542 301.72 389.659 301.72 388.392C301.72 387.159 302.578 386.275 303.745 386.275C304.378 386.275 304.887 386.567 305.212 387.05L305.262 386.392ZM303.812 389.892C304.612 389.892 305.178 389.276 305.178 388.409C305.178 387.525 304.595 386.909 303.778 386.909C302.978 386.909 302.411 387.525 302.411 388.409C302.411 389.276 302.995 389.892 303.812 389.892ZM308.912 384.792C309.204 384.792 309.429 385.033 309.429 385.325C309.429 385.617 309.204 385.859 308.912 385.859C308.62 385.859 308.395 385.617 308.395 385.325C308.395 385.033 308.62 384.792 308.912 384.792ZM308.578 390.559V386.392H309.245V390.559H308.578ZM312.393 386.292C313.327 386.292 314.01 387.025 314.01 388.025V390.559H313.343V388.059C313.343 387.425 312.927 386.959 312.327 386.959C311.56 386.959 311.043 387.525 311.026 388.292V390.559H310.36V386.392H310.926L310.985 387.109C311.185 386.6 311.752 386.292 312.393 386.292ZM318.258 385.509C317.925 385.509 317.725 385.759 317.725 386.125V386.392H318.725V387.059H317.725V390.559H317.058V387.059H316.375V386.392H317.058V386.125C317.058 385.375 317.525 384.825 318.175 384.825C318.508 384.825 318.658 384.892 318.892 385.025L318.725 385.692C318.625 385.592 318.492 385.509 318.258 385.509ZM321.342 390.659C320.126 390.659 319.259 389.742 319.259 388.476C319.259 387.209 320.126 386.292 321.342 386.292C322.559 386.292 323.426 387.209 323.426 388.476C323.426 389.742 322.559 390.659 321.342 390.659ZM321.342 390.001C322.143 390.001 322.734 389.342 322.734 388.476C322.734 387.6 322.143 386.934 321.342 386.934C320.542 386.934 319.951 387.6 319.951 388.476C319.951 389.342 320.542 390.001 321.342 390.001ZM326.01 386.309C326.244 386.309 326.444 386.359 326.544 386.442L326.527 387.242C326.394 387.142 326.21 387.075 325.944 387.075C325.377 387.075 324.977 387.592 324.96 388.292V390.559H324.293V386.392H324.844L324.919 387.209C325.094 386.667 325.494 386.309 326.01 386.309ZM331.999 386.292C332.849 386.292 333.441 386.992 333.441 387.959V390.559H332.783V388.025C332.783 387.392 332.399 386.959 331.833 386.959C331.183 386.959 330.691 387.525 330.674 388.326V390.559H330.007V388.059C330.007 387.442 329.616 386.959 329.049 386.959C328.366 386.959 327.891 387.525 327.874 388.326V390.559H327.207V386.392H327.774L327.832 387.125C328.041 386.634 328.557 386.292 329.182 386.292C329.807 386.292 330.299 386.667 330.533 387.225C330.708 386.675 331.308 386.292 331.999 386.292ZM338.027 390.659C336.81 390.659 335.944 389.742 335.944 388.476C335.944 387.209 336.81 386.292 338.027 386.292C339.244 386.292 340.111 387.209 340.111 388.476C340.111 389.742 339.244 390.659 338.027 390.659ZM338.027 390.001C338.827 390.001 339.419 389.342 339.419 388.476C339.419 387.6 338.827 386.934 338.027 386.934C337.227 386.934 336.635 387.6 336.635 388.476C336.635 389.342 337.227 390.001 338.027 390.001ZM342.528 385.509C342.195 385.509 341.995 385.759 341.995 386.125V386.392H342.995V387.059H341.995V390.559H341.328V387.059H340.645V386.392H341.328V386.125C341.328 385.375 341.795 384.825 342.445 384.825C342.778 384.825 342.928 384.892 343.162 385.025L342.995 385.692C342.895 385.592 342.762 385.509 342.528 385.509ZM345.164 388.842L345.948 388.676C345.948 389.442 346.581 389.992 347.448 389.992C348.131 389.992 348.631 389.609 348.631 389.042C348.631 388.676 348.315 388.334 347.848 388.226L346.831 387.992C345.998 387.8 345.431 387.275 345.431 386.575C345.431 385.675 346.181 385.042 347.264 385.042C348.281 385.042 349.098 385.642 349.198 386.475L348.448 386.675C348.415 386.075 347.898 385.675 347.231 385.675C346.598 385.675 346.148 386.009 346.148 386.509C346.148 386.942 346.498 387.225 347.031 387.342L348.081 387.575C348.848 387.742 349.365 388.292 349.365 388.992C349.365 389.976 348.581 390.659 347.431 390.659C346.181 390.659 345.231 389.909 345.164 388.842ZM349.865 387.05V386.417H350.132C350.415 386.417 350.582 386.209 350.582 385.875V385.309H351.216V386.392H352.149V387.042H351.216V389.459C351.216 389.792 351.449 389.976 351.782 389.976C351.982 389.976 352.082 389.959 352.216 389.926L352.232 390.559C352.066 390.626 351.899 390.659 351.632 390.659C350.999 390.659 350.549 390.226 350.549 389.559V387.05H349.865ZM356.216 390.559H355.6L355.541 389.842C355.308 390.317 354.824 390.626 354.199 390.626C353.399 390.626 352.766 390.126 352.766 389.359C352.766 388.759 353.183 388.326 353.816 388.259L355.25 388.092C355.416 388.075 355.516 387.992 355.516 387.859V387.792C355.516 387.259 355.116 386.892 354.566 386.892C354.016 386.892 353.616 387.275 353.599 387.875L352.866 387.775C352.949 386.892 353.666 386.292 354.583 386.292C355.516 386.292 356.183 386.909 356.183 387.775V389.726L356.216 390.559ZM354.266 389.959C354.999 389.959 355.516 389.492 355.516 388.859V388.576C355.491 388.601 355.375 388.626 355.233 388.642L354.016 388.776C353.649 388.826 353.449 389.026 353.449 389.326C353.449 389.692 353.799 389.959 354.266 389.959ZM359.349 386.292C360.499 386.292 361.349 387.209 361.349 388.442C361.349 389.709 360.499 390.626 359.365 390.626C358.732 390.626 358.199 390.292 357.874 389.751L357.715 390.559H357.249V384.892H357.915V387.067C358.24 386.592 358.74 386.292 359.349 386.292ZM359.282 389.976C360.082 389.976 360.657 389.342 360.657 388.459C360.657 387.575 360.099 386.934 359.299 386.934C358.499 386.934 357.899 387.575 357.899 388.459C357.899 389.342 358.482 389.976 359.282 389.976ZM362.213 384.892H362.88V390.559H362.213V384.892ZM367.629 389.392C367.462 390.126 366.679 390.659 365.812 390.659C364.645 390.659 363.779 389.742 363.779 388.476C363.779 387.209 364.629 386.292 365.779 386.292C366.912 386.292 367.704 387.192 367.704 388.442C367.704 388.534 367.704 388.642 367.696 388.734H364.512C364.562 389.484 365.079 390.017 365.779 390.017C366.379 390.017 366.846 389.659 366.912 389.126L367.629 389.392ZM364.504 388.092H367.021C366.987 387.409 366.437 386.917 365.77 386.917C365.104 386.917 364.554 387.409 364.504 388.092ZM375.089 388.726C374.905 389.859 373.872 390.659 372.705 390.659C371.188 390.659 370.072 389.476 370.072 387.859C370.072 386.225 371.172 385.042 372.688 385.042C373.855 385.042 374.839 385.792 375.039 386.859L374.239 387.125C374.139 386.325 373.472 385.725 372.672 385.725C371.588 385.725 370.805 386.625 370.805 387.842C370.805 389.059 371.622 389.959 372.705 389.959C373.572 389.959 374.239 389.334 374.305 388.492L375.089 388.726ZM377.769 390.659C376.553 390.659 375.686 389.742 375.686 388.476C375.686 387.209 376.553 386.292 377.769 386.292C378.986 386.292 379.853 387.209 379.853 388.476C379.853 389.742 378.986 390.659 377.769 390.659ZM377.769 390.001C378.569 390.001 379.161 389.342 379.161 388.476C379.161 387.6 378.569 386.934 377.769 386.934C376.969 386.934 376.378 387.6 376.378 388.476C376.378 389.342 376.969 390.001 377.769 390.001ZM381.104 384.792C381.395 384.792 381.62 385.033 381.62 385.325C381.62 385.617 381.395 385.859 381.104 385.859C380.812 385.859 380.587 385.617 380.587 385.325C380.587 385.033 380.812 384.792 381.104 384.792ZM380.77 390.559V386.392H381.437V390.559H380.77ZM384.585 386.292C385.519 386.292 386.202 387.025 386.202 388.025V390.559H385.535V388.059C385.535 387.425 385.118 386.959 384.518 386.959C383.752 386.959 383.235 387.525 383.218 388.292V390.559H382.552V386.392H383.118L383.177 387.109C383.377 386.6 383.943 386.292 384.585 386.292ZM388.473 384.525H389.132L387.731 391.693H387.048L388.473 384.525ZM392.115 386.292C393.265 386.292 394.115 387.209 394.115 388.442C394.115 389.709 393.265 390.626 392.132 390.626C391.523 390.626 391.007 390.317 390.682 389.817V392.226H390.015V386.392H390.582L390.64 387.134C390.957 386.617 391.482 386.292 392.115 386.292ZM392.048 389.976C392.849 389.976 393.424 389.342 393.424 388.459C393.424 387.575 392.865 386.934 392.065 386.934C391.265 386.934 390.665 387.575 390.665 388.459C390.665 389.342 391.248 389.976 392.048 389.976ZM394.58 387.05V386.417H394.847C395.13 386.417 395.297 386.209 395.297 385.875V385.309H395.931V386.392H396.864V387.042H395.931V389.459C395.931 389.792 396.164 389.976 396.497 389.976C396.697 389.976 396.797 389.959 396.931 389.926L396.947 390.559C396.781 390.626 396.614 390.659 396.347 390.659C395.714 390.659 395.264 390.226 395.264 389.559V387.05H394.58ZM398.431 389.892H401.581V390.559H397.748V385.142H401.548V385.792H398.431V387.509H401.115V388.167H398.431V389.892ZM406.58 385.142V385.809H404.613V390.559H403.93V385.809H401.946V385.142H406.58ZM411.061 385.142H411.745V390.559H411.061V388.159H407.994V390.559H407.311V385.142H407.994V387.5H411.061V385.142ZM414.086 384.525H414.745L413.345 391.693H412.661L414.086 384.525ZM415.161 386.392H415.945L417.195 389.592H417.211L418.428 386.392H419.195L417.261 391.092C417.003 391.726 416.511 392.209 415.945 392.309L415.778 391.676C416.178 391.576 416.411 391.359 416.545 391.059L416.845 390.392L415.161 386.392ZM419.396 387.05V386.417H419.663C419.946 386.417 420.113 386.209 420.113 385.875V385.309H420.746V386.392H421.679V387.042H420.746V389.459C420.746 389.792 420.979 389.976 421.313 389.976C421.513 389.976 421.613 389.959 421.746 389.926L421.763 390.559C421.596 390.626 421.429 390.659 421.163 390.659C420.529 390.659 420.079 390.226 420.079 389.559V387.05H419.396ZM423.246 389.892H426.397V390.559H422.563V385.142H426.363V385.792H423.246V387.509H425.93V388.167H423.246V389.892ZM431.395 385.142V385.809H429.428V390.559H428.745V385.809H426.762V385.142H431.395ZM435.877 385.142H436.56V390.559H435.877V388.159H432.81V390.559H432.126V385.142H432.81V387.5H435.877V385.142Z" fill="white"/>
</g>
<rect x="289.313" y="199.597" width="101.4" height="59.1729" fill="url(#paint14_linear_316_14165)" fill-opacity="0.15"/>
<rect x="289.313" y="199.597" width="101.4" height="59.1729" stroke="url(#paint15_linear_316_14165)" stroke-width="0.833421"/>
<path d="M315.576 227.183V220.133H320.607V221.533H317.176V222.953H320.107V224.353H317.176V225.783H320.607V227.183H315.576ZM323.805 225.883L325.665 225.783V227.183L323.055 227.283C322.505 227.303 322.205 226.983 322.205 226.433V223.533H321.004V222.133H322.205V221.183L323.805 220.683V222.133H325.465V223.533H323.805V225.883ZM330.076 222.033C331.366 222.033 332.147 222.893 332.147 224.453V227.183H330.546V224.703C330.546 223.783 330.276 223.433 329.506 223.433C328.636 223.433 328.066 223.893 328.066 225.313V227.183H326.466V219.833H328.066V222.743L327.766 223.643H328.166C328.366 222.743 328.996 222.033 330.076 222.033ZM332.741 224.593C332.741 222.993 333.831 222.033 335.402 222.033C336.972 222.033 338.072 222.963 338.072 224.493V224.993H334.241C334.241 225.573 334.661 225.983 335.572 225.983C336.132 225.983 336.552 225.783 336.652 225.403H338.252C338.152 226.133 337.322 227.283 335.572 227.283C333.631 227.283 332.741 226.023 332.741 224.593ZM334.241 224.093H336.572C336.572 223.713 336.292 223.333 335.402 223.333C334.511 223.333 334.241 223.713 334.241 224.093ZM338.948 227.183V222.893C338.948 222.343 339.258 222.043 339.808 222.053L343.118 222.133V223.533L340.548 223.473V227.183H338.948ZM343.524 224.593C343.524 222.993 344.614 222.033 346.184 222.033C347.754 222.033 348.854 222.963 348.854 224.493V224.993H345.024C345.024 225.573 345.444 225.983 346.354 225.983C346.914 225.983 347.334 225.783 347.434 225.403H349.034C348.934 226.133 348.104 227.283 346.354 227.283C344.414 227.283 343.524 226.023 343.524 224.593ZM345.024 224.093H347.354C347.354 223.713 347.074 223.333 346.184 223.333C345.294 223.333 345.024 223.713 345.024 224.093ZM352.27 225.883C353.14 225.883 353.711 225.423 353.711 224.003V222.133H355.311V227.183H353.711V226.573L354.011 225.673H353.611C353.411 226.573 352.78 227.283 351.7 227.283C350.41 227.283 349.63 226.423 349.63 224.863V222.133H351.23V224.613C351.23 225.533 351.5 225.883 352.27 225.883ZM362.868 222.033C364.159 222.033 364.549 223.193 364.549 224.553V227.183H362.948V224.663C362.948 223.703 362.788 223.433 362.198 223.433C361.328 223.433 361.128 224.193 361.128 225.413V227.183H359.528V224.663C359.528 223.703 359.368 223.433 358.778 223.433C357.908 223.433 357.708 224.193 357.708 225.413V227.183H356.108V222.133H357.708V222.643L357.408 223.543H357.808C358.008 222.643 358.468 222.033 359.448 222.033C360.398 222.033 360.798 222.663 360.948 223.543H361.238C361.438 222.643 361.888 222.033 362.868 222.033ZM312.22 236.243C312.22 237.453 311.37 238.283 309.2 238.283C306.66 238.283 305.71 237.243 305.71 235.463H307.31C307.31 236.543 307.85 236.883 309.25 236.883C310.28 236.883 310.62 236.643 310.62 236.263C310.62 235.753 309.76 235.523 308.73 235.173C307.24 234.673 306.03 234.273 306.03 232.893C306.03 231.693 306.98 231.033 308.8 231.033C310.96 231.033 311.93 232.133 311.93 233.533H310.33C310.33 232.673 309.67 232.433 308.8 232.433C308.08 232.433 307.63 232.593 307.63 232.953C307.63 233.273 307.8 233.393 308.93 233.773C310.23 234.213 312.22 234.773 312.22 236.243ZM315.322 236.883L317.183 236.783V238.183L314.572 238.283C314.022 238.303 313.722 237.983 313.722 237.433V234.533H312.522V233.133H313.722V232.183L315.322 231.683V233.133H316.983V234.533H315.322V236.883ZM317.784 236.803C317.784 235.933 318.304 235.423 319.804 235.213L321.394 234.993C321.394 234.583 321.074 234.333 320.384 234.333C319.744 234.333 319.384 234.603 319.384 235.063H317.884C317.884 233.783 318.974 233.033 320.384 233.033C321.774 233.033 322.994 233.703 322.994 235.363V236.783H323.724V238.183H322.614C322.134 238.183 321.864 237.913 321.864 237.433V237.333L322.114 236.733H321.714C321.524 237.573 321.034 238.283 319.624 238.283C318.054 238.283 317.784 237.323 317.784 236.803ZM319.384 236.503C319.384 236.793 319.664 236.883 319.934 236.883C320.814 236.883 321.394 236.513 321.394 235.893L320.104 236.073C319.624 236.143 319.384 236.213 319.384 236.503ZM328.293 238.183L327.032 236.233L325.922 236.753V238.183H324.322V230.833H325.922V235.103L328.233 234.043L328.213 233.133H329.813V234.233C329.813 234.713 329.623 235.023 329.183 235.233L328.403 235.593L330.113 238.183H328.293ZM332.58 232.633C331.99 232.633 331.64 232.353 331.64 231.833C331.64 231.323 331.99 231.033 332.58 231.033C333.17 231.033 333.54 231.323 333.54 231.833C333.54 232.353 333.17 232.633 332.58 232.633ZM330.51 238.183V236.783H331.94V234.473L330.71 234.533V233.133L332.61 233.033C333.17 233.003 333.48 233.313 333.48 233.873V236.783H334.91V238.183H330.51ZM338.555 234.433C337.685 234.433 337.115 234.893 337.115 236.313V238.183H335.515V233.133H337.115V233.743L336.815 234.643H337.215C337.415 233.743 338.045 233.033 339.125 233.033C340.415 233.033 341.195 233.893 341.195 235.453V238.183H339.595V235.703C339.595 234.783 339.325 234.433 338.555 234.433ZM347.813 233.133H348.253V234.533H347.913C347.763 234.533 347.583 234.533 347.443 234.623C347.503 234.703 347.583 234.933 347.583 235.203C347.583 236.153 346.693 236.753 345.303 237.223C346.453 237.153 347.523 237.453 347.523 238.524C347.523 240.014 345.773 240.184 342.022 240.184V238.784C345.293 238.784 345.913 238.734 345.913 238.183C345.913 237.443 344.103 237.773 342.552 238.033L342.382 237.133C343.533 237.013 344.573 236.893 345.493 236.673V236.273C343.643 236.933 341.692 236.663 341.692 235.003C341.692 233.673 342.952 233.033 344.543 233.033C345.313 233.033 346.013 233.183 346.543 233.573C346.843 233.183 347.363 233.133 347.813 233.133ZM344.643 235.773C345.603 235.773 345.983 235.533 345.983 235.103C345.983 234.683 345.603 234.433 344.643 234.433C343.683 234.433 343.293 234.683 343.293 235.103C343.293 235.533 343.683 235.773 344.643 235.773ZM354.287 231.133C356.067 231.133 357.427 231.473 357.427 233.603C357.427 235.743 356.067 236.083 354.287 236.083H353.357V238.183H351.757V231.133H354.287ZM354.387 234.683C355.337 234.683 355.827 234.583 355.827 233.603C355.827 232.633 355.337 232.533 354.387 232.533H353.357V234.683H354.387ZM357.729 235.653C357.729 233.893 358.989 233.033 360.58 233.033C362.16 233.033 363.42 233.893 363.42 235.653C363.42 237.423 362.16 238.283 360.58 238.283C358.989 238.283 357.729 237.423 357.729 235.653ZM359.329 235.653C359.329 236.503 359.819 236.883 360.58 236.883C361.33 236.883 361.82 236.503 361.82 235.653C361.82 234.813 361.33 234.433 360.58 234.433C359.819 234.433 359.329 234.813 359.329 235.653ZM363.921 235.653C363.921 233.893 365.181 233.033 366.772 233.033C368.352 233.033 369.612 233.893 369.612 235.653C369.612 237.423 368.352 238.283 366.772 238.283C365.181 238.283 363.921 237.423 363.921 235.653ZM365.521 235.653C365.521 236.503 366.011 236.883 366.772 236.883C367.522 236.883 368.012 236.503 368.012 235.653C368.012 234.813 367.522 234.433 366.772 234.433C366.011 234.433 365.521 234.813 365.521 235.653ZM370.013 238.183V236.783H371.413V232.173L370.213 232.233V230.833L372.144 230.763C372.704 230.743 373.014 231.043 373.014 231.603V236.783H374.414V238.183H370.013Z" fill="white"/>
<rect x="289.313" y="482.126" width="101.4" height="59.1729" fill="url(#paint16_linear_316_14165)" fill-opacity="0.15"/>
<rect x="289.313" y="482.126" width="101.4" height="59.1729" stroke="url(#paint17_linear_316_14165)" stroke-width="0.833421"/>
<path d="M300.868 502.662H302.418L303.538 509.313H303.938L304.808 502.662H308.209L309.079 509.313H309.479L310.599 502.662H312.149L310.939 509.713H307.619L306.708 503.062H306.308L305.398 509.713H302.078L300.868 502.662ZM312.251 507.123C312.251 505.522 313.341 504.562 314.911 504.562C316.481 504.562 317.581 505.492 317.581 507.023V507.523H313.751C313.751 508.103 314.171 508.513 315.081 508.513C315.641 508.513 316.061 508.313 316.161 507.933H317.761C317.661 508.663 316.831 509.813 315.081 509.813C313.141 509.813 312.251 508.553 312.251 507.123ZM313.751 506.623H316.081C316.081 506.243 315.801 505.862 314.911 505.862C314.021 505.862 313.751 506.243 313.751 506.623ZM318.36 509.713V502.362H319.96V504.972L319.66 505.872H320.06C320.32 505.202 320.8 504.562 322.05 504.562C323.51 504.562 324.24 505.752 324.24 507.183C324.24 508.613 323.51 509.813 322.05 509.813C320.8 509.813 320.32 509.173 320.06 508.503H319.66L319.96 509.403V509.713H318.36ZM319.96 507.183C319.96 508.033 320.44 508.413 321.3 508.413C322.16 508.413 322.64 508.033 322.64 507.183C322.64 506.333 322.16 505.962 321.3 505.962C320.44 505.962 319.96 506.333 319.96 507.183ZM327.748 507.023H329.348C329.348 508.133 329.788 508.413 331.038 508.413C332.068 508.413 332.469 508.173 332.469 507.603C332.469 507.043 332.099 506.783 331.498 506.783H330.518V505.382H331.498C332.099 505.382 332.369 505.132 332.369 504.672C332.369 504.202 332.068 503.962 331.038 503.962C329.788 503.962 329.448 504.242 329.448 505.052H327.848C327.848 503.232 329.228 502.562 331.038 502.562C332.729 502.562 333.969 503.182 333.969 504.472C333.969 505.532 333.199 505.732 332.299 505.882V506.283C333.199 506.403 334.069 506.553 334.069 507.803C334.069 509.193 332.729 509.813 331.038 509.813C329.228 509.813 327.748 509.143 327.748 507.023ZM337.571 502.662H339.191L341.051 509.313H341.451L343.322 502.662H344.942L342.902 509.713H339.601L337.571 502.662ZM344.647 507.123C344.647 505.522 345.737 504.562 347.307 504.562C348.877 504.562 349.977 505.492 349.977 507.023V507.523H346.147C346.147 508.103 346.567 508.513 347.477 508.513C348.037 508.513 348.457 508.313 348.557 507.933H350.157C350.057 508.663 349.227 509.813 347.477 509.813C345.537 509.813 344.647 508.553 344.647 507.123ZM346.147 506.623H348.477C348.477 506.243 348.197 505.862 347.307 505.862C346.417 505.862 346.147 506.243 346.147 506.623ZM353.894 505.962C353.023 505.962 352.453 506.423 352.453 507.843V509.713H350.853V504.662H352.453V505.272L352.153 506.173H352.553C352.753 505.272 353.383 504.562 354.464 504.562C355.754 504.562 356.534 505.422 356.534 506.983V509.713H354.934V507.233C354.934 506.313 354.664 505.962 353.894 505.962ZM359.834 508.413L361.694 508.313V509.713L359.084 509.813C358.534 509.833 358.234 509.513 358.234 508.963V506.063H357.034V504.662H358.234V503.712L359.834 503.212V504.662H361.494V506.063H359.834V508.413ZM365.035 508.413C365.905 508.413 366.475 507.953 366.475 506.533V504.662H368.076V509.713H366.475V509.103L366.776 508.203H366.375C366.175 509.103 365.545 509.813 364.465 509.813C363.175 509.813 362.395 508.953 362.395 507.393V504.662H363.995V507.143C363.995 508.063 364.265 508.413 365.035 508.413ZM368.873 509.713V505.422C368.873 504.872 369.183 504.572 369.733 504.582L373.043 504.662V506.063L370.473 506.002V509.713H368.873ZM373.449 507.123C373.449 505.522 374.539 504.562 376.109 504.562C377.679 504.562 378.779 505.492 378.779 507.023V507.523H374.949C374.949 508.103 375.369 508.513 376.279 508.513C376.839 508.513 377.259 508.313 377.359 507.933H378.959C378.859 508.663 378.029 509.813 376.279 509.813C374.339 509.813 373.449 508.553 373.449 507.123ZM374.949 506.623H377.279C377.279 506.243 376.999 505.862 376.109 505.862C375.219 505.862 374.949 506.243 374.949 506.623ZM314.7 515.062H313.1V519.313H314.7V520.713H309.899V519.313H311.499V515.062H309.899V513.662H314.7V515.062ZM318.646 516.962C317.776 516.962 317.206 517.423 317.206 518.843V520.713H315.605V515.662H317.206V516.272L316.905 517.173H317.306C317.506 516.272 318.136 515.562 319.216 515.562C320.506 515.562 321.286 516.422 321.286 517.983V520.713H319.686V518.233C319.686 517.313 319.416 516.962 318.646 516.962ZM325.978 515.662H327.559L326.279 520.713H322.978L321.688 515.662H323.268L324.428 520.313H324.828L325.978 515.662ZM327.76 518.123C327.76 516.522 328.85 515.562 330.42 515.562C331.991 515.562 333.091 516.492 333.091 518.023V518.523H329.26C329.26 519.103 329.68 519.513 330.59 519.513C331.151 519.513 331.571 519.313 331.671 518.933H333.271C333.171 519.663 332.341 520.813 330.59 520.813C328.65 520.813 327.76 519.553 327.76 518.123ZM329.26 517.623H331.591C331.591 517.243 331.311 516.862 330.42 516.862C329.53 516.862 329.26 517.243 329.26 517.623ZM336.267 519.413L338.127 519.313V520.713L335.517 520.813C334.967 520.833 334.667 520.513 334.667 519.963V517.063H333.467V515.662H334.667V514.712L336.267 514.212V515.662H337.927V517.063H336.267V519.413ZM343.639 519.323C343.639 520.173 343.029 520.813 341.288 520.813C339.428 520.813 338.628 520.063 338.628 518.883H340.228C340.228 519.273 340.498 519.613 341.338 519.613C341.768 519.613 342.038 519.513 342.038 519.273C342.038 519.013 341.758 518.943 340.948 518.673C340.008 518.363 338.858 518.113 338.858 516.982C338.858 516.082 339.668 515.562 341.058 515.562C342.769 515.562 343.469 516.412 343.469 517.393H341.868C341.868 517.033 341.598 516.762 341.048 516.762C340.668 516.762 340.458 516.852 340.458 517.053C340.458 517.293 340.958 517.443 341.758 517.703C342.739 518.023 343.639 518.273 343.639 519.323ZM351.002 515.562C352.292 515.562 352.682 516.722 352.682 518.083V520.713H351.082V518.193C351.082 517.233 350.922 516.962 350.332 516.962C349.462 516.962 349.262 517.723 349.262 518.943V520.713H347.662V518.193C347.662 517.233 347.502 516.962 346.911 516.962C346.041 516.962 345.841 517.723 345.841 518.943V520.713H344.241V515.662H345.841V516.172L345.541 517.073H345.941C346.141 516.172 346.601 515.562 347.582 515.562C348.532 515.562 348.932 516.192 349.082 517.073H349.372C349.572 516.172 350.022 515.562 351.002 515.562ZM353.28 518.123C353.28 516.522 354.371 515.562 355.941 515.562C357.511 515.562 358.611 516.492 358.611 518.023V518.523H354.781C354.781 519.103 355.201 519.513 356.111 519.513C356.671 519.513 357.091 519.313 357.191 518.933H358.791C358.691 519.663 357.861 520.813 356.111 520.813C354.171 520.813 353.28 519.553 353.28 518.123ZM354.781 517.623H357.111C357.111 517.243 356.831 516.862 355.941 516.862C355.051 516.862 354.781 517.243 354.781 517.623ZM362.527 516.962C361.657 516.962 361.087 517.423 361.087 518.843V520.713H359.487V515.662H361.087V516.272L360.787 517.173H361.187C361.387 516.272 362.017 515.562 363.097 515.562C364.387 515.562 365.168 516.422 365.168 517.983V520.713H363.567V518.233C363.567 517.313 363.297 516.962 362.527 516.962ZM368.468 519.413L370.328 519.313V520.713L367.718 520.813C367.167 520.833 366.867 520.513 366.867 519.963V517.063H365.667V515.662H366.867V514.712L368.468 514.212V515.662H370.128V517.063H368.468V519.413Z" fill="white"/>
<defs>
<filter id="filter0_b_316_14165" x="68.458" y="9.64514" width="221.261" height="149.17" filterUnits="userSpaceOnUse" color-interpolation-filters="sRGB">
<feFlood flood-opacity="0" result="BackgroundImageFix"/>
<feGaussianBlur in="BackgroundImageFix" stdDeviation="30"/>
<feComposite in2="SourceAlpha" operator="in" result="effect1_backgroundBlur_316_14165"/>
<feBlend mode="normal" in="SourceGraphic" in2="effect1_backgroundBlur_316_14165" result="shape"/>
</filter>
<filter id="filter1_b_316_14165" x="68.458" y="378.295" width="221.261" height="149.17" filterUnits="userSpaceOnUse" color-interpolation-filters="sRGB">
<feFlood flood-opacity="0" result="BackgroundImageFix"/>
<feGaussianBlur in="BackgroundImageFix" stdDeviation="30"/>
<feComposite in2="SourceAlpha" operator="in" result="effect1_backgroundBlur_316_14165"/>
<feBlend mode="normal" in="SourceGraphic" in2="effect1_backgroundBlur_316_14165" result="shape"/>
</filter>
<filter id="filter2_b_316_14165" x="68.7916" y="194.792" width="240.417" height="167.417" filterUnits="userSpaceOnUse" color-interpolation-filters="sRGB">
<feFlood flood-opacity="0" result="BackgroundImageFix"/>
<feGaussianBlur in="BackgroundImageFix" stdDeviation="30"/>
<feComposite in2="SourceAlpha" operator="in" result="effect1_backgroundBlur_316_14165"/>
<feBlend mode="normal" in="SourceGraphic" in2="effect1_backgroundBlur_316_14165" result="shape"/>
</filter>
<filter id="filter3_b_316_14165" x="184.132" y="318.475" width="326.688" height="139.169" filterUnits="userSpaceOnUse" color-interpolation-filters="sRGB">
<feFlood flood-opacity="0" result="BackgroundImageFix"/>
<feGaussianBlur in="BackgroundImageFix" stdDeviation="30"/>
<feComposite in2="SourceAlpha" operator="in" result="effect1_backgroundBlur_316_14165"/>
<feBlend mode="normal" in="SourceGraphic" in2="effect1_backgroundBlur_316_14165" result="shape"/>
</filter>
<linearGradient id="paint0_linear_316_14165" x1="176.17" y1="85.5648" x2="176.17" y2="352.121" gradientUnits="userSpaceOnUse">
<stop stop-color="#EEFFBE"/>
<stop offset="1" stop-color="#CBFB45"/>
</linearGradient>
<linearGradient id="paint1_linear_316_14165" x1="376.915" y1="388.374" x2="376.915" y2="484.495" gradientUnits="userSpaceOnUse">
<stop stop-color="#EEFFBE"/>
<stop offset="1" stop-color="#CBFB45"/>
</linearGradient>
<linearGradient id="paint2_linear_316_14165" x1="183.81" y1="291.269" x2="184.343" y2="292.115" gradientUnits="userSpaceOnUse">
<stop stop-color="#EEFFBE"/>
<stop offset="1" stop-color="#CBFB45"/>
</linearGradient>
<linearGradient id="paint3_linear_316_14165" x1="183.393" y1="453.326" x2="182.901" y2="454.197" gradientUnits="userSpaceOnUse">
<stop stop-color="#EEFFBE"/>
<stop offset="1" stop-color="#CBFB45"/>
</linearGradient>
<linearGradient id="paint4_linear_316_14165" x1="186.449" y1="301.241" x2="185.924" y2="300.39" gradientUnits="userSpaceOnUse">
<stop stop-color="#EEFFBE"/>
<stop offset="1" stop-color="#CBFB45"/>
</linearGradient>
<linearGradient id="paint5_linear_316_14165" x1="347.814" y1="320.312" x2="347.594" y2="319.336" gradientUnits="userSpaceOnUse">
<stop stop-color="#EEFFBE"/>
<stop offset="1" stop-color="#CBFB45"/>
</linearGradient>
<linearGradient id="paint6_linear_316_14165" x1="63.0625" y1="351.599" x2="63.0625" y2="398.479" gradientUnits="userSpaceOnUse">
<stop stop-color="#EEFFBE"/>
<stop offset="1" stop-color="#CBFB45"/>
</linearGradient>
<linearGradient id="paint7_linear_316_14165" x1="63.0625" y1="351.599" x2="63.0625" y2="398.479" gradientUnits="userSpaceOnUse">
<stop stop-color="#EEFFBE"/>
<stop offset="1" stop-color="#CBFB45"/>
</linearGradient>
<linearGradient id="paint8_linear_316_14165" x1="340.013" y1="52.7762" x2="340.013" y2="112.783" gradientUnits="userSpaceOnUse">
<stop stop-color="#EEFFBE"/>
<stop offset="1" stop-color="#CBFB45"/>
</linearGradient>
<linearGradient id="paint9_linear_316_14165" x1="340.013" y1="52.7762" x2="340.013" y2="112.783" gradientUnits="userSpaceOnUse">
<stop stop-color="#EEFFBE"/>
<stop offset="1" stop-color="#CBFB45"/>
</linearGradient>
<linearGradient id="paint10_linear_316_14165" x1="179.088" y1="69.8535" x2="179.088" y2="98.6066" gradientUnits="userSpaceOnUse">
<stop stop-color="#EEFFBE"/>
<stop offset="1" stop-color="#CBFB45"/>
</linearGradient>
<linearGradient id="paint11_linear_316_14165" x1="179.088" y1="438.503" x2="179.088" y2="467.256" gradientUnits="userSpaceOnUse">
<stop stop-color="#EEFFBE"/>
<stop offset="1" stop-color="#CBFB45"/>
</linearGradient>
<linearGradient id="paint12_linear_316_14165" x1="189" y1="255" x2="189" y2="302" gradientUnits="userSpaceOnUse">
<stop stop-color="#EEFFBE"/>
<stop offset="1" stop-color="#CBFB45"/>
</linearGradient>
<linearGradient id="paint13_linear_316_14165" x1="347.477" y1="378.683" x2="347.477" y2="397.435" gradientUnits="userSpaceOnUse">
<stop stop-color="#EEFFBE"/>
<stop offset="1" stop-color="#CBFB45"/>
</linearGradient>
<linearGradient id="paint14_linear_316_14165" x1="340.013" y1="199.18" x2="340.013" y2="259.187" gradientUnits="userSpaceOnUse">
<stop stop-color="#EEFFBE"/>
<stop offset="1" stop-color="#CBFB45"/>
</linearGradient>
<linearGradient id="paint15_linear_316_14165" x1="340.013" y1="199.18" x2="340.013" y2="259.187" gradientUnits="userSpaceOnUse">
<stop stop-color="#EEFFBE"/>
<stop offset="1" stop-color="#CBFB45"/>
</linearGradient>
<linearGradient id="paint16_linear_316_14165" x1="340.013" y1="481.71" x2="340.013" y2="541.716" gradientUnits="userSpaceOnUse">
<stop stop-color="#EEFFBE"/>
<stop offset="1" stop-color="#CBFB45"/>
</linearGradient>
<linearGradient id="paint17_linear_316_14165" x1="340.013" y1="481.71" x2="340.013" y2="541.716" gradientUnits="userSpaceOnUse">
<stop stop-color="#EEFFBE"/>
<stop offset="1" stop-color="#CBFB45"/>
</linearGradient>
</defs>
</svg>
