<svg width="52" height="53" viewBox="0 0 52 53" fill="none" xmlns="http://www.w3.org/2000/svg">
<circle opacity="0.1" cx="26.0002" cy="26.5638" r="26" fill="#CBFB45"/>
<g clip-path="url(#clip0_67_11037)">
<path d="M19.0002 27V33C19.0002 34.1046 19.8957 35 21.0002 35H31.0002C32.1048 35 33.0002 34.1046 33.0002 33V27" stroke="#CBFB45" stroke-width="2" stroke-linecap="round" stroke-linejoin="round"/>
<path d="M20.0002 21C20.0002 19.8954 20.8957 19 22.0002 19V19C24.2094 19 26.0002 20.7909 26.0002 23V23H22.0002C20.8957 23 20.0002 22.1046 20.0002 21V21Z" stroke="#CBFB45" stroke-width="2" stroke-linejoin="round"/>
<path d="M32.0002 21C32.0002 19.8954 31.1048 19 30.0002 19V19C27.7911 19 26.0002 20.7909 26.0002 23V23H30.0002C31.1048 23 32.0002 22.1046 32.0002 21V21Z" stroke="#CBFB45" stroke-width="2" stroke-linejoin="round"/>
<rect x="18.0002" y="23" width="16" height="4" stroke="#CBFB45" stroke-width="2" stroke-linecap="round" stroke-linejoin="round"/>
<path d="M26.0002 27V35" stroke="#CBFB45" stroke-width="2" stroke-linecap="round" stroke-linejoin="round"/>
</g>
<defs>
<clipPath id="clip0_67_11037">
<rect width="24" height="24" fill="white" transform="translate(14.0002 15)"/>
</clipPath>
</defs>
</svg>
