<svg width="290" height="51" viewBox="0 0 290 51" fill="none" xmlns="http://www.w3.org/2000/svg">
<g filter="url(#filter0_d_67_11031)">
<path d="M6 0L4.64424 5.61206L10.1823 3.98016L6 0ZM155 30L155.105 30.4888L155 30ZM6.42585 3.06903C6.63743 3.70658 6.85576 4.33501 7.08078 4.95442L8.02068 4.61296C7.79889 4.00247 7.58363 3.38287 7.37496 2.75406L6.42585 3.06903ZM7.81049 6.87279C8.0613 7.50305 8.31944 8.12347 8.58482 8.73417L9.50197 8.33561C9.24078 7.73458 8.98664 7.12376 8.73962 6.50304L7.81049 6.87279ZM9.42413 10.5824C9.71677 11.1995 10.0173 11.8061 10.3255 12.4023L11.2138 11.943C10.9109 11.3571 10.6155 10.7608 10.3277 10.1539L9.42413 10.5824ZM11.2837 14.1779C11.62 14.7752 11.9646 15.3615 12.3174 15.9369L13.1699 15.4141C12.8236 14.8495 12.4854 14.2739 12.1551 13.6874L11.2837 14.1779ZM13.4024 17.6333C13.783 18.204 14.1723 18.7633 14.5701 19.3113L15.3793 18.7237C14.9893 18.1866 14.6076 17.6382 14.2343 17.0784L13.4024 17.6333ZM15.7892 20.9213C16.2128 21.4577 16.6451 21.9825 17.0862 22.4958L17.8446 21.8441C17.4126 21.3413 16.9891 20.8272 16.5741 20.3016L15.7892 20.9213ZM18.4383 24.0044C18.9031 24.5016 19.3767 24.9871 19.8591 25.4612L20.56 24.7479C20.0877 24.2838 19.6239 23.8083 19.1688 23.3215L18.4383 24.0044ZM21.3366 26.8528C21.8401 27.3073 22.3523 27.7503 22.8732 28.1819L23.5113 27.412C23.0012 26.9893 22.4996 26.5555 22.0066 26.1105L21.3366 26.8528ZM24.4643 29.4452C25.0027 29.8546 25.5496 30.2528 26.1049 30.64L26.6769 29.8197C26.1327 29.4403 25.597 29.0502 25.0696 28.6492L24.4643 29.4452ZM27.7949 31.7683C28.3635 32.1315 28.9403 32.4841 29.5251 32.8262L30.03 31.963C29.4563 31.6274 28.8907 31.2817 28.3333 30.9256L27.7949 31.7683ZM31.2976 33.8178C31.8916 34.1355 32.4934 34.443 33.1029 34.7407L33.5417 33.8422C32.9431 33.5498 32.3522 33.2478 31.7692 32.936L31.2976 33.8178ZM34.941 35.5983C35.5561 35.8722 36.1784 36.1367 36.808 36.3918L37.1836 35.4651C36.5643 35.2141 35.9524 34.954 35.3479 34.6848L34.941 35.5983ZM38.6959 37.1215C39.3282 37.3543 39.9674 37.5783 40.6133 37.7937L40.9296 36.845C40.2933 36.6328 39.6638 36.4122 39.0414 36.1831L38.6959 37.1215ZM42.5368 38.4038C43.1834 38.5986 43.8365 38.7853 44.4959 38.964L44.7575 37.9988C44.1069 37.8225 43.4628 37.6384 42.8253 37.4463L42.5368 38.4038ZM46.4429 39.4642C47.0978 39.6234 47.7588 39.7752 48.4256 39.9197L48.6374 38.9423C47.9785 38.7996 47.3257 38.6497 46.6791 38.4925L46.4429 39.4642ZM50.3977 40.3225C51.0567 40.4491 51.7212 40.569 52.3911 40.6823L52.5578 39.6962C51.8951 39.5842 51.2379 39.4657 50.5864 39.3405L50.3977 40.3225ZM54.3892 40.9981C55.0496 41.0955 55.715 41.1867 56.3855 41.2719L56.5115 40.2799C55.8475 40.1955 55.1887 40.1052 54.535 40.0088L54.3892 40.9981ZM58.4082 41.5092C59.068 41.5804 59.7325 41.6459 60.4016 41.7061L60.4911 40.7101C59.8278 40.6505 59.1692 40.5855 58.5153 40.515L58.4082 41.5092ZM62.4224 41.8704C63.0888 41.919 63.7595 41.9624 64.4345 42.0008L64.4913 41.0024C63.8214 40.9643 63.156 40.9212 62.4951 40.8731L62.4224 41.8704ZM66.446 42.0998C67.1202 42.128 67.7985 42.1513 68.4809 42.1699L68.5083 41.1703C67.8305 41.1518 67.157 41.1286 66.4877 41.1007L66.446 42.0998ZM70.4803 42.211C71.1505 42.2203 71.8246 42.2253 72.5025 42.226L72.5035 41.226C71.8299 41.2253 71.1601 41.2204 70.4942 41.2111L70.4803 42.211ZM74.5241 42.2157C75.1894 42.2083 75.8583 42.1969 76.5306 42.1817L76.508 41.182C75.8394 41.1971 75.1744 41.2084 74.5129 41.2157L74.5241 42.2157ZM78.5578 42.1247C79.2241 42.1023 79.8937 42.0763 80.5665 42.0467L80.5226 41.0477C79.8532 41.0771 79.187 41.103 78.5243 41.1252L78.5578 42.1247ZM82.5757 41.9484C83.2486 41.9122 83.9247 41.8726 84.6038 41.8297L84.5407 40.8317C83.8646 40.8744 83.1917 40.9139 82.522 40.9499L82.5757 41.9484ZM86.6014 41.6944C87.268 41.6464 87.9375 41.5952 88.6099 41.541L88.5296 40.5443C87.8599 40.5982 87.1932 40.6492 86.5294 40.697L86.6014 41.6944ZM90.6349 41.3696C91.2954 41.311 91.9586 41.2496 92.6245 41.1854L92.5286 40.19C91.8652 40.2539 91.2045 40.3151 90.5466 40.3735L90.6349 41.3696ZM94.63 40.9848C95.3 40.9153 95.9726 40.8432 96.6477 40.7685L96.5377 39.7745C95.8648 39.849 95.1945 39.9209 94.5269 39.9901L94.63 40.9848ZM98.6339 40.542C99.2984 40.4641 99.9653 40.3837 100.635 40.3009L100.512 39.3085C99.8447 39.391 99.1798 39.4711 98.5174 39.5488L98.6339 40.542ZM102.648 40.0459C103.306 39.9606 103.966 39.873 104.629 39.7832L104.495 38.7923C103.834 38.8818 103.175 38.9691 102.519 39.0543L102.648 40.0459ZM106.624 39.5076C107.291 39.4136 107.961 39.3175 108.632 39.2193L108.487 38.2298C107.818 38.3278 107.15 38.4236 106.484 38.5174L106.624 39.5076ZM110.61 38.9253C111.271 38.8254 111.934 38.7237 112.599 38.6201L112.445 37.632C111.781 37.7354 111.12 37.8369 110.461 37.9365L110.61 38.9253ZM114.599 38.3037C115.257 38.1983 115.917 38.091 116.578 37.9821L116.416 36.9954C115.756 37.1041 115.097 37.2111 114.441 37.3164L114.599 38.3037ZM118.56 37.6517C119.222 37.5399 119.887 37.4265 120.553 37.3115L120.383 36.3261C119.718 36.4409 119.055 36.5541 118.394 36.6656L118.56 37.6517ZM122.534 36.9656C123.191 36.8499 123.849 36.7326 124.509 36.6139L124.332 35.6297C123.673 35.7482 123.016 35.8653 122.361 35.9808L122.534 36.9656ZM126.494 36.2535C127.155 36.1325 127.816 36.0102 128.48 35.8865L128.297 34.9035C127.634 35.0269 126.973 35.1491 126.314 35.2698L126.494 36.2535ZM130.448 35.5167C131.106 35.3921 131.765 35.2663 132.426 35.1393L132.237 34.1573C131.577 34.2841 130.919 34.4098 130.262 34.5341L130.448 35.5167ZM134.413 34.7546C135.067 34.6272 135.722 34.4986 136.378 34.369L136.184 33.3879C135.529 33.5174 134.874 33.6458 134.222 33.7731L134.413 34.7546ZM138.349 33.9774C139.007 33.8458 139.667 33.7132 140.329 33.5795L140.13 32.5993C139.47 32.7329 138.811 32.8654 138.153 32.9968L138.349 33.9774ZM142.301 33.1787C142.954 33.0452 143.609 32.9108 144.265 32.7755L144.063 31.7961C143.408 31.9313 142.754 32.0656 142.101 32.199L142.301 33.1787ZM146.238 32.3668C146.896 32.2297 147.556 32.0918 148.217 31.953L148.012 30.9743C147.351 31.113 146.692 31.2508 146.034 31.3878L146.238 32.3668ZM150.176 31.5403C150.83 31.402 151.486 31.2629 152.142 31.123L151.934 30.145C151.278 30.2847 150.623 30.4237 149.969 30.562L150.176 31.5403ZM154.116 30.7013C154.445 30.6306 154.775 30.5598 155.105 30.4888L154.895 29.5112C154.565 29.5821 154.235 29.6529 153.906 29.7235L154.116 30.7013ZM155.105 30.4888C155.44 30.4169 155.773 30.3457 156.106 30.2751L155.898 29.2968C155.565 29.3676 155.23 29.4391 154.895 29.5112L155.105 30.4888ZM158.093 29.8592C158.752 29.7232 159.408 29.5897 160.06 29.4588L159.863 28.4783C159.209 28.6096 158.551 28.7434 157.891 28.8798L158.093 29.8592ZM162.011 29.0733C162.682 28.9426 163.35 28.8146 164.014 28.6893L163.829 27.7066C163.162 27.8323 162.493 27.9606 161.819 28.0917L162.011 29.0733ZM165.997 28.3214C166.654 28.2014 167.308 28.0841 167.959 27.9694L167.786 26.9846C167.133 27.0996 166.477 27.2173 165.817 27.3376L165.997 28.3214ZM169.953 27.6244C170.622 27.5108 171.287 27.4 171.949 27.2919L171.788 26.305C171.124 26.4134 170.457 26.5246 169.786 26.6385L169.953 27.6244ZM173.923 26.976C174.59 26.8716 175.252 26.77 175.912 26.6712L175.763 25.6822C175.102 25.7814 174.437 25.8833 173.768 25.9881L173.923 26.976ZM177.918 26.3773C178.583 26.2822 179.244 26.19 179.901 26.1006L179.766 25.1097C179.107 25.1994 178.443 25.292 177.776 25.3874L177.918 26.3773ZM181.89 25.8371C182.565 25.7501 183.236 25.6661 183.903 25.5851L183.782 24.5924C183.113 24.6737 182.44 24.758 181.762 24.8453L181.89 25.8371ZM185.892 25.3508C186.561 25.2744 187.226 25.2011 187.887 25.1307L187.781 24.1363C187.118 24.207 186.45 24.2806 185.779 24.3572L185.892 25.3508ZM189.904 24.9238C190.572 24.8579 191.236 24.795 191.895 24.7351L191.805 23.7392C191.143 23.7994 190.476 23.8625 189.806 23.9286L189.904 24.9238ZM193.901 24.5611C194.578 24.5052 195.25 24.4524 195.917 24.4028L195.843 23.4055C195.173 23.4554 194.498 23.5084 193.819 23.5645L193.901 24.5611ZM197.907 24.2631C198.585 24.2183 199.259 24.1768 199.928 24.1385L199.871 23.1401C199.199 23.1786 198.522 23.2203 197.841 23.2653L197.907 24.2631ZM201.939 24.032C202.607 23.9996 203.271 23.9704 203.93 23.9443L203.891 22.9451C203.229 22.9713 202.562 23.0006 201.891 23.0332L201.939 24.032ZM205.961 23.8733C206.633 23.853 207.3 23.8359 207.963 23.8221L207.942 22.8223C207.276 22.8362 206.606 22.8534 205.931 22.8738L205.961 23.8733ZM209.976 23.7896C210.654 23.782 211.326 23.7777 211.993 23.7768L211.992 22.7768C211.321 22.7777 210.646 22.782 209.965 22.7897L209.976 23.7896ZM213.986 23.7838C214.668 23.7896 215.345 23.7989 216.016 23.8116L216.035 22.8118C215.36 22.7991 214.68 22.7897 213.994 22.7838L213.986 23.7838ZM218.014 23.8598C218.693 23.8798 219.366 23.9032 220.033 23.93L220.073 22.9308C219.402 22.9038 218.726 22.8803 218.044 22.8603L218.014 23.8598ZM222.04 24.0215C222.714 24.056 223.382 24.094 224.044 24.1353L224.106 23.1372C223.44 23.0957 222.768 23.0575 222.091 23.0228L222.04 24.0215ZM226.056 24.2723C226.726 24.3218 227.391 24.3748 228.049 24.4312L228.134 23.4348C227.472 23.3782 226.804 23.3248 226.13 23.275L226.056 24.2723ZM230.063 24.6157C230.731 24.6809 231.392 24.7495 232.047 24.8215L232.157 23.8275C231.497 23.7551 230.832 23.686 230.16 23.6204L230.063 24.6157ZM234.059 25.0552C234.725 25.1367 235.384 25.2217 236.037 25.3099L236.171 24.3189C235.514 24.2301 234.85 24.1446 234.181 24.0626L234.059 25.0552ZM238.042 25.5942C238.706 25.6927 239.364 25.7947 240.014 25.8998L240.174 24.9126C239.519 24.8068 238.857 24.7042 238.189 24.605L238.042 25.5942ZM242.009 26.2359C242.672 26.3521 243.328 26.4716 243.976 26.5942L244.162 25.6117C243.509 25.4882 242.849 25.3679 242.182 25.2509L242.009 26.2359ZM245.957 26.9828C246.618 27.1172 247.272 27.2549 247.919 27.3956L248.132 26.4185C247.481 26.2768 246.822 26.1382 246.156 26.0028L245.957 26.9828ZM249.88 27.8366C250.54 27.9899 251.193 28.1462 251.837 28.3054L252.077 27.3345C251.428 27.1743 250.771 27.0168 250.106 26.8625L249.88 27.8366ZM253.775 28.7982C254.433 28.9706 255.083 29.1459 255.726 29.3237L255.992 28.36C255.346 28.1809 254.691 28.0044 254.028 27.8308L253.775 28.7982ZM257.651 29.8717C258.302 30.0618 258.944 30.2544 259.578 30.4493L259.872 29.4934C259.234 29.2972 258.587 29.1033 257.932 28.9118L257.651 29.8717ZM261.499 31.0542C262.141 31.2613 262.774 31.4704 263.398 31.6813L263.718 30.7339C263.089 30.5216 262.452 30.311 261.806 30.1025L261.499 31.0542ZM265.303 32.3391C265.944 32.565 266.575 32.7924 267.197 33.0211L267.542 32.0825C266.916 31.8524 266.281 31.6234 265.636 31.396L265.303 32.3391ZM269.074 33.7242C269.707 33.9661 270.332 34.2089 270.947 34.4522L271.315 33.5223C270.696 33.2776 270.068 33.0333 269.43 32.7899L269.074 33.7242ZM272.818 35.2044C273.447 35.4614 274.066 35.7183 274.676 35.9746L275.063 35.0528C274.451 34.7952 273.829 34.537 273.196 34.2787L272.818 35.2044ZM276.522 36.7612C277.146 37.03 277.759 37.2977 278.363 37.5635L278.766 36.6483C278.16 36.3815 277.544 36.1129 276.918 35.8429L276.522 36.7612ZM280.208 38.3829C280.832 38.662 281.445 38.9381 282.048 39.2108L282.46 38.2996C281.856 38.0266 281.242 37.7499 280.617 37.4702L280.208 38.3829ZM283.885 40.0433C284.19 40.1819 284.493 40.3193 284.794 40.4554L285.206 39.5446C284.906 39.4086 284.603 39.2712 284.298 39.1326L283.885 40.0433Z" fill="#CBFB45"/>
</g>
<defs>
<filter id="filter0_d_67_11031" x="0.644287" y="0" width="288.562" height="50.226" filterUnits="userSpaceOnUse" color-interpolation-filters="sRGB">
<feFlood flood-opacity="0" result="BackgroundImageFix"/>
<feColorMatrix in="SourceAlpha" type="matrix" values="0 0 0 0 0 0 0 0 0 0 0 0 0 0 0 0 0 0 127 0" result="hardAlpha"/>
<feOffset dy="4"/>
<feGaussianBlur stdDeviation="2"/>
<feComposite in2="hardAlpha" operator="out"/>
<feColorMatrix type="matrix" values="0 0 0 0 0 0 0 0 0 0 0 0 0 0 0 0 0 0 0.25 0"/>
<feBlend mode="normal" in2="BackgroundImageFix" result="effect1_dropShadow_67_11031"/>
<feBlend mode="normal" in="SourceGraphic" in2="effect1_dropShadow_67_11031" result="shape"/>
</filter>
</defs>
</svg>
