<svg width="242" height="28" viewBox="0 0 242 28" fill="none" xmlns="http://www.w3.org/2000/svg">
<path d="M116 22.5638L116.24 23.0024L116 22.5638ZM242 13.5638L236.664 15.7672L237.424 10.0439L242 13.5638ZM0.659803 13.1974C0.917182 12.9585 1.17427 12.7237 1.43108 12.4932L2.09911 13.2373C1.8465 13.4641 1.59353 13.6951 1.3402 13.9303L0.659803 13.1974ZM2.96857 11.1598C3.48048 10.7314 3.99129 10.3193 4.50106 9.92331L5.11456 10.713C4.61457 11.1014 4.11319 11.5058 3.61037 11.9267L2.96857 11.1598ZM6.15863 8.68889C6.70994 8.29597 7.26006 7.92146 7.80904 7.56485L8.35378 8.40346C7.8171 8.75207 7.27886 9.11849 6.739 9.50323L6.15863 8.68889ZM9.54561 6.49377C10.1351 6.14943 10.7233 5.82533 11.3102 5.52086L11.7707 6.40854C11.1988 6.70518 10.6253 7.02119 10.05 7.35725L9.54561 6.49377ZM13.1375 4.63393C13.7608 4.35205 14.3827 4.09179 15.0033 3.85241L15.3632 4.7854C14.7604 5.01793 14.1559 5.27089 13.5496 5.54508L13.1375 4.63393ZM16.9202 3.17718C17.5702 2.96979 18.2188 2.78467 18.8659 2.62092L19.1112 3.59037C18.4838 3.74912 17.8548 3.92865 17.2241 4.12987L16.9202 3.17718ZM20.8541 2.18329C21.5219 2.05806 22.1881 1.95482 22.8528 1.87257L22.9756 2.86499C22.3313 2.94473 21.6856 3.04479 21.0384 3.16616L20.8541 2.18329ZM24.8807 1.68531C25.5571 1.64384 26.232 1.62321 26.9053 1.6223L26.9066 2.6223C26.2528 2.62318 25.598 2.64321 24.9418 2.68344L24.8807 1.68531ZM28.9352 1.67847C29.6098 1.71642 30.2828 1.77321 30.9543 1.84769L30.8441 2.8416C30.19 2.76904 29.535 2.7138 28.879 2.6769L28.9352 1.67847ZM32.9616 2.12257C33.6256 2.23048 34.2882 2.3547 34.9495 2.49411L34.7432 3.4726C34.0965 3.33627 33.4492 3.21493 32.8012 3.10962L32.9616 2.12257ZM36.9213 2.95467C37.5701 3.12067 38.2177 3.30032 38.8643 3.49256L38.5793 4.45109C37.9444 4.26233 37.3092 4.08613 36.6734 3.92347L36.9213 2.95467ZM40.7947 4.10392C41.4272 4.31615 42.0588 4.53951 42.6895 4.77297L42.3424 5.71079C41.7207 5.48069 41.0988 5.26076 40.4766 5.05196L40.7947 4.10392ZM44.5748 5.50085C45.1933 5.74921 45.8111 6.00641 46.4284 6.27149L46.0338 7.19034C45.4233 6.92819 44.8128 6.67405 44.2021 6.42883L44.5748 5.50085ZM48.272 7.08653C48.879 7.36222 49.4854 7.64466 50.0915 7.93295L49.6619 8.83599C49.0608 8.55002 48.4596 8.27008 47.8585 7.99701L48.272 7.08653ZM51.9012 8.81086C52.499 9.10618 53.0965 9.40637 53.6937 9.71055L53.2399 10.6016C52.6459 10.2991 52.052 10.0008 51.4583 9.70741L51.9012 8.81086ZM55.4783 10.6307C56.0695 10.9391 56.6607 11.2505 57.2518 11.5642L56.783 12.4475C56.1937 12.1348 55.6047 11.8245 55.0159 11.5174L55.4783 10.6307ZM59.0202 12.5087C59.6077 12.8242 60.1953 13.1411 60.7829 13.4586L60.3076 14.3384C59.7203 14.0211 59.1336 13.7046 58.5471 13.3897L59.0202 12.5087ZM62.5442 14.4111C63.1308 14.7283 63.7174 15.0452 64.3044 15.3612L63.8304 16.2417C63.2426 15.9253 62.6553 15.608 62.0686 15.2907L62.5442 14.4111ZM66.0673 16.3059C66.6556 16.6195 67.2442 16.9313 67.8332 17.2404L67.3684 18.1259C66.7772 17.8156 66.1867 17.5028 65.5969 17.1884L66.0673 16.3059ZM69.6061 18.1617C70.1987 18.4662 70.7918 18.7673 71.3855 19.0642L70.9382 19.9586C70.3409 19.6599 69.7445 19.3571 69.149 19.0511L69.6061 18.1617ZM73.1764 19.9451C73.7758 20.2348 74.3758 20.5194 74.9766 20.7979L74.5559 21.7051C73.95 21.4242 73.3451 21.1373 72.7413 20.8455L73.1764 19.9451ZM76.793 21.6202C77.4013 21.8885 78.0104 22.1499 78.6203 22.4035L78.2363 23.3269C77.6194 23.0704 77.0038 22.8062 76.3893 22.5351L76.793 21.6202ZM80.4684 23.1462C81.0872 23.3859 81.7069 23.6168 82.3276 23.8379L81.9921 24.7799C81.3623 24.5556 80.734 24.3215 80.1072 24.0787L80.4684 23.1462ZM84.2116 24.4771C84.8418 24.68 85.473 24.872 86.1055 25.0522L85.8314 26.0139C85.1876 25.8305 84.5456 25.6352 83.9051 25.429L84.2116 24.4771ZM88.0255 25.5612C88.6674 25.7184 89.3106 25.8626 89.9551 25.9929L89.757 26.973C89.0986 26.84 88.4422 26.6928 87.7876 26.5325L88.0255 25.5612ZM91.9044 26.3428C92.5557 26.4448 93.2085 26.5317 93.8628 26.6027L93.755 27.5968C93.0845 27.5241 92.4161 27.4351 91.7498 27.3308L91.9044 26.3428ZM95.8313 26.7668C96.4869 26.8047 97.1441 26.8259 97.803 26.8294L97.7978 27.8293C97.1209 27.8258 96.4461 27.8041 95.7735 27.7651L95.8313 26.7668ZM99.7761 26.786C100.428 26.7537 101.083 26.7034 101.739 26.634L101.844 27.6285C101.169 27.6998 100.496 27.7516 99.8255 27.7848L99.7761 26.786ZM103.697 26.3709C104.338 26.2661 104.981 26.1427 105.626 25.9997L105.842 26.976C105.179 27.1231 104.518 27.25 103.858 27.3578L103.697 26.3709ZM107.547 25.5168C108.169 25.3419 108.793 25.1483 109.419 24.9351L109.741 25.8818C109.098 26.1007 108.457 26.2997 107.818 26.4795L107.547 25.5168ZM111.28 24.2463C111.879 24.0067 112.48 23.7487 113.084 23.4719L113.501 24.3808C112.883 24.6644 112.266 24.9289 111.652 25.1748L111.28 24.2463ZM114.865 22.6023C115.163 22.448 115.461 22.289 115.76 22.1253L116.24 23.0024C115.935 23.1698 115.629 23.3325 115.324 23.4903L114.865 22.6023ZM115.76 22.1253C116.06 21.9609 116.36 21.7976 116.659 21.6354L117.136 22.5143C116.838 22.6759 116.54 22.8386 116.24 23.0024L115.76 22.1253ZM118.442 20.6759C119.034 20.3605 119.623 20.0495 120.208 19.743L120.672 20.629C120.088 20.9344 119.502 21.2441 118.913 21.5583L118.442 20.6759ZM121.957 18.8365C122.557 18.5284 123.154 18.2249 123.747 17.9261L124.197 18.8193C123.606 19.117 123.011 19.4192 122.413 19.7261L121.957 18.8365ZM125.556 17.0251C126.156 16.7296 126.752 16.4388 127.346 16.1526L127.78 17.0534C127.189 17.3383 126.595 17.6278 125.998 17.9221L125.556 17.0251ZM129.116 15.3082C129.735 15.0167 130.349 14.7303 130.961 14.4489L131.379 15.3573C130.77 15.6374 130.158 15.9225 129.543 16.2127L129.116 15.3082ZM132.79 13.6174C133.396 13.3453 133.999 13.0782 134.598 12.8161L134.999 13.7322C134.402 13.9931 133.802 14.2589 133.199 14.5297L132.79 13.6174ZM136.432 12.0247C137.057 11.7585 137.679 11.4976 138.297 11.2422L138.679 12.1664C138.064 12.4205 137.446 12.6799 136.823 12.9448L136.432 12.0247ZM140.14 10.4918C140.757 10.2447 141.369 10.003 141.978 9.76652L142.34 10.6987C141.735 10.9338 141.126 11.1742 140.513 11.42L140.14 10.4918ZM143.877 9.04178C144.505 8.80592 145.13 8.57575 145.751 8.35117L146.091 9.29151C145.474 9.51474 144.853 9.74356 144.228 9.97806L143.877 9.04178ZM147.605 7.69247C148.252 7.46723 148.894 7.2481 149.531 7.03498L149.848 7.98342C149.215 8.19518 148.577 8.41293 147.934 8.63679L147.605 7.69247ZM151.431 6.41353C152.063 6.21134 152.691 6.0151 153.315 5.8247L153.607 6.78108C152.988 6.97019 152.364 7.16512 151.736 7.36598L151.431 6.41353ZM155.263 5.24446C155.907 5.05739 156.547 4.87661 157.183 4.70199L157.448 5.66625C156.817 5.8396 156.182 6.01908 155.541 6.20485L155.263 5.24446ZM159.103 4.18914C159.763 4.01824 160.417 3.85403 161.067 3.69637L161.303 4.66812C160.658 4.82458 160.009 4.98754 159.354 5.15716L159.103 4.18914ZM163 3.24281C163.66 3.09338 164.314 2.95073 164.964 2.81473L165.169 3.79351C164.525 3.9284 163.875 4.06988 163.22 4.21813L163 3.24281ZM166.934 2.4194C167.588 2.29382 168.237 2.17502 168.88 2.06279L169.052 3.04792C168.414 3.15917 167.771 3.27696 167.122 3.40148L166.934 2.4194ZM170.882 1.7321C171.544 1.62892 172.2 1.53276 172.85 1.44337L172.986 2.43406C172.342 2.52261 171.692 2.61791 171.036 2.72015L170.882 1.7321ZM174.848 1.1878C175.518 1.10852 176.181 1.03647 176.839 0.971411L176.938 1.96656C176.286 2.03099 175.629 2.10234 174.965 2.18088L174.848 1.1878ZM178.83 0.794179C179.506 0.740699 180.176 0.694608 180.839 0.655629L180.898 1.65391C180.241 1.69249 179.578 1.73812 178.909 1.79107L178.83 0.794179ZM182.827 0.55912C183.507 0.533077 184.18 0.514507 184.847 0.503084L184.864 1.50293C184.204 1.51424 183.538 1.53262 182.865 1.55838L182.827 0.55912ZM186.834 0.489944C187.515 0.492655 188.19 0.502794 188.857 0.519981L188.831 1.51966C188.171 1.50264 187.504 1.49262 186.83 1.48994L186.834 0.489944ZM190.844 0.592706C191.524 0.624973 192.197 0.664508 192.863 0.710894L192.793 1.70847C192.135 1.6626 191.47 1.6235 190.797 1.59159L190.844 0.592706ZM194.849 0.871191C195.526 0.933258 196.194 1.00228 196.856 1.0778L196.743 2.07134C196.088 1.99666 195.427 1.9284 194.758 1.86701L194.849 0.871191ZM198.839 1.32612C199.51 1.41754 200.173 1.51545 200.828 1.61933L200.671 2.607C200.023 2.50424 199.367 2.40739 198.704 2.31696L198.839 1.32612ZM202.805 1.95433C203.468 2.0739 204.123 2.19931 204.77 2.33L204.572 3.31022C203.931 3.18088 203.283 3.05676 202.627 2.93845L202.805 1.95433ZM206.738 2.7481C207.393 2.89415 208.04 3.04522 208.679 3.20071L208.443 4.17239C207.81 4.01837 207.169 3.86874 206.52 3.72413L206.738 2.7481ZM210.631 3.69455C211.284 3.86582 211.928 4.04121 212.564 4.21995L212.293 5.18267C211.662 5.00539 211.024 4.83151 210.377 4.66174L210.631 3.69455ZM214.481 4.77511C215.13 4.96837 215.771 5.16452 216.404 5.36272L216.105 6.31701C215.476 6.12012 214.84 5.92535 214.196 5.7335L214.481 4.77511ZM218.307 5.97163C218.946 6.18024 219.577 6.39014 220.2 6.60041L219.881 7.54796C219.26 7.33859 218.632 7.12973 217.997 6.92226L218.307 5.97163ZM222.099 7.249C222.735 7.46884 223.363 7.68806 223.984 7.9056L223.653 8.84933C223.033 8.63208 222.406 8.41337 221.772 8.19417L222.099 7.249ZM225.859 8.56462C226.496 8.78852 227.125 9.00933 227.746 9.22596L227.417 10.1702C226.794 9.95312 226.164 9.73193 225.528 9.50799L225.859 8.56462ZM229.632 9.87654C230.268 10.093 230.896 10.3035 231.517 10.5066L231.206 11.4571C230.581 11.2525 229.948 11.0407 229.31 10.8232L229.632 9.87654ZM233.406 11.1061C234.046 11.3026 234.679 11.4892 235.306 11.6646L235.036 12.6276C234.4 12.4497 233.759 12.2607 233.112 12.0621L233.406 11.1061ZM237.223 12.1687C237.872 12.3274 238.515 12.4716 239.151 12.5994L238.955 13.5799C238.303 13.449 237.647 13.3017 236.986 13.14L237.223 12.1687Z" fill="#CBFB45"/>
</svg>
