<svg width="226" height="109" viewBox="0 0 226 109" fill="none" xmlns="http://www.w3.org/2000/svg">
<path d="M226 0L220.607 2.06162L225.089 5.70117L226 0ZM1.48288 108.13C1.56537 107.823 1.65245 107.511 1.74415 107.195L0.783822 106.916C0.69028 107.239 0.601394 107.557 0.517123 107.87L1.48288 108.13ZM2.33396 105.3C2.53727 104.686 2.75673 104.059 2.99263 103.42L2.05449 103.074C1.81479 103.723 1.59163 104.361 1.38472 104.985L2.33396 105.3ZM3.70996 101.566C3.95185 100.968 4.20742 100.36 4.47691 99.7448L3.56084 99.3438C3.28761 99.9679 3.02836 100.584 2.78288 101.191L3.70996 101.566ZM5.29834 97.9356C5.57714 97.3427 5.86841 96.7432 6.17235 96.1378L5.27865 95.6891C4.97089 96.3021 4.67586 96.9094 4.39338 97.5101L5.29834 97.9356ZM7.08281 94.3786C7.38985 93.8027 7.70811 93.2221 8.03774 92.6376L7.16669 92.1464C6.83319 92.7378 6.51113 93.3253 6.20036 93.9082L7.08281 94.3786ZM9.04116 90.9057C9.37433 90.3457 9.7178 89.7826 10.0717 89.2169L9.22395 88.6865C8.86608 89.2586 8.51872 89.828 8.18174 90.3944L9.04116 90.9057ZM11.1465 87.5405C11.5077 86.9906 11.8787 86.4387 12.2596 85.8852L11.4358 85.3183C11.0508 85.8777 10.6758 86.4356 10.3107 86.9915L11.1465 87.5405ZM13.4009 84.2642C13.7873 83.7275 14.1831 83.1898 14.5883 82.6514L13.7893 82.0501C13.3798 82.5941 12.9799 83.1375 12.5894 83.6799L13.4009 84.2642ZM15.7941 81.0834C16.2019 80.5643 16.6185 80.045 17.0441 79.5257L16.2707 78.8918C15.8407 79.4164 15.4198 79.9412 15.0078 80.4656L15.7941 81.0834ZM18.318 78.0033C18.7461 77.502 19.1827 77.0012 19.6278 76.501L18.8808 75.8362C18.4312 76.3414 17.9901 76.8474 17.5576 77.3538L18.318 78.0033ZM20.9652 75.0283C21.4129 74.5451 21.8687 74.0628 22.3327 73.5818L21.6129 72.8876C21.1443 73.3734 20.6839 73.8605 20.2317 74.3486L20.9652 75.0283ZM23.7294 72.1622C24.196 71.6973 24.6703 71.2338 25.1525 70.772L24.4608 70.0498C23.9739 70.5162 23.4948 70.9843 23.0236 71.4538L23.7294 72.1622ZM26.6047 69.4084C27.0895 68.9621 27.5818 68.5176 28.0816 68.0752L27.4188 67.3264C26.9141 67.7731 26.417 68.222 25.9274 68.6727L26.6047 69.4084ZM29.5855 66.77C30.0879 66.3425 30.5975 65.9172 31.1144 65.4944L30.4813 64.7203C29.9593 65.1473 29.4447 65.5768 28.9374 66.0084L29.5855 66.77ZM32.6663 64.2498C33.1857 63.8413 33.7122 63.4354 34.2458 63.0322L33.6429 62.2343C33.1042 62.6414 32.5726 63.0513 32.0481 63.4637L32.6663 64.2498ZM35.8417 61.85C36.3778 61.4607 36.9207 61.0743 37.4705 60.6908L36.8985 59.8706C36.3434 60.2577 35.7953 60.6478 35.2541 61.0408L35.8417 61.85ZM39.1066 59.5726C39.6587 59.2028 40.2174 58.8361 40.7829 58.4726L40.2422 57.6314C39.6714 57.9983 39.1074 58.3685 38.5501 58.7417L39.1066 59.5726ZM42.456 57.419C43.0199 57.0712 43.5902 56.7266 44.1671 56.3854L43.658 55.5247C43.0758 55.869 42.5002 56.2168 41.931 56.5679L42.456 57.419ZM45.8851 55.3904C46.4594 55.0647 47.04 54.7424 47.6268 54.4237L47.1495 53.545C46.5574 53.8666 45.9715 54.1918 45.3918 54.5205L45.8851 55.3904ZM49.3892 53.4871C49.9727 53.1838 50.5621 52.884 51.1575 52.5879L50.7122 51.6925C50.1114 51.9913 49.5167 52.2938 48.9279 52.5999L49.3892 53.4871ZM52.9617 51.7106C53.5537 51.4293 54.1514 51.1517 54.7549 50.8777L54.3415 49.9671C53.7327 50.2435 53.1298 50.5236 52.5325 50.8074L52.9617 51.7106ZM56.58 50.0684C57.1861 49.806 57.7978 49.5473 58.4153 49.2925L58.0338 48.3681C57.4111 48.6251 56.794 48.886 56.1826 49.1508L56.58 50.0684ZM60.2569 48.5509C60.8764 48.3075 61.5013 48.0681 62.1318 47.8327L61.7821 46.8959C61.1462 47.1332 60.516 47.3747 59.8913 47.6201L60.2569 48.5509ZM63.9895 47.1567C64.6127 46.9357 65.2413 46.7186 65.8752 46.5055L65.5566 45.5576C64.9175 45.7724 64.2837 45.9913 63.6553 46.2142L63.9895 47.1567ZM67.7752 45.8842C68.4009 45.6852 69.0316 45.4902 69.6674 45.2991L69.3796 44.3414C68.7387 44.534 68.1029 44.7306 67.4721 44.9312L67.7752 45.8842ZM71.5902 44.738C72.2242 44.5585 72.8632 44.3829 73.5071 44.2113L73.2496 43.245C72.6007 43.4179 71.9567 43.5949 71.3177 43.7759L71.5902 44.738ZM75.4307 43.7147C76.0768 43.5532 76.7277 43.3957 77.3836 43.2424L77.1559 42.2687C76.4951 42.4231 75.8392 42.5818 75.1882 42.7445L75.4307 43.7147ZM79.314 42.8063C79.9589 42.6656 80.6083 42.5289 81.2624 42.3964L81.0637 41.4163C80.4048 41.5499 79.7506 41.6875 79.1009 41.8292L79.314 42.8063ZM83.2385 42.0109C83.8814 41.8903 84.5287 41.7737 85.1804 41.661L85.0101 40.6756C84.3537 40.7891 83.7018 40.9066 83.0542 41.028L83.2385 42.0109ZM87.1468 41.3354C87.8065 41.2309 88.4706 41.1305 89.1391 41.0342L88.9966 40.0444C88.3234 40.1414 87.6547 40.2425 86.9904 40.3477L87.1468 41.3354ZM91.0924 40.7663C91.7476 40.6809 92.407 40.5994 93.0706 40.522L92.9547 39.5287C92.2867 39.6067 91.6228 39.6887 90.9632 39.7746L91.0924 40.7663ZM95.0739 40.3017C95.7247 40.2345 96.3794 40.1712 97.038 40.1117L96.9481 39.1158C96.2852 39.1756 95.6263 39.2394 94.9713 39.307L95.0739 40.3017ZM99.0222 39.9454C99.6875 39.8938 100.357 39.8463 101.03 39.8027L100.965 38.8047C100.288 38.8486 99.6145 38.8965 98.9449 38.9484L99.0222 39.9454ZM103.008 39.6868C103.665 39.6523 104.327 39.6215 104.992 39.5947L104.952 38.5955C104.282 38.6225 103.617 38.6534 102.955 38.6882L103.008 39.6868ZM106.999 39.5256C107.336 39.5161 107.673 39.5075 108.011 39.4999L107.989 38.5001C107.648 38.5078 107.309 38.5164 106.971 38.526L106.999 39.5256ZM108.011 39.4999C108.348 39.4923 108.684 39.4842 109.02 39.4756L108.994 38.4759C108.66 38.4845 108.325 38.4926 107.989 38.5001L108.011 39.4999ZM111.023 39.4177C111.688 39.3963 112.35 39.3729 113.008 39.3474L112.97 38.3482C112.313 38.3735 111.654 38.3969 110.991 38.4182L111.023 39.4177ZM114.987 39.2645C115.659 39.2342 116.328 39.2017 116.994 39.1671L116.942 38.1685C116.278 38.2029 115.612 38.2353 114.942 38.2656L114.987 39.2645ZM118.982 39.0572C119.641 39.0185 120.298 38.9778 120.951 38.935L120.885 37.9372C120.235 37.9798 119.581 38.0204 118.923 38.0589L118.982 39.0572ZM122.959 38.7965C123.625 38.7483 124.288 38.6979 124.947 38.6454L124.868 37.6485C124.211 37.7008 123.55 37.751 122.886 37.7992L122.959 38.7965ZM126.915 38.4819C127.586 38.4238 128.252 38.3636 128.915 38.3013L128.822 37.3057C128.161 37.3678 127.497 37.4277 126.829 37.4856L126.915 38.4819ZM130.902 38.1073C131.56 38.0406 132.215 37.9718 132.867 37.9009L132.759 36.9068C132.11 36.9774 131.457 37.0459 130.801 37.1124L130.902 38.1073ZM134.861 37.6764C135.525 37.5991 136.186 37.5196 136.843 37.4381L136.719 36.4458C136.065 36.527 135.407 36.6061 134.746 36.6831L134.861 37.6764ZM138.801 37.1874C139.469 37.0993 140.133 37.0091 140.793 36.9167L140.655 35.9264C139.997 36.0183 139.336 36.1082 138.671 36.196L138.801 37.1874ZM142.766 36.6326C143.422 36.5356 144.073 36.4366 144.72 36.3355L144.566 35.3474C143.921 35.4481 143.272 35.5468 142.62 35.6434L142.766 36.6326ZM146.707 36.0168C147.364 35.9084 148.018 35.798 148.668 35.6855L148.497 34.7002C147.85 34.8122 147.199 34.9222 146.544 35.0301L146.707 36.0168ZM150.624 35.3384C151.285 35.218 151.943 35.0956 152.596 34.971L152.408 33.9887C151.758 34.1127 151.104 34.2347 150.445 34.3545L150.624 35.3384ZM154.541 34.5913C155.199 34.4599 155.852 34.3265 156.5 34.191L156.296 33.2121C155.65 33.347 155 33.4799 154.345 33.6107L154.541 34.5913ZM158.454 33.7738C159.102 33.6324 159.745 33.4889 160.383 33.3435L160.161 32.3685C159.526 32.5132 158.885 32.656 158.241 32.7968L158.454 33.7738ZM162.343 32.8875C162.991 32.7335 163.634 32.5775 164.272 32.4195L164.032 31.4488C163.397 31.606 162.757 31.7613 162.112 31.9146L162.343 32.8875ZM166.209 31.9303C166.858 31.7629 167.502 31.5935 168.141 31.4222L167.882 30.4563C167.246 30.6268 166.605 30.7954 165.959 30.962L166.209 31.9303ZM170.052 30.8997C170.702 30.7185 171.346 30.5353 171.985 30.3502L171.706 29.3897C171.071 29.5738 170.43 29.7561 169.783 29.9364L170.052 30.8997ZM173.884 29.7894C174.529 29.5951 175.169 29.3989 175.803 29.2008L175.505 28.2464C174.874 28.4433 174.238 28.6385 173.596 28.8318L173.884 29.7894ZM177.698 28.5977C178.336 28.3906 178.969 28.1818 179.595 27.9712L179.276 27.0234C178.653 27.2328 178.025 27.4405 177.389 27.6464L177.698 28.5977ZM181.483 27.3245C182.115 27.104 182.74 26.8818 183.359 26.6581L183.019 25.7177C182.404 25.9401 181.782 26.1611 181.153 26.3803L181.483 27.3245ZM185.236 25.9668C185.862 25.7321 186.481 25.4958 187.093 25.258L186.731 24.3259C186.123 24.5622 185.508 24.7971 184.885 25.0304L185.236 25.9668ZM188.956 24.5211C189.577 24.2712 190.19 24.0199 190.795 23.7673L190.41 22.8444C189.809 23.0954 189.2 23.3452 188.583 23.5935L188.956 24.5211ZM192.639 22.984C193.255 22.7179 193.862 22.4506 194.461 22.1821L194.052 21.2696C193.457 21.5362 192.854 21.8018 192.242 22.0662L192.639 22.984ZM196.28 21.3518C196.891 21.0683 197.492 20.7837 198.085 20.4982L197.651 19.5973C197.062 19.8807 196.465 20.1633 195.859 20.4449L196.28 21.3518ZM199.873 19.6207C200.479 19.3183 201.074 19.0152 201.66 18.7115L201.199 17.8237C200.618 18.1251 200.027 18.426 199.426 18.7262L199.873 19.6207ZM203.41 17.7872C204.01 17.4644 204.599 17.1412 205.176 16.818L204.688 15.9452C204.115 16.2658 203.531 16.5863 202.936 16.9066L203.41 17.7872ZM206.908 15.8307C207.491 15.4915 208.063 15.1525 208.622 14.814L208.104 13.9585C207.55 14.2939 206.984 14.6299 206.405 14.9662L206.908 15.8307ZM210.331 13.7582C210.904 13.3973 211.462 13.0372 212.008 12.6785L211.458 11.8431C210.918 12.1983 210.365 12.5548 209.798 12.9124L210.331 13.7582ZM213.659 11.5677C214.223 11.1793 214.772 10.7928 215.304 10.4088L214.719 9.59771C214.193 9.97737 213.65 10.3596 213.092 10.7438L213.659 11.5677ZM216.916 9.21745C217.461 8.80452 217.987 8.39501 218.494 7.98952L217.869 7.20849C217.369 7.60848 216.85 8.01269 216.312 8.42052L216.916 9.21745ZM220.037 6.71997C220.562 6.27469 221.064 5.83526 221.543 5.40253L220.872 4.6608C220.401 5.08613 219.908 5.51852 219.39 5.95709L220.037 6.71997ZM223.007 4.02952C223.51 3.53947 223.981 3.0598 224.421 2.59189L223.692 1.9072C223.263 2.36377 222.802 2.8329 222.309 3.31318L223.007 4.02952Z" fill="#CBFB45"/>
</svg>
