<svg width="1042" height="117" viewBox="0 0 1042 117" fill="none" xmlns="http://www.w3.org/2000/svg">
<g opacity="0.15">
<mask id="path-1-outside-1_93_11239" maskUnits="userSpaceOnUse" x="-2" y="-1" width="1045" height="119" fill="black">
<rect fill="white" x="-2" y="-1" width="1045" height="119"/>
<path d="M81.8484 2.55992H109.121L67.3349 78.7959V115H41.8165V78.7959L0.18979 2.55992H27.4625L51.3859 49.4498V63.8039H57.7655V49.4498L81.8484 2.55992ZM117.041 115L147.663 77.839V71.4594L117.041 34.4578H147.344L166.004 60.2951L184.664 34.4578H214.967L184.345 71.4594V77.839L214.967 115H184.664L166.004 89.0032L147.344 115H117.041ZM304.573 2.55992H331.846L290.059 78.7959V115H264.541V78.7959L222.914 2.55992H250.187L274.11 49.4498V63.8039H280.49V49.4498L304.573 2.55992ZM389.251 115V2.55992H469.474V24.8884H414.769V57.2648L465.806 54.075V76.7225L414.769 79.9123V115H389.251ZM505.673 26.4833C496.263 26.4833 490.681 22.0176 490.681 13.7242C490.681 5.59021 496.263 0.965023 505.673 0.965023C515.083 0.965023 520.984 5.59021 520.984 13.7242C520.984 22.0176 515.083 26.4833 505.673 26.4833ZM472.659 115V92.6715H495.466V55.8294L475.848 56.7863V34.4578L506.151 32.8629C515.083 32.3845 520.027 37.3286 520.027 46.26V92.6715H542.834V115H472.659ZM600.963 55.1914C587.087 55.1914 577.996 62.528 577.996 85.1755V115H552.478V34.4578H577.996V44.1867L573.212 58.5407H579.591C582.781 44.1867 592.829 32.8629 610.054 32.8629C630.628 32.8629 643.068 46.579 643.068 71.4594V115H617.55V75.4466C617.55 60.7736 613.244 55.1914 600.963 55.1914ZM654.265 92.9905C654.265 79.1149 662.558 70.9809 686.482 67.6316L711.841 64.1229C711.841 57.5838 706.737 53.5966 695.732 53.5966C685.525 53.5966 679.783 57.9028 679.783 65.2393H655.86C655.86 44.8246 673.244 32.8629 695.732 32.8629C717.901 32.8629 737.359 43.5487 737.359 70.024V92.6715H749.002V115H731.298C723.643 115 719.337 110.694 719.337 103.038V101.443L723.324 91.874H716.944C713.914 105.271 706.099 116.595 683.611 116.595C658.571 116.595 654.265 101.284 654.265 92.9905ZM679.783 88.2058C679.783 92.831 684.249 94.2664 688.555 94.2664C702.59 94.2664 711.841 88.3653 711.841 78.4769L691.266 81.3477C683.611 82.4641 679.783 83.5806 679.783 88.2058ZM807.022 55.1914C793.147 55.1914 784.056 62.528 784.056 85.1755V115H758.537V34.4578H784.056V44.1867L779.271 58.5407H785.651C788.84 44.1867 798.888 32.8629 816.113 32.8629C836.687 32.8629 849.127 46.579 849.127 71.4594V115H823.609V75.4466C823.609 60.7736 819.303 55.1914 807.022 55.1914ZM858.611 74.6492C858.611 47.8549 876.952 32.8629 902.63 32.8629C924.639 32.8629 944.735 44.8246 945.851 67.7911H920.333C919.376 60.6141 912.837 55.1914 902.63 55.1914C890.509 55.1914 884.129 62.3685 884.129 74.6492C884.129 87.0893 890.509 94.2664 902.63 94.2664C912.837 94.2664 919.376 88.8437 920.333 81.6667H945.851C944.735 104.633 924.639 116.595 902.63 116.595C876.952 116.595 858.611 101.603 858.611 74.6492ZM953.775 73.6922C953.775 48.1739 971.159 32.8629 996.199 32.8629C1021.24 32.8629 1038.78 47.6954 1038.78 72.0973V80.0718H977.698C977.698 89.3222 984.397 95.8613 998.91 95.8613C1007.84 95.8613 1014.54 92.6715 1016.14 86.6109H1041.65C1040.06 98.2536 1026.82 116.595 998.91 116.595C967.969 116.595 953.775 96.4992 953.775 73.6922ZM977.698 65.7178H1014.86C1014.86 59.6572 1010.39 53.5966 996.199 53.5966C982.004 53.5966 977.698 59.6572 977.698 65.7178Z"/>
</mask>
<path d="M81.8484 2.55992V1.55992H81.2378L80.9589 2.10305L81.8484 2.55992ZM109.121 2.55992L109.998 3.04057L110.81 1.55992H109.121V2.55992ZM67.3349 78.7959L66.4579 78.3152L66.3349 78.5398V78.7959H67.3349ZM67.3349 115V116H68.3349V115H67.3349ZM41.8165 115H40.8165V116H41.8165V115ZM41.8165 78.7959H42.8165V78.5407L42.6942 78.3167L41.8165 78.7959ZM0.18979 2.55992V1.55992H-1.4956L-0.687895 3.03915L0.18979 2.55992ZM27.4625 2.55992L28.3533 2.10545L28.0749 1.55992H27.4625V2.55992ZM51.3859 49.4498H52.3859V49.2095L52.2767 48.9954L51.3859 49.4498ZM51.3859 63.8039H50.3859V64.8039H51.3859V63.8039ZM57.7655 63.8039V64.8039H58.7655V63.8039H57.7655ZM57.7655 49.4498L56.876 48.993L56.7655 49.208V49.4498H57.7655ZM81.8484 3.55992H109.121V1.55992H81.8484V3.55992ZM108.244 2.07927L66.4579 78.3152L68.2118 79.2765L109.998 3.04057L108.244 2.07927ZM66.3349 78.7959V115H68.3349V78.7959H66.3349ZM67.3349 114H41.8165V116H67.3349V114ZM42.8165 115V78.7959H40.8165V115H42.8165ZM42.6942 78.3167L1.06747 2.08068L-0.687895 3.03915L40.9389 79.2751L42.6942 78.3167ZM0.18979 3.55992H27.4625V1.55992H0.18979V3.55992ZM26.5717 3.01439L50.4952 49.9043L52.2767 48.9954L28.3533 2.10545L26.5717 3.01439ZM50.3859 49.4498V63.8039H52.3859V49.4498H50.3859ZM51.3859 64.8039H57.7655V62.8039H51.3859V64.8039ZM58.7655 63.8039V49.4498H56.7655V63.8039H58.7655ZM58.655 49.9067L82.7379 3.01679L80.9589 2.10305L56.876 48.993L58.655 49.9067ZM117.041 115L116.269 114.364L114.921 116H117.041V115ZM147.663 77.839L148.434 78.4749L148.663 78.1979V77.839H147.663ZM147.663 71.4594H148.663V71.0992L148.433 70.8218L147.663 71.4594ZM117.041 34.4578V33.4578H114.915L116.27 35.0954L117.041 34.4578ZM147.344 34.4578L148.154 33.8723L147.855 33.4578H147.344V34.4578ZM166.004 60.2951L165.193 60.8806L166.004 62.0031L166.815 60.8806L166.004 60.2951ZM184.664 34.4578V33.4578H184.153L183.854 33.8723L184.664 34.4578ZM214.967 34.4578L215.738 35.0954L217.093 33.4578H214.967V34.4578ZM184.345 71.4594L183.575 70.8218L183.345 71.0992V71.4594H184.345ZM184.345 77.839H183.345V78.1979L183.574 78.4749L184.345 77.839ZM214.967 115V116H217.087L215.739 114.364L214.967 115ZM184.664 115L183.852 115.583L184.151 116H184.664V115ZM166.004 89.0032L166.816 88.4201L166.004 87.2883L165.192 88.4201L166.004 89.0032ZM147.344 115V116H147.857L148.156 115.583L147.344 115ZM117.812 115.636L148.434 78.4749L146.891 77.203L116.269 114.364L117.812 115.636ZM148.663 77.839V71.4594H146.663V77.839H148.663ZM148.433 70.8218L117.811 33.8202L116.27 35.0954L146.892 72.0969L148.433 70.8218ZM117.041 35.4578H147.344V33.4578H117.041V35.4578ZM146.533 35.0433L165.193 60.8806L166.815 59.7096L148.154 33.8723L146.533 35.0433ZM166.815 60.8806L185.475 35.0433L183.854 33.8723L165.193 59.7096L166.815 60.8806ZM184.664 35.4578H214.967V33.4578H184.664V35.4578ZM214.197 33.8202L183.575 70.8218L185.116 72.0969L215.738 35.0954L214.197 33.8202ZM183.345 71.4594V77.839H185.345V71.4594H183.345ZM183.574 78.4749L214.196 115.636L215.739 114.364L185.117 77.203L183.574 78.4749ZM214.967 114H184.664V116H214.967V114ZM185.477 114.417L166.816 88.4201L165.192 89.5863L183.852 115.583L185.477 114.417ZM165.192 88.4201L146.531 114.417L148.156 115.583L166.816 89.5863L165.192 88.4201ZM147.344 114H117.041V116H147.344V114ZM304.573 2.55992V1.55992H303.962L303.683 2.10305L304.573 2.55992ZM331.846 2.55992L332.723 3.04057L333.534 1.55992H331.846V2.55992ZM290.059 78.7959L289.182 78.3152L289.059 78.5398V78.7959H290.059ZM290.059 115V116H291.059V115H290.059ZM264.541 115H263.541V116H264.541V115ZM264.541 78.7959H265.541V78.5407L265.419 78.3167L264.541 78.7959ZM222.914 2.55992V1.55992H221.229L222.037 3.03915L222.914 2.55992ZM250.187 2.55992L251.078 2.10545L250.799 1.55992H250.187V2.55992ZM274.11 49.4498H275.11V49.2095L275.001 48.9954L274.11 49.4498ZM274.11 63.8039H273.11V64.8039H274.11V63.8039ZM280.49 63.8039V64.8039H281.49V63.8039H280.49ZM280.49 49.4498L279.6 48.993L279.49 49.208V49.4498H280.49ZM304.573 3.55992H331.846V1.55992H304.573V3.55992ZM330.969 2.07927L289.182 78.3152L290.936 79.2765L332.723 3.04057L330.969 2.07927ZM289.059 78.7959V115H291.059V78.7959H289.059ZM290.059 114H264.541V116H290.059V114ZM265.541 115V78.7959H263.541V115H265.541ZM265.419 78.3167L223.792 2.08068L222.037 3.03915L263.663 79.2751L265.419 78.3167ZM222.914 3.55992H250.187V1.55992H222.914V3.55992ZM249.296 3.01439L273.22 49.9043L275.001 48.9954L251.078 2.10545L249.296 3.01439ZM273.11 49.4498V63.8039H275.11V49.4498H273.11ZM274.11 64.8039H280.49V62.8039H274.11V64.8039ZM281.49 63.8039V49.4498H279.49V63.8039H281.49ZM281.38 49.9067L305.462 3.01679L303.683 2.10305L279.6 48.993L281.38 49.9067ZM389.251 115H388.251V116H389.251V115ZM389.251 2.55992V1.55992H388.251V2.55992H389.251ZM469.474 2.55992H470.474V1.55992H469.474V2.55992ZM469.474 24.8884V25.8884H470.474V24.8884H469.474ZM414.769 24.8884V23.8884H413.769V24.8884H414.769ZM414.769 57.2648H413.769V58.3293L414.831 58.2629L414.769 57.2648ZM465.806 54.075H466.806V53.0106L465.743 53.077L465.806 54.075ZM465.806 76.7225L465.868 77.7206L466.806 77.662V76.7225H465.806ZM414.769 79.9123L414.707 78.9143L413.769 78.9729V79.9123H414.769ZM414.769 115V116H415.769V115H414.769ZM390.251 115V2.55992H388.251V115H390.251ZM389.251 3.55992H469.474V1.55992H389.251V3.55992ZM468.474 2.55992V24.8884H470.474V2.55992H468.474ZM469.474 23.8884H414.769V25.8884H469.474V23.8884ZM413.769 24.8884V57.2648H415.769V24.8884H413.769ZM414.831 58.2629L465.868 55.0731L465.743 53.077L414.707 56.2668L414.831 58.2629ZM464.806 54.075V76.7225H466.806V54.075H464.806ZM465.743 75.7245L414.707 78.9143L414.831 80.9104L465.868 77.7206L465.743 75.7245ZM413.769 79.9123V115H415.769V79.9123H413.769ZM414.769 114H389.251V116H414.769V114ZM472.659 115H471.659V116H472.659V115ZM472.659 92.6715V91.6715H471.659V92.6715H472.659ZM495.466 92.6715V93.6715H496.466V92.6715H495.466ZM495.466 55.8294H496.466V54.7794L495.417 54.8306L495.466 55.8294ZM475.848 56.7863H474.848V57.8363L475.897 57.7852L475.848 56.7863ZM475.848 34.4578L475.796 33.4592L474.848 33.5091V34.4578H475.848ZM506.151 32.8629L506.204 33.8615L506.205 33.8615L506.151 32.8629ZM520.027 92.6715H519.027V93.6715H520.027V92.6715ZM542.834 92.6715H543.834V91.6715H542.834V92.6715ZM542.834 115V116H543.834V115H542.834ZM505.673 25.4833C501.111 25.4833 497.622 24.3995 495.29 22.4471C492.985 20.5173 491.681 17.6311 491.681 13.7242H489.681C489.681 18.1107 491.168 21.6041 494.006 23.9806C496.818 26.3344 500.825 27.4833 505.673 27.4833V25.4833ZM491.681 13.7242C491.681 9.90171 492.982 7.01124 495.294 5.0582C497.629 3.08501 501.119 1.96502 505.673 1.96502V-0.0349774C500.817 -0.0349774 496.811 1.15764 494.003 3.53053C491.171 5.92357 489.681 9.41268 489.681 13.7242H491.681ZM505.673 1.96502C510.227 1.96502 513.804 3.08522 516.223 5.0678C518.616 7.02874 519.984 9.92002 519.984 13.7242H521.984C521.984 9.39437 520.401 5.90608 517.491 3.52093C514.607 1.15742 510.529 -0.0349774 505.673 -0.0349774V1.96502ZM519.984 13.7242C519.984 17.6128 518.613 20.4999 516.227 22.4375C513.811 24.3994 510.235 25.4833 505.673 25.4833V27.4833C510.521 27.4833 514.601 26.3345 517.488 23.9901C520.404 21.6215 521.984 18.129 521.984 13.7242H519.984ZM473.659 115V92.6715H471.659V115H473.659ZM472.659 93.6715H495.466V91.6715H472.659V93.6715ZM496.466 92.6715V55.8294H494.466V92.6715H496.466ZM495.417 54.8306L475.8 55.7875L475.897 57.7852L495.514 56.8282L495.417 54.8306ZM476.848 56.7863V34.4578H474.848V56.7863H476.848ZM475.901 35.4564L506.204 33.8615L506.099 31.8643L475.796 33.4592L475.901 35.4564ZM506.205 33.8615C510.481 33.6324 513.644 34.7057 515.741 36.7489C517.842 38.7967 519.027 41.9703 519.027 46.26H521.027C521.027 41.6183 519.74 37.8541 517.136 35.3166C514.528 32.7745 510.754 31.6149 506.098 31.8643L506.205 33.8615ZM519.027 46.26V92.6715H521.027V46.26H519.027ZM520.027 93.6715H542.834V91.6715H520.027V93.6715ZM541.834 92.6715V115H543.834V92.6715H541.834ZM542.834 114H472.659V116H542.834V114ZM577.997 115V116H578.997V115H577.997ZM552.478 115H551.478V116H552.478V115ZM552.478 34.4578V33.4578H551.478V34.4578H552.478ZM577.997 34.4578H578.997V33.4578H577.997V34.4578ZM577.997 44.1867L578.945 44.5029L578.997 44.3489V44.1867H577.997ZM573.212 58.5407L572.263 58.2245L571.824 59.5407H573.212V58.5407ZM579.591 58.5407V59.5407H580.394L580.568 58.7577L579.591 58.5407ZM643.068 115V116H644.068V115H643.068ZM617.55 115H616.55V116H617.55V115ZM600.963 54.1914C593.852 54.1914 587.781 56.0764 583.518 61.039C579.285 65.9669 576.997 73.7481 576.997 85.1755H578.997C578.997 73.9554 581.254 66.7445 585.035 62.3422C588.787 57.9747 594.198 56.1914 600.963 56.1914V54.1914ZM576.997 85.1755V115H578.997V85.1755H576.997ZM577.997 114H552.478V116H577.997V114ZM553.478 115V34.4578H551.478V115H553.478ZM552.478 35.4578H577.997V33.4578H552.478V35.4578ZM576.997 34.4578V44.1867H578.997V34.4578H576.997ZM577.048 43.8704L572.263 58.2245L574.161 58.857L578.945 44.5029L577.048 43.8704ZM573.212 59.5407H579.591V57.5407H573.212V59.5407ZM580.568 58.7577C582.128 51.7378 585.352 45.5166 590.234 41.0574C595.103 36.6099 601.677 33.8629 610.054 33.8629V31.8629C601.206 31.8629 594.143 34.7778 588.885 39.5807C583.64 44.3718 580.245 50.9896 578.615 58.3238L580.568 58.7577ZM610.054 33.8629C620.107 33.8629 628.063 37.2051 633.521 43.4869C638.997 49.7882 642.068 59.1742 642.068 71.4594H644.068C644.068 58.8642 640.92 48.952 635.031 42.1751C629.126 35.3788 620.575 31.8629 610.054 31.8629V33.8629ZM642.068 71.4594V115H644.068V71.4594H642.068ZM643.068 114H617.55V116H643.068V114ZM618.55 115V75.4466H616.55V115H618.55ZM618.55 75.4466C618.55 68.0675 617.479 62.7002 614.639 59.1879C611.75 55.6155 607.232 54.1914 600.963 54.1914V56.1914C606.975 56.1914 610.75 57.5585 613.084 60.4454C615.467 63.3924 616.55 68.1527 616.55 75.4466H618.55ZM686.482 67.6316L686.345 66.6411L686.343 66.6413L686.482 67.6316ZM711.841 64.1229L711.978 65.1134L712.841 64.994V64.1229H711.841ZM679.783 65.2393V66.2393H680.783V65.2393H679.783ZM655.86 65.2393H654.86V66.2393H655.86V65.2393ZM737.359 92.6715H736.359V93.6715H737.359V92.6715ZM749.002 92.6715H750.002V91.6715H749.002V92.6715ZM749.002 115V116H750.002V115H749.002ZM719.337 101.443L718.413 101.059L718.337 101.243V101.443H719.337ZM723.324 91.874L724.247 92.2586L724.824 90.874H723.324V91.874ZM716.944 91.874V90.874H716.145L715.969 91.6534L716.944 91.874ZM711.841 78.4769H712.841V77.3277L711.702 77.4865L711.841 78.4769ZM691.266 81.3477L691.128 80.3573L691.122 80.3582L691.266 81.3477ZM655.265 92.9904C655.265 86.2804 657.254 81.0903 662.039 77.1344C666.888 73.1251 674.72 70.288 686.62 68.622L686.343 66.6413C674.32 68.3245 666.043 71.229 660.765 75.593C655.422 80.0102 653.265 85.8249 653.265 92.9904H655.265ZM686.619 68.6222L711.978 65.1134L711.703 63.1323L686.345 66.6411L686.619 68.6222ZM712.841 64.1229C712.841 60.553 711.425 57.5991 708.478 55.5822C705.589 53.6058 701.329 52.5965 695.732 52.5965V54.5965C701.14 54.5965 704.934 55.5809 707.348 57.2329C709.704 58.8444 710.841 61.1536 710.841 64.1229H712.841ZM695.732 52.5965C690.507 52.5965 686.282 53.6958 683.337 55.8611C680.351 58.057 678.783 61.2771 678.783 65.2393H680.783C680.783 61.865 682.086 59.2637 684.522 57.4724C687 55.6504 690.749 54.5965 695.732 54.5965V52.5965ZM679.783 64.2393H655.86V66.2393H679.783V64.2393ZM656.86 65.2393C656.86 55.3483 661.057 47.5434 667.975 42.1863C674.918 36.8103 684.654 33.8629 695.732 33.8629V31.8629C684.322 31.8629 674.122 34.8964 666.751 40.6049C659.355 46.3323 654.86 54.7157 654.86 65.2393H656.86ZM695.732 33.8629C706.674 33.8629 716.837 36.5022 724.242 42.3025C731.61 48.0737 736.359 57.0595 736.359 70.024H738.359C738.359 56.5131 733.379 46.9185 725.476 40.728C717.609 34.5665 706.959 31.8629 695.732 31.8629V33.8629ZM736.359 70.024V92.6715H738.359V70.024H736.359ZM737.359 93.6715H749.002V91.6715H737.359V93.6715ZM748.002 92.6715V115H750.002V92.6715H748.002ZM749.002 114H731.298V116H749.002V114ZM731.298 114C727.655 114 724.949 112.978 723.154 111.183C721.358 109.387 720.337 106.682 720.337 103.038H718.337C718.337 107.05 719.468 110.326 721.74 112.597C724.011 114.869 727.286 116 731.298 116V114ZM720.337 103.038V101.443H718.337V103.038H720.337ZM720.26 101.828L724.247 92.2586L722.401 91.4894L718.413 101.059L720.26 101.828ZM723.324 90.874H716.944V92.874H723.324V90.874ZM715.969 91.6534C714.479 98.2405 711.84 104.193 706.915 108.506C702.002 112.81 694.685 115.595 683.611 115.595V117.595C695.025 117.595 702.859 114.718 708.233 110.011C713.596 105.313 716.379 98.9047 717.92 92.0946L715.969 91.6534ZM683.611 115.595C671.305 115.595 664.276 111.841 660.304 107.249C656.306 102.625 655.265 96.9891 655.265 92.9904H653.265C653.265 97.2853 654.377 103.451 658.792 108.557C663.233 113.693 670.877 117.595 683.611 117.595V115.595ZM678.783 88.2058C678.783 90.9186 680.13 92.7468 682.062 93.8407C683.929 94.898 686.319 95.2664 688.555 95.2664V93.2664C686.485 93.2664 684.489 92.917 683.047 92.1003C681.669 91.3202 680.783 90.1181 680.783 88.2058H678.783ZM688.555 95.2664C695.695 95.2664 701.731 93.768 706.016 90.9118C710.337 88.0307 712.841 83.7827 712.841 78.4769H710.841C710.841 83.0595 708.718 86.7062 704.906 89.2477C701.057 91.8142 695.45 93.2664 688.555 93.2664V95.2664ZM711.702 77.4865L691.128 80.3573L691.405 82.3381L711.979 79.4673L711.702 77.4865ZM691.122 80.3582C687.323 80.9122 684.281 81.4861 682.192 82.574C681.12 83.1322 680.247 83.8502 679.651 84.8134C679.053 85.7784 678.783 86.9083 678.783 88.2058H680.783C680.783 87.1906 680.992 86.4466 681.351 85.8665C681.711 85.2846 682.274 84.7865 683.116 84.3479C684.855 83.4422 687.554 82.8997 691.411 82.3372L691.122 80.3582ZM784.056 115V116H785.056V115H784.056ZM758.537 115H757.537V116H758.537V115ZM758.537 34.4578V33.4578H757.537V34.4578H758.537ZM784.056 34.4578H785.056V33.4578H784.056V34.4578ZM784.056 44.1867L785.004 44.5029L785.056 44.3489V44.1867H784.056ZM779.271 58.5407L778.322 58.2245L777.884 59.5407H779.271V58.5407ZM785.651 58.5407V59.5407H786.453L786.627 58.7577L785.651 58.5407ZM849.127 115V116H850.127V115H849.127ZM823.609 115H822.609V116H823.609V115ZM807.022 54.1914C799.911 54.1914 793.84 56.0764 789.577 61.039C785.344 65.9669 783.056 73.7481 783.056 85.1755H785.056C785.056 73.9554 787.313 66.7445 791.094 62.3422C794.846 57.9747 800.257 56.1914 807.022 56.1914V54.1914ZM783.056 85.1755V115H785.056V85.1755H783.056ZM784.056 114H758.537V116H784.056V114ZM759.537 115V34.4578H757.537V115H759.537ZM758.537 35.4578H784.056V33.4578H758.537V35.4578ZM783.056 34.4578V44.1867H785.056V34.4578H783.056ZM783.107 43.8704L778.322 58.2245L780.22 58.857L785.004 44.5029L783.107 43.8704ZM779.271 59.5407H785.651V57.5407H779.271V59.5407ZM786.627 58.7577C788.187 51.7378 791.411 45.5166 796.293 41.0574C801.162 36.6099 807.736 33.8629 816.113 33.8629V31.8629C807.265 31.8629 800.203 34.7778 794.944 39.5807C789.699 44.3718 786.304 50.9896 784.674 58.3238L786.627 58.7577ZM816.113 33.8629C826.166 33.8629 834.122 37.2051 839.581 43.4869C845.056 49.7882 848.127 59.1742 848.127 71.4594H850.127C850.127 58.8642 846.979 48.952 841.09 42.1751C835.185 35.3788 826.634 31.8629 816.113 31.8629V33.8629ZM848.127 71.4594V115H850.127V71.4594H848.127ZM849.127 114H823.609V116H849.127V114ZM824.609 115V75.4466H822.609V115H824.609ZM824.609 75.4466C824.609 68.0675 823.539 62.7002 820.698 59.1879C817.81 55.6155 813.291 54.1914 807.022 54.1914V56.1914C813.034 56.1914 816.809 57.5585 819.143 60.4454C821.526 63.3924 822.609 68.1527 822.609 75.4466H824.609ZM945.851 67.7911V68.7911H946.901L946.85 67.7426L945.851 67.7911ZM920.333 67.7911L919.342 67.9233L919.458 68.7911H920.333V67.7911ZM920.333 81.6667V80.6667H919.458L919.342 81.5345L920.333 81.6667ZM945.851 81.6667L946.85 81.7153L946.901 80.6667H945.851V81.6667ZM859.611 74.6492C859.611 61.4928 864.106 51.3297 871.664 44.4476C879.236 37.5541 889.98 33.8629 902.63 33.8629V31.8629C889.601 31.8629 878.337 35.6677 870.318 42.9688C862.286 50.2813 857.611 61.0112 857.611 74.6492H859.611ZM902.63 33.8629C913.465 33.8629 923.771 36.809 931.48 42.5182C939.167 48.2103 944.31 56.6711 944.853 67.8397L946.85 67.7426C946.277 55.9446 940.814 46.9414 932.671 40.911C924.551 34.8977 913.804 31.8629 902.63 31.8629V33.8629ZM945.851 66.7911H920.333V68.7911H945.851V66.7911ZM921.324 67.659C920.283 59.8514 913.191 54.1914 902.63 54.1914V56.1914C912.484 56.1914 918.469 61.3768 919.342 67.9233L921.324 67.659ZM902.63 54.1914C896.37 54.1914 891.45 56.0501 888.103 59.6324C884.767 63.2038 883.129 68.3456 883.129 74.6492H885.129C885.129 68.6721 886.681 64.085 889.565 60.9977C892.439 57.9213 896.769 56.1914 902.63 56.1914V54.1914ZM883.129 74.6492C883.129 81.0294 884.766 86.211 888.101 89.8033C891.448 93.4075 896.37 95.2664 902.63 95.2664V93.2664C896.769 93.2664 892.44 91.5367 889.567 88.4424C886.682 85.3361 885.129 80.7091 885.129 74.6492H883.129ZM902.63 95.2664C913.191 95.2664 920.283 89.6064 921.324 81.7989L919.342 81.5345C918.469 88.081 912.484 93.2664 902.63 93.2664V95.2664ZM920.333 82.6667H945.851V80.6667H920.333V82.6667ZM944.853 81.6181C944.31 92.7867 939.167 101.248 931.48 106.94C923.771 112.649 913.465 115.595 902.63 115.595V117.595C913.804 117.595 924.551 114.56 932.671 108.547C940.814 102.516 946.277 93.5132 946.85 81.7153L944.853 81.6181ZM902.63 115.595C889.981 115.595 879.236 111.904 871.665 104.991C864.107 98.09 859.611 87.887 859.611 74.6492H857.611C857.611 88.3651 862.285 99.1349 870.317 106.468C878.336 113.79 889.601 117.595 902.63 117.595V115.595ZM1038.78 80.0718V81.0718H1039.78V80.0718H1038.78ZM977.698 80.0718V79.0718H976.698V80.0718H977.698ZM1016.14 86.6109V85.6109H1015.36L1015.17 86.3564L1016.14 86.6109ZM1041.65 86.6109L1042.64 86.7466L1042.8 85.6109H1041.65V86.6109ZM977.698 65.7178H976.698V66.7178H977.698V65.7178ZM1014.86 65.7178V66.7178H1015.86V65.7178H1014.86ZM954.775 73.6922C954.775 61.1703 959.033 51.2407 966.281 44.4373C973.537 37.6265 983.881 33.8629 996.199 33.8629V31.8629C983.477 31.8629 972.609 35.7549 964.913 42.9791C957.208 50.2108 952.775 60.6958 952.775 73.6922H954.775ZM996.199 33.8629C1008.53 33.8629 1018.92 37.5123 1026.21 44.073C1033.5 50.6229 1037.78 60.1506 1037.78 72.0973H1039.78C1039.78 59.6421 1035.3 49.5526 1027.55 42.5858C1019.81 35.6298 1008.91 31.8629 996.199 31.8629V33.8629ZM1037.78 72.0973V80.0718H1039.78V72.0973H1037.78ZM1038.78 79.0718H977.698V81.0718H1038.78V79.0718ZM976.698 80.0718C976.698 84.9582 978.48 89.2104 982.237 92.2163C985.964 95.1982 991.52 96.8613 998.91 96.8613V94.8613C991.787 94.8613 986.737 93.2548 983.486 90.6546C980.266 88.0784 978.698 84.4358 978.698 80.0718H976.698ZM998.91 96.8613C1007.97 96.8613 1015.32 93.6192 1017.1 86.8654L1015.17 86.3564C1013.76 91.7237 1007.72 94.8613 998.91 94.8613V96.8613ZM1016.14 87.6109H1041.65V85.6109H1016.14V87.6109ZM1040.66 86.4752C1039.14 97.6136 1026.33 115.595 998.91 115.595V117.595C1027.31 117.595 1040.98 98.8936 1042.64 86.7466L1040.66 86.4752ZM998.91 115.595C983.667 115.595 972.664 110.652 965.468 103.011C958.259 95.3566 954.775 84.8939 954.775 73.6922H952.775C952.775 85.2975 956.388 96.2862 964.012 104.382C971.648 112.49 983.213 117.595 998.91 117.595V115.595ZM977.698 66.7178H1014.86V64.7178H977.698V66.7178ZM1015.86 65.7178C1015.86 62.4245 1014.63 59.0861 1011.47 56.5983C1008.34 54.1355 1003.42 52.5965 996.199 52.5965V54.5965C1003.17 54.5965 1007.59 56.0879 1010.23 58.1706C1012.85 60.2282 1013.86 62.9504 1013.86 65.7178H1015.86ZM996.199 52.5965C988.979 52.5965 984.097 54.1353 981.002 56.6025C977.875 59.0953 976.698 62.4353 976.698 65.7178H978.698C978.698 62.9396 979.674 60.219 982.249 58.1664C984.856 56.0881 989.225 54.5965 996.199 54.5965V52.5965Z" fill="white" mask="url(#path-1-outside-1_93_11239)"/>
</g>
</svg>
