<?xml version="1.0" encoding="utf-8"?>
<!-- Generator: Adobe Illustrator 24.1.1, SVG Export Plug-In . SVG Version: 6.00 Build 0)  -->
<svg version="1.1" id="Layer_1" xmlns="http://www.w3.org/2000/svg" xmlns:xlink="http://www.w3.org/1999/xlink" x="0px" y="0px"
	 viewBox="0 0 512 512" style="enable-background:new 0 0 512 512;" xml:space="preserve">
<g>
	<path d="M395.7,272c0.7,77.5,68,103.3,68.7,103.6c-0.6,1.8-10.7,36.7-35.4,72.8c-21.3,31.2-43.5,62.3-78.4,62.9
		c-34.3,0.6-45.3-20.3-84.5-20.3c-39.2,0-51.4,19.7-83.9,21c-33.7,1.3-59.3-33.7-80.8-64.8c-44-63.6-77.6-179.6-32.5-258
		c22.4-38.9,62.5-63.5,105.9-64.2c33.1-0.6,64.3,22.2,84.5,22.2c20.2,0,58.1-27.5,98-23.5c16.7,0.7,63.6,6.7,93.6,50.8
		C448.6,176.1,395.1,207.2,395.7,272 M331.3,81.7C349.2,60.1,361.2,30,357.9,0c-25.8,1-56.9,17.2-75.4,38.8
		C265.9,58,251.4,88.6,255.3,118C284.1,120.2,313.4,103.4,331.3,81.7" fill="#444544"/>
</g>
</svg>
