<svg width="37" height="35" viewBox="0 0 37 35" fill="none" xmlns="http://www.w3.org/2000/svg">
<g clip-path="url(#clip0_39_2223)">
<path d="M30.5681 14.9981C30.5356 14.8101 30.4902 14.6157 30.4383 14.4277C30.3864 14.2398 30.3344 14.0389 30.276 13.8509C30.2231 13.6619 30.1602 13.4759 30.0878 13.2935C30.0934 13.2744 30.0934 13.2542 30.0878 13.2351C29.8213 12.5084 29.4844 11.8094 29.0818 11.1481C29.0643 11.1077 29.0401 11.0705 29.0105 11.0379C28.9261 10.8953 28.8352 10.7592 28.7379 10.6166C28.6405 10.474 28.5107 10.2926 28.3939 10.137C28.2771 9.98145 28.1732 9.84533 28.0564 9.70274L27.9915 9.62496L27.6475 9.23608C27.6475 9.23608 27.6475 9.23607 27.6475 9.20367C27.6475 9.17126 27.4918 9.03515 27.4139 8.95089C27.336 8.86663 27.349 8.87959 27.3101 8.84719C27.2479 8.77749 27.1806 8.7125 27.1089 8.65274L26.8557 8.42589L26.7908 8.36756L26.7195 8.30922C26.5981 8.19196 26.4703 8.0816 26.3365 7.97867C26.3365 7.97867 26.1353 7.81663 26.038 7.74533L25.8887 7.63515L25.7524 7.53145L25.5837 7.4083L25.4993 7.34996L25.4149 7.29163C25.2462 7.17496 25.0775 7.06478 24.9022 6.96108L24.5388 6.75367C24.4212 6.68249 24.2998 6.61758 24.1753 6.55922H24.1169L24.0131 6.48145C21.1596 5.03403 17.8545 4.75125 14.7961 5.69286C11.7376 6.63447 9.16563 8.7267 7.62353 11.5274C6.08144 14.3281 5.69009 17.6178 6.53219 20.7014C7.37429 23.785 9.38386 26.4208 12.1362 28.0518C12.4218 28.2203 12.7074 28.3759 13.0059 28.5185C14.6655 29.354 16.4952 29.7975 18.3537 29.8148H18.4965C21.274 29.8165 23.9707 28.8817 26.1498 27.1619C28.329 25.4421 29.8629 23.0379 30.5032 20.3389C30.5486 20.1444 30.594 19.95 30.6265 19.7555C30.6589 19.5611 30.6849 19.4314 30.7109 19.2694C30.7368 19.1074 30.7498 19.0101 30.7628 18.874C30.7758 18.7379 30.7628 18.5759 30.8017 18.4203C30.8116 18.2822 30.8116 18.1436 30.8017 18.0055C30.8049 17.9862 30.8049 17.9665 30.8017 17.9472C30.8422 16.9584 30.7638 15.9683 30.5681 14.9981ZM7.46336 17.5C7.46336 14.5777 8.62578 11.7751 10.6949 9.7087C12.764 7.64232 15.5703 6.48145 18.4965 6.48145C18.8715 6.48131 19.2463 6.50078 19.6193 6.53978C19.9417 6.57095 20.2623 6.61854 20.5798 6.68237L21.0471 6.77959C21.5057 6.88834 21.9566 7.0269 22.3971 7.19441C22.6958 7.3036 22.9883 7.42909 23.2732 7.57033C23.5559 7.70185 23.8311 7.84899 24.0975 8.01108C24.4968 8.24771 24.8805 8.50967 25.2462 8.79533C25.3695 8.88608 25.4863 8.9833 25.6096 9.087C25.8433 9.28145 26.0704 9.49533 26.2587 9.73515C26.382 9.8583 26.5053 9.98793 26.6221 10.1176C26.7389 10.2472 26.8622 10.3833 26.9726 10.5194C27.2034 10.7888 27.42 11.0701 27.6216 11.362C28.0205 11.9523 28.3617 12.5796 28.6405 13.2351C28.7119 13.4037 28.7768 13.5657 28.8417 13.7342C28.9066 13.9027 28.965 14.0777 29.0169 14.2463C29.1754 14.7708 29.2968 15.3057 29.3804 15.8472C29.4142 16.0294 29.438 16.2133 29.4518 16.3981C29.5049 16.904 29.5223 17.413 29.5037 17.9213C29.5037 18.025 29.5037 18.1287 29.5037 18.2259C29.5037 18.3231 29.5037 18.4787 29.5037 18.6018C29.5037 18.725 29.4713 18.9064 29.4453 19.0555C29.4193 19.2046 29.4453 19.2759 29.3934 19.3861L29.3544 19.6064C29.3298 19.7598 29.2951 19.9113 29.2506 20.0601C28.6734 22.4733 27.2975 24.6212 25.3458 26.1562C23.3941 27.6913 20.9808 28.5236 18.4965 28.5185H18.3602C15.4577 28.4827 12.6863 27.306 10.6466 25.2435C8.60683 23.181 7.46314 20.3988 7.46336 17.5Z" fill="#CBFB45"/>
<path d="M30.5681 14.9981C30.5356 14.8101 30.4902 14.6157 30.4383 14.4277C30.3864 14.2398 30.3344 14.0389 30.276 13.8509C30.2231 13.6619 30.1602 13.4759 30.0878 13.2935C30.0934 13.2744 30.0934 13.2542 30.0878 13.2351C29.8213 12.5084 29.4844 11.8094 29.0818 11.1481C29.0643 11.1077 29.0401 11.0705 29.0105 11.0379C28.9261 10.8953 28.8352 10.7592 28.7379 10.6166C28.6405 10.474 28.5107 10.2926 28.3939 10.137C28.2771 9.98145 28.1732 9.84533 28.0564 9.70274L27.9915 9.62496L27.6475 9.23608C27.6475 9.23608 27.6475 9.23607 27.6475 9.20367C27.6475 9.17126 27.4918 9.03515 27.4139 8.95089C27.336 8.86663 27.349 8.87959 27.3101 8.84719C27.2479 8.77749 27.1806 8.7125 27.1089 8.65274L26.8557 8.42589L26.7908 8.36756L26.7195 8.30922C26.5981 8.19196 26.4703 8.0816 26.3365 7.97867C26.3365 7.97867 26.1353 7.81663 26.038 7.74533L25.8887 7.63515L25.7524 7.53145L25.5837 7.4083L25.4993 7.34996L25.4149 7.29163C25.2462 7.17496 25.0775 7.06478 24.9022 6.96108L24.5388 6.75367C24.4212 6.68249 24.2998 6.61758 24.1753 6.55922H24.1169L24.0131 6.48145C21.1596 5.03403 17.8545 4.75125 14.7961 5.69286C11.7376 6.63447 9.16563 8.7267 7.62353 11.5274C6.08144 14.3281 5.69009 17.6178 6.53219 20.7014C7.37429 23.785 9.38386 26.4208 12.1362 28.0518C12.4218 28.2203 12.7074 28.3759 13.0059 28.5185C14.6655 29.354 16.4952 29.7975 18.3537 29.8148H18.4965C21.274 29.8165 23.9707 28.8817 26.1498 27.1619C28.329 25.4421 29.8629 23.0379 30.5032 20.3389C30.5486 20.1444 30.594 19.95 30.6265 19.7555C30.6589 19.5611 30.6849 19.4314 30.7109 19.2694C30.7368 19.1074 30.7498 19.0101 30.7628 18.874C30.7758 18.7379 30.7628 18.5759 30.8017 18.4203C30.8116 18.2822 30.8116 18.1436 30.8017 18.0055C30.8049 17.9862 30.8049 17.9665 30.8017 17.9472C30.8422 16.9584 30.7638 15.9683 30.5681 14.9981ZM7.46336 17.5C7.46336 14.5777 8.62578 11.7751 10.6949 9.7087C12.764 7.64232 15.5703 6.48145 18.4965 6.48145C18.8715 6.48131 19.2463 6.50078 19.6193 6.53978C19.9417 6.57095 20.2623 6.61854 20.5798 6.68237L21.0471 6.77959C21.5057 6.88834 21.9566 7.0269 22.3971 7.19441C22.6958 7.3036 22.9883 7.42909 23.2732 7.57033C23.5559 7.70185 23.8311 7.84899 24.0975 8.01108C24.4968 8.24771 24.8805 8.50967 25.2462 8.79533C25.3695 8.88608 25.4863 8.9833 25.6096 9.087C25.8433 9.28145 26.0704 9.49533 26.2587 9.73515C26.382 9.8583 26.5053 9.98793 26.6221 10.1176C26.7389 10.2472 26.8622 10.3833 26.9726 10.5194C27.2034 10.7888 27.42 11.0701 27.6216 11.362C28.0205 11.9523 28.3617 12.5796 28.6405 13.2351C28.7119 13.4037 28.7768 13.5657 28.8417 13.7342C28.9066 13.9027 28.965 14.0777 29.0169 14.2463C29.1754 14.7708 29.2968 15.3057 29.3804 15.8472C29.4142 16.0294 29.438 16.2133 29.4518 16.3981C29.5049 16.904 29.5223 17.413 29.5037 17.9213C29.5037 18.025 29.5037 18.1287 29.5037 18.2259C29.5037 18.3231 29.5037 18.4787 29.5037 18.6018C29.5037 18.725 29.4713 18.9064 29.4453 19.0555C29.4193 19.2046 29.4453 19.2759 29.3934 19.3861L29.3544 19.6064C29.3298 19.7598 29.2951 19.9113 29.2506 20.0601C28.6734 22.4733 27.2975 24.6212 25.3458 26.1562C23.3941 27.6913 20.9808 28.5236 18.4965 28.5185H18.3602C15.4577 28.4827 12.6863 27.306 10.6466 25.2435C8.60683 23.181 7.46314 20.3988 7.46336 17.5Z" fill="#CBFB45"/>
<path opacity="0.5" d="M19.5087 14.9074H16.5493V16.8518H19.5087C19.7561 16.8501 19.9928 16.7513 20.1677 16.5766C20.3426 16.4019 20.4416 16.1655 20.4433 15.9185V15.8407C20.4416 15.5937 20.3426 15.3573 20.1677 15.1826C19.9928 15.008 19.7561 14.9091 19.5087 14.9074ZM19.5087 14.9074H16.5493V16.8518H19.5087C19.7561 16.8501 19.9928 16.7513 20.1677 16.5766C20.3426 16.4019 20.4416 16.1655 20.4433 15.9185V15.8407C20.4416 15.5937 20.3426 15.3573 20.1677 15.1826C19.9928 15.008 19.7561 14.9091 19.5087 14.9074ZM19.5087 14.9074H16.5493V16.8518H19.5087C19.7561 16.8501 19.9928 16.7513 20.1677 16.5766C20.3426 16.4019 20.4416 16.1655 20.4433 15.9185V15.8407C20.4416 15.5937 20.3426 15.3573 20.1677 15.1826C19.9928 15.008 19.7561 14.9091 19.5087 14.9074ZM20.1188 18.1481H16.5493V20.0926H20.1188C20.377 20.0926 20.6246 19.9901 20.8072 19.8078C20.9898 19.6255 21.0923 19.3782 21.0923 19.1204C21.0923 18.8625 20.9898 18.6152 20.8072 18.4329C20.6246 18.2506 20.377 18.1481 20.1188 18.1481ZM20.1188 18.1481H16.5493V20.0926H20.1188C20.377 20.0926 20.6246 19.9901 20.8072 19.8078C20.9898 19.6255 21.0923 19.3782 21.0923 19.1204C21.0923 18.8625 20.9898 18.6152 20.8072 18.4329C20.6246 18.2506 20.377 18.1481 20.1188 18.1481ZM19.5087 14.9074H16.5493V16.8518H19.5087C19.7561 16.8501 19.9928 16.7513 20.1677 16.5766C20.3426 16.4019 20.4416 16.1655 20.4433 15.9185V15.8407C20.4416 15.5937 20.3426 15.3573 20.1677 15.1826C19.9928 15.008 19.7561 14.9091 19.5087 14.9074ZM20.4433 15.9185V15.8407C20.4416 15.5937 20.3426 15.3573 20.1677 15.1826C19.9928 15.008 19.7561 14.9091 19.5087 14.9074H16.5493V16.8518H19.5087C19.7561 16.8501 19.9928 16.7513 20.1677 16.5766C20.3426 16.4019 20.4416 16.1655 20.4433 15.9185ZM20.1188 18.1481H16.5493V20.0926H20.1188C20.377 20.0926 20.6246 19.9901 20.8072 19.8078C20.9898 19.6255 21.0923 19.3782 21.0923 19.1204C21.0923 18.8625 20.9898 18.6152 20.8072 18.4329C20.6246 18.2506 20.377 18.1481 20.1188 18.1481ZM18.4963 8.42591C16.6992 8.42591 14.9425 8.9581 13.4483 9.95517C11.9541 10.9522 10.7895 12.3694 10.1018 14.0275C9.41409 15.6856 9.23416 17.5101 9.58475 19.2702C9.93534 21.0304 10.8007 22.6473 12.0714 23.9163C13.3421 25.1854 14.9611 26.0496 16.7237 26.3997C18.4862 26.7498 20.3131 26.5701 21.9734 25.8833C23.6337 25.1965 25.0527 24.0335 26.0511 22.5413C27.0495 21.049 27.5824 19.2947 27.5824 17.5C27.5824 15.0934 26.6251 12.7854 24.9211 11.0836C23.2172 9.38193 20.9061 8.42591 18.4963 8.42591ZM20.1188 21.3889H19.7943V22.037C19.7943 22.2089 19.7259 22.3738 19.6042 22.4953C19.4825 22.6169 19.3174 22.6852 19.1453 22.6852C18.9732 22.6852 18.8081 22.6169 18.6864 22.4953C18.5647 22.3738 18.4963 22.2089 18.4963 22.037V21.3889H17.1983V22.037C17.1983 22.2089 17.1299 22.3738 17.0082 22.4953C16.8865 22.6169 16.7214 22.6852 16.5493 22.6852C16.3771 22.6852 16.2121 22.6169 16.0903 22.4953C15.9686 22.3738 15.9003 22.2089 15.9003 22.037V21.3889H15.2512C15.0791 21.3889 14.914 21.3206 14.7923 21.199C14.6706 21.0775 14.6022 20.9126 14.6022 20.7407C14.6022 20.5688 14.6706 20.404 14.7923 20.2824C14.914 20.1609 15.0791 20.0926 15.2512 20.0926V14.9074C15.0791 14.9074 14.914 14.8391 14.7923 14.7176C14.6706 14.596 14.6022 14.4311 14.6022 14.2592C14.6022 14.0873 14.6706 13.9225 14.7923 13.8009C14.914 13.6794 15.0791 13.6111 15.2512 13.6111H15.9003V12.9629C15.9003 12.791 15.9686 12.6262 16.0903 12.5046C16.2121 12.3831 16.3771 12.3148 16.5493 12.3148C16.7214 12.3148 16.8865 12.3831 17.0082 12.5046C17.1299 12.6262 17.1983 12.791 17.1983 12.9629V13.6111H18.4963V12.9629C18.4963 12.791 18.5647 12.6262 18.6864 12.5046C18.8081 12.3831 18.9732 12.3148 19.1453 12.3148C19.3174 12.3148 19.4825 12.3831 19.6042 12.5046C19.7259 12.6262 19.7943 12.791 19.7943 12.9629V13.6111C20.3323 13.6804 20.8267 13.9429 21.185 14.3497C21.5433 14.7564 21.7411 15.2795 21.7413 15.8213V15.8991C21.7456 16.3644 21.6 16.8189 21.326 17.1954C21.6544 17.3975 21.925 17.6809 22.1115 18.0182C22.2979 18.3554 22.394 18.7351 22.3903 19.1204C22.3903 19.722 22.151 20.299 21.725 20.7244C21.299 21.1499 20.7213 21.3889 20.1188 21.3889ZM20.4433 15.9185V15.8407C20.4416 15.5937 20.3426 15.3573 20.1677 15.1826C19.9928 15.008 19.7561 14.9091 19.5087 14.9074H16.5493V16.8518H19.5087C19.7561 16.8501 19.9928 16.7513 20.1677 16.5766C20.3426 16.4019 20.4416 16.1655 20.4433 15.9185ZM20.1188 18.1481H16.5493V20.0926H20.1188C20.377 20.0926 20.6246 19.9901 20.8072 19.8078C20.9898 19.6255 21.0923 19.3782 21.0923 19.1204C21.0923 18.8625 20.9898 18.6152 20.8072 18.4329C20.6246 18.2506 20.377 18.1481 20.1188 18.1481ZM20.1188 18.1481H16.5493V20.0926H20.1188C20.377 20.0926 20.6246 19.9901 20.8072 19.8078C20.9898 19.6255 21.0923 19.3782 21.0923 19.1204C21.0923 18.8625 20.9898 18.6152 20.8072 18.4329C20.6246 18.2506 20.377 18.1481 20.1188 18.1481ZM19.5087 14.9074H16.5493V16.8518H19.5087C19.7561 16.8501 19.9928 16.7513 20.1677 16.5766C20.3426 16.4019 20.4416 16.1655 20.4433 15.9185V15.8407C20.4416 15.5937 20.3426 15.3573 20.1677 15.1826C19.9928 15.008 19.7561 14.9091 19.5087 14.9074ZM19.5087 14.9074H16.5493V16.8518H19.5087C19.7561 16.8501 19.9928 16.7513 20.1677 16.5766C20.3426 16.4019 20.4416 16.1655 20.4433 15.9185V15.8407C20.4416 15.5937 20.3426 15.3573 20.1677 15.1826C19.9928 15.008 19.7561 14.9091 19.5087 14.9074ZM20.1188 18.1481H16.5493V20.0926H20.1188C20.377 20.0926 20.6246 19.9901 20.8072 19.8078C20.9898 19.6255 21.0923 19.3782 21.0923 19.1204C21.0923 18.8625 20.9898 18.6152 20.8072 18.4329C20.6246 18.2506 20.377 18.1481 20.1188 18.1481ZM20.1188 18.1481H16.5493V20.0926H20.1188C20.377 20.0926 20.6246 19.9901 20.8072 19.8078C20.9898 19.6255 21.0923 19.3782 21.0923 19.1204C21.0923 18.8625 20.9898 18.6152 20.8072 18.4329C20.6246 18.2506 20.377 18.1481 20.1188 18.1481ZM19.5087 14.9074H16.5493V16.8518H19.5087C19.7561 16.8501 19.9928 16.7513 20.1677 16.5766C20.3426 16.4019 20.4416 16.1655 20.4433 15.9185V15.8407C20.4416 15.5937 20.3426 15.3573 20.1677 15.1826C19.9928 15.008 19.7561 14.9091 19.5087 14.9074ZM19.5087 14.9074H16.5493V16.8518H19.5087C19.7561 16.8501 19.9928 16.7513 20.1677 16.5766C20.3426 16.4019 20.4416 16.1655 20.4433 15.9185V15.8407C20.4416 15.5937 20.3426 15.3573 20.1677 15.1826C19.9928 15.008 19.7561 14.9091 19.5087 14.9074Z" fill="#CBFB45"/>
<path d="M36.8047 3.75276L33.2351 0.187947C33.1439 0.0980116 33.028 0.0370881 32.9021 0.0128642C32.7762 -0.0113598 32.6459 0.00220118 32.5277 0.051836C32.4092 0.10046 32.3077 0.183033 32.2361 0.289148C32.1645 0.395263 32.126 0.520171 32.1253 0.648132V1.94443H18.8661C10.1434 1.94443 2.99131 8.86665 2.91992 17.3704C2.91992 17.6555 2.91992 17.9342 2.91992 18.2129C3.02688 20.3879 3.72016 22.4937 4.92653 24.3077C6.13289 26.1217 7.80752 27.5765 9.77346 28.5185C11.5224 29.3758 13.4456 29.8194 15.3939 29.8148H18.3534C21.1393 29.7866 23.8385 28.8433 26.0343 27.1307C28.2301 25.4181 29.8004 23.0314 30.5028 20.3389C30.5482 20.1444 30.5937 19.95 30.6261 19.7555C30.6586 19.5611 30.6845 19.4315 30.7105 19.2694C30.7364 19.1074 30.7494 19.0102 30.7624 18.8741C30.7754 18.7379 30.7624 18.5759 30.8013 18.4204C30.8112 18.2823 30.8112 18.1436 30.8013 18.0055C30.8045 17.9862 30.8045 17.9665 30.8013 17.9472C30.8354 16.9576 30.7505 15.9675 30.5482 14.9981C30.5158 14.8102 30.4704 14.6157 30.4184 14.4278C30.3665 14.2398 30.3146 14.0389 30.2562 13.8509C30.2032 13.662 30.1404 13.4759 30.068 13.2935C30.0736 13.2745 30.0736 13.2542 30.068 13.2352C29.8014 12.5085 29.4645 11.8095 29.062 11.1481C29.0444 11.1077 29.0203 11.0705 28.9906 11.0379C28.9062 10.8954 28.8154 10.7592 28.718 10.6166C28.6207 10.4741 28.4909 10.2926 28.3741 10.137C28.2572 9.98147 28.1534 9.84535 28.0366 9.70276L27.9717 9.62498L27.6277 9.23609C27.6277 9.23609 27.6277 9.23609 27.6277 9.20369C27.6277 9.17128 27.4719 9.03517 27.394 8.95091C27.3162 8.86665 27.3291 8.87961 27.2902 8.84721C27.2281 8.77751 27.1608 8.71252 27.089 8.65276L26.8554 8.42591L26.7905 8.36758L26.7191 8.30924C26.5977 8.19198 26.4699 8.08162 26.3362 7.97869C26.3362 7.97869 26.135 7.81665 26.0376 7.74535L25.9143 7.64813L25.778 7.54443L25.6093 7.42128L25.5249 7.36295L25.4405 7.30461C25.2718 7.18795 25.103 7.07776 24.9278 6.97406L24.5644 6.76665C24.4467 6.69547 24.3254 6.63057 24.2009 6.57221H24.1425L24.0127 6.48147H32.1253V7.77776C32.126 7.90572 32.1645 8.03063 32.2361 8.13675C32.3077 8.24286 32.4092 8.32543 32.5277 8.37406C32.6459 8.42369 32.7762 8.43725 32.9021 8.41303C33.028 8.38881 33.1439 8.32788 33.2351 8.23795L36.8047 4.67313C36.8655 4.61288 36.9138 4.54119 36.9467 4.46221C36.9797 4.38323 36.9967 4.29851 36.9967 4.21295C36.9967 4.12738 36.9797 4.04267 36.9467 3.96368C36.9138 3.8847 36.8655 3.81302 36.8047 3.75276ZM33.4233 6.21572V5.83332C33.4233 5.66142 33.355 5.49656 33.2333 5.37501C33.1115 5.25346 32.9465 5.18517 32.7743 5.18517H18.4961C18.324 5.18517 18.1589 5.25346 18.0372 5.37501C17.9155 5.49656 17.8471 5.66142 17.8471 5.83332C17.8471 6.00522 17.9155 6.17008 18.0372 6.29163C18.1589 6.41318 18.324 6.48147 18.4961 6.48147C18.8712 6.48133 19.2459 6.5008 19.6189 6.5398C19.9413 6.57097 20.2619 6.61856 20.5795 6.68239L21.0467 6.77961C21.5053 6.88836 21.9562 7.02692 22.3967 7.19443C22.6954 7.30362 22.9879 7.42911 23.2728 7.57035C23.5556 7.70187 23.8307 7.84901 24.0971 8.01109C24.5011 8.24023 24.8854 8.50255 25.2458 8.79535C25.3691 8.88609 25.486 8.98332 25.6093 9.08702C25.8429 9.28147 26.0701 9.49535 26.2583 9.73517C26.309 9.77716 26.3567 9.82265 26.4011 9.87128C26.4798 9.94861 26.5535 10.0309 26.6217 10.1176C26.7474 10.2436 26.8645 10.3778 26.9722 10.5194C27.2075 10.7852 27.4244 11.0667 27.6212 11.362C28.0286 11.9472 28.3703 12.5754 28.6401 13.2352C28.7167 13.3976 28.7838 13.5642 28.8413 13.7342C28.9062 13.9028 28.9646 14.0778 29.0166 14.2463C29.1798 14.7695 29.3013 15.3048 29.38 15.8472C29.4138 16.0294 29.4376 16.2133 29.4514 16.3981C29.5046 16.904 29.5219 17.413 29.5033 17.9213C29.5033 18.025 29.5033 18.1287 29.5033 18.2259C29.5033 18.3231 29.5033 18.4787 29.5033 18.6018C29.5033 18.725 29.4709 18.9065 29.4449 19.0555C29.419 19.2046 29.4449 19.2759 29.393 19.3861L29.3541 19.6065C29.3541 19.762 29.2892 19.9111 29.2502 20.0602C28.6153 22.4678 27.2053 24.6001 25.2373 26.1286C23.2694 27.657 20.8528 28.4968 18.3598 28.5185H15.3939C14.2954 28.519 13.2025 28.3619 12.1488 28.0518C9.95823 27.4344 8.0164 26.1471 6.5962 24.3707C5.176 22.5944 4.34883 20.4182 4.23092 18.1481C4.23092 17.8954 4.23092 17.6361 4.23092 17.3704C4.28284 9.58609 10.8573 3.24072 18.8661 3.24072H32.7743C32.9465 3.24072 33.1115 3.17244 33.2333 3.05089C33.355 2.92933 33.4233 2.76448 33.4233 2.59258V2.21017L35.4288 4.21295L33.4233 6.21572Z" fill="#CBFB45"/>
<path opacity="0.5" d="M33.4239 6.21573V5.83332C33.4239 5.66142 33.3555 5.49656 33.2338 5.37501C33.1121 5.25346 32.947 5.18517 32.7749 5.18517H18.4967C15.801 5.1846 13.1794 6.0662 11.0332 7.69501C8.88693 9.32383 7.33424 11.6101 6.61276 14.204C5.89129 16.7979 6.04078 19.5564 7.03835 22.0573C8.03593 24.5583 9.82663 26.6639 12.1364 28.0518C9.9482 27.4322 8.0092 26.1438 6.59149 24.3677C5.17377 22.5915 4.34849 20.4166 4.23145 18.1481C4.23145 17.8954 4.23145 17.6361 4.23145 17.3704C4.28337 9.5861 10.8578 3.24073 18.8666 3.24073H32.7749C32.947 3.24073 33.1121 3.17244 33.2338 3.05089C33.3555 2.92934 33.4239 2.76448 33.4239 2.59258V2.21017L35.4293 4.21295L33.4239 6.21573Z" fill="#CBFB45"/>
<path d="M25.8953 7.64813L26.0446 7.75832L25.8953 7.64813ZM34.0598 16.787C33.9541 14.6134 33.2628 12.5086 32.0588 10.6947C30.8548 8.88085 29.1828 7.42523 27.2193 6.48147C25.4703 5.62416 23.5472 5.1806 21.5989 5.18517H18.4966C18.3245 5.18517 18.1594 5.25346 18.0377 5.37501C17.916 5.49656 17.8476 5.66142 17.8476 5.83332C17.8476 6.00522 17.916 6.17008 18.0377 6.29163C18.1594 6.41318 18.3245 6.48147 18.4966 6.48147C18.8716 6.48133 19.2464 6.50081 19.6194 6.5398C19.9418 6.57097 20.2624 6.61856 20.5799 6.68239L21.0472 6.77961C21.5058 6.88836 21.9567 7.02692 22.3972 7.19443C22.6959 7.30362 22.9884 7.42911 23.2733 7.57036C23.556 7.70187 23.8312 7.84901 24.0976 8.0111C24.5016 8.24023 24.8858 8.50255 25.2463 8.79535C25.3696 8.8861 25.4864 8.98332 25.6097 9.08702C25.8434 9.28147 26.0705 9.49536 26.2588 9.73517C26.3095 9.77717 26.3572 9.82265 26.4015 9.87128C26.4803 9.94861 26.554 10.0309 26.6222 10.1176C26.7479 10.2436 26.865 10.3778 26.9727 10.5194C27.208 10.7852 27.4248 11.0667 27.6217 11.362C28.029 11.9472 28.3708 12.5754 28.6406 13.2352C28.7171 13.3976 28.7843 13.5642 28.8418 13.7342C28.9067 13.9028 28.9651 14.0778 29.017 14.2463C29.1802 14.7695 29.3018 15.3048 29.3805 15.8472C29.4143 16.0294 29.4381 16.2133 29.4519 16.3981C29.505 16.904 29.5224 17.413 29.5038 17.9213C29.5038 18.025 29.5038 18.1287 29.5038 18.2259C29.5038 18.3231 29.5038 18.4787 29.5038 18.6018C29.5038 18.725 29.4714 18.9065 29.4454 19.0555C29.4194 19.2046 29.4454 19.2759 29.3935 19.3861L29.3545 19.6065C29.3545 19.762 29.2896 19.9111 29.2507 20.0602C28.6158 22.4678 27.2057 24.6001 25.2378 26.1286C23.2699 27.657 20.8532 28.4968 18.3603 28.5185H4.86742V27.2222C4.86678 27.0942 4.82823 26.9693 4.75662 26.8632C4.68502 26.7571 4.58356 26.6745 4.46504 26.6259C4.34685 26.5763 4.21658 26.5627 4.09068 26.5869C3.96478 26.6112 3.84888 26.6721 3.75762 26.762L0.188069 30.3268C0.127239 30.3871 0.0789564 30.4588 0.046007 30.5378C0.0130577 30.6167 -0.00390625 30.7015 -0.00390625 30.787C-0.00390625 30.8726 0.0130577 30.9573 0.046007 31.0363C0.0789564 31.1153 0.127239 31.187 0.188069 31.2472L3.75762 34.812C3.81826 34.8721 3.89018 34.9196 3.96926 34.9519C4.04833 34.9841 4.133 35.0005 4.21841 35C4.30355 35.0022 4.38801 34.9844 4.46504 34.9481C4.58356 34.8995 4.68502 34.8169 4.75662 34.7108C4.82823 34.6047 4.86678 34.4798 4.86742 34.3518V33.0555H18.1267C22.3137 33.0582 26.3368 31.4306 29.3416 28.5185C30.8149 27.1083 31.992 25.4191 32.8044 23.5495C33.6167 21.68 34.0479 19.6675 34.0728 17.6296C34.0728 17.3444 34.0663 17.0657 34.0598 16.787ZM18.1267 31.7592H4.21841C4.04629 31.7592 3.88121 31.8275 3.7595 31.9491C3.63778 32.0706 3.56941 32.2355 3.56941 32.4074V32.7898L1.56397 30.787L3.56941 28.7842V29.1667C3.56941 29.3385 3.63778 29.5034 3.7595 29.625C3.88121 29.7465 4.04629 29.8148 4.21841 29.8148H18.3538C21.1398 29.7866 23.839 28.8433 26.0347 27.1307C28.2305 25.4181 29.8008 23.0314 30.5033 20.3389C30.5487 20.1444 30.5941 19.95 30.6266 19.7555C30.659 19.5611 30.685 19.4315 30.711 19.2694C30.7369 19.1074 30.7499 19.0102 30.7629 18.8741C30.7759 18.7379 30.7629 18.5759 30.8018 18.4204C30.8117 18.2823 30.8117 18.1436 30.8018 18.0055C30.805 17.9862 30.805 17.9665 30.8018 17.9472C30.8359 16.9576 30.7509 15.9675 30.5487 14.9981C30.5163 14.8102 30.4708 14.6157 30.4189 14.4278C30.367 14.2398 30.3151 14.0389 30.2567 13.8509C30.2037 13.662 30.1409 13.4759 30.0684 13.2935C30.074 13.2745 30.074 13.2542 30.0684 13.2352C29.8019 12.5085 29.465 11.8095 29.0625 11.1481C29.0449 11.1077 29.0208 11.0705 28.9911 11.0379C28.9067 10.8954 28.8159 10.7592 28.7185 10.6167C28.6212 10.4741 28.4914 10.2926 28.3745 10.137C28.2577 9.98147 28.1539 9.84536 28.037 9.70276L27.9721 9.62498L27.6282 9.2361C27.6282 9.2361 27.6282 9.2361 27.6282 9.20369C27.6282 9.17128 27.4724 9.03517 27.3945 8.95091C27.3166 8.86665 27.3296 8.87961 27.2907 8.84721C27.2285 8.77751 27.1613 8.71252 27.0895 8.65276L26.8558 8.42591L26.7909 8.36758L26.7196 8.30924C26.5982 8.19198 26.4704 8.08162 26.3366 7.97869C26.3366 7.97869 26.1354 7.81665 26.0381 7.74535L25.9148 7.64813L25.7785 7.54443L25.6097 7.42128L25.5254 7.36295L25.441 7.30461C25.2723 7.18795 25.1035 7.07776 24.9283 6.97406C27.1001 7.60306 29.0217 8.89242 30.4257 10.6628C31.8296 12.4331 32.6462 14.5965 32.7618 16.8518C32.7618 17.1046 32.7618 17.3639 32.7618 17.6296C32.7099 25.4139 26.1354 31.7592 18.1267 31.7592ZM25.9148 7.64813L26.0641 7.75832L25.9148 7.64813Z" fill="#CBFB45"/>
<path opacity="0.5" d="M32.7753 17.6231C32.7104 25.4139 26.1359 31.7592 18.1272 31.7592H4.2189C4.04677 31.7592 3.88169 31.8275 3.75998 31.9491C3.63827 32.0706 3.56989 32.2355 3.56989 32.4074V32.7898L1.56445 30.787L3.56989 28.7842V29.1666C3.56989 29.3385 3.63827 29.5034 3.75998 29.625C3.88169 29.7465 4.04677 29.8148 4.2189 29.8148H18.4971C21.2746 29.8165 23.9713 28.8818 26.1504 27.1619C28.3295 25.4421 29.8635 23.0379 30.5038 20.3389C30.5492 20.1444 30.5946 19.95 30.6271 19.7555C30.6595 19.5611 30.6855 19.4315 30.7114 19.2694C30.7374 19.1074 30.7504 19.0102 30.7634 18.8741C30.7763 18.7379 30.7634 18.5759 30.8023 18.4204C30.8122 18.2823 30.8122 18.1436 30.8023 18.0055C30.8055 17.9862 30.8055 17.9665 30.8023 17.9472C30.8364 16.9576 30.7514 15.9675 30.5492 14.9981C30.5167 14.8102 30.4713 14.6157 30.4194 14.4278C30.3752 14.2328 30.3211 14.0403 30.2571 13.8509C30.2042 13.662 30.1413 13.4759 30.0689 13.2935C30.0745 13.2745 30.0745 13.2542 30.0689 13.2352C29.8024 12.5085 29.4655 11.8095 29.063 11.1481C29.0454 11.1077 29.0213 11.0705 28.9916 11.0379C28.9072 10.8954 28.8163 10.7592 28.719 10.6167C28.6216 10.4741 28.4918 10.2926 28.375 10.137C28.2582 9.98147 28.1544 9.84536 28.0375 9.70276L27.9726 9.62499L27.6287 9.2361C27.6287 9.2361 27.6287 9.2361 27.6287 9.20369C27.6287 9.17128 27.4729 9.03517 27.395 8.95091C27.3171 8.86665 27.3301 8.87961 27.2912 8.84721C27.229 8.77751 27.1618 8.71252 27.09 8.65276L26.8563 8.42591L26.7914 8.36758L26.72 8.30924C26.5987 8.19198 26.4709 8.08162 26.3371 7.97869C26.3371 7.97869 26.1359 7.81665 26.0386 7.74536L25.9153 7.64813L25.779 7.54443L25.6102 7.42128L25.5259 7.36295L25.4415 7.30462C25.2728 7.18795 25.104 7.07776 24.9288 6.97406C27.1006 7.60306 29.0222 8.89242 30.4262 10.6628C31.8301 12.4331 32.6467 14.5965 32.7623 16.8518C32.7688 17.0981 32.7753 17.3574 32.7753 17.6231Z" fill="#CBFB45"/>
</g>
<defs>
<clipPath id="clip0_39_2223">
<rect width="37" height="35" fill="white"/>
</clipPath>
</defs>
</svg>
