<svg width="37" height="37" viewBox="0 0 37 37" fill="none" xmlns="http://www.w3.org/2000/svg">
<g clip-path="url(#clip0_41_940)">
<path d="M16.5174 22.2991C16.5233 22.2685 16.5233 22.2371 16.5174 22.2066C16.4852 22.1278 16.4381 22.0561 16.3787 21.9952C16.3108 21.9272 16.229 21.8749 16.1388 21.8418C16.0487 21.8087 15.9524 21.7956 15.8567 21.8036H4.62458C4.44935 21.8036 4.28129 21.8732 4.15739 21.9971C4.03348 22.121 3.96387 22.289 3.96387 22.4643V36.3393C3.96387 36.5145 4.03348 36.6826 4.15739 36.8065C4.28129 36.9304 4.44935 37 4.62458 37H15.8567C16.032 37 16.2 36.9304 16.3239 36.8065C16.4478 36.6826 16.5174 36.5145 16.5174 36.3393V22.4643C16.5275 22.4097 16.5275 22.3537 16.5174 22.2991ZM5.2853 35.6786V23.125H15.196V35.6786H5.2853Z" fill="#CBFB45"/>
<path opacity="0.5" d="M15.1959 23.125V35.6786H11.8923V33.0357C11.8923 32.8605 11.8227 32.6924 11.6988 32.5685C11.5749 32.4446 11.4068 32.375 11.2316 32.375H9.24944C9.07421 32.375 8.90615 32.4446 8.78225 32.5685C8.65834 32.6924 8.58873 32.8605 8.58873 33.0357V35.6786H5.28516V23.125H15.1959Z" fill="#CBFB45"/>
<path d="M16.5176 22.2991C16.5235 22.2685 16.5235 22.2372 16.5176 22.2066C16.4854 22.1279 16.4383 22.0561 16.3789 21.9952L16.1344 21.8036L15.8569 21.5261L12.3617 18.0309C12.3 17.9697 12.2268 17.9212 12.1463 17.8883C12.0658 17.8554 11.9796 17.8388 11.8926 17.8393H0.660493C0.530051 17.8399 0.40272 17.8792 0.294548 17.9521C0.186376 18.025 0.102202 18.1283 0.0526354 18.2489C0.00203827 18.3692 -0.0117856 18.5019 0.012908 18.63C0.0376016 18.7582 0.0997062 18.8762 0.191385 18.9691L3.96406 22.7418L4.15567 22.9334C4.21741 22.9946 4.29063 23.0431 4.37113 23.0759C4.45163 23.1088 4.53782 23.1255 4.62478 23.125H15.8569C16.0322 23.125 16.2002 23.0554 16.3241 22.9315C16.448 22.8076 16.5176 22.6395 16.5176 22.4643C16.5277 22.4097 16.5277 22.3537 16.5176 22.2991ZM4.89567 21.8036L2.25281 19.1607H11.6217L14.2646 21.8036H4.89567Z" fill="#CBFB45"/>
<path opacity="0.5" d="M14.2647 21.8036H4.89579L2.25293 19.1607H11.6219L14.2647 21.8036Z" fill="#CBFB45"/>
<path d="M32.3749 21.8036H15.857C15.77 21.8031 15.6838 21.8197 15.6034 21.8526C15.5229 21.8855 15.4496 21.934 15.3879 21.9952C15.3285 22.0561 15.2814 22.1279 15.2491 22.2066C15.2433 22.2372 15.2433 22.2686 15.2491 22.2991C15.2211 22.3503 15.2032 22.4064 15.1963 22.4643V36.3393C15.1963 36.5145 15.2659 36.6826 15.3898 36.8065C15.5137 36.9304 15.6818 37 15.857 37H32.3749C32.5501 37 32.7181 36.9304 32.8421 36.8065C32.966 36.6826 33.0356 36.5145 33.0356 36.3393V22.4643C33.0356 22.2891 32.966 22.121 32.8421 21.9971C32.7181 21.8732 32.5501 21.8036 32.3749 21.8036ZM31.7141 35.6786H16.5177V23.125H31.7141V35.6786Z" fill="#CBFB45"/>
<path opacity="0.5" d="M31.714 23.125H16.5176V35.6786H31.714V23.125Z" fill="#CBFB45"/>
<path d="M36.947 18.2489C36.8974 18.1283 36.8133 18.025 36.7051 17.9521C36.5969 17.8792 36.4696 17.8399 36.3391 17.8393H19.8213C19.7343 17.8388 19.6481 17.8555 19.5676 17.8883C19.4871 17.9212 19.4139 17.9697 19.3522 18.0309L15.857 21.5261L15.5795 21.8036L15.3879 21.9952C15.3285 22.0561 15.2814 22.1279 15.2491 22.2066C15.2433 22.2372 15.2433 22.2686 15.2491 22.2991C15.2211 22.3503 15.2032 22.4064 15.1963 22.4643C15.1963 22.6395 15.2659 22.8076 15.3898 22.9315C15.5137 23.0554 15.6818 23.125 15.857 23.125H32.3749C32.4618 23.1255 32.548 23.1088 32.6285 23.076C32.709 23.0431 32.7822 22.9946 32.844 22.9334L33.0356 22.7418L36.8083 18.9691C36.8999 18.8762 36.962 18.7582 36.9867 18.63C37.0114 18.5019 36.9976 18.3693 36.947 18.2489ZM32.104 21.8036H17.4493L20.0922 19.1607H34.7468L32.104 21.8036Z" fill="#CBFB45"/>
<path opacity="0.5" d="M34.7467 19.1607L32.1039 21.8036H17.4492L20.0921 19.1607H34.7467Z" fill="#CBFB45"/>
<path d="M11.8924 35.6786H8.58887V36.3393H11.8924V35.6786Z" fill="#CBFB45"/>
<path d="M27.0491 7.73035C26.8946 6.14821 26.3042 4.63996 25.3434 3.37349C24.3826 2.10703 23.0892 1.13204 21.6072 0.557062C20.1251 -0.0179184 18.5126 -0.170333 16.9491 0.116784C15.3855 0.403901 13.9324 1.11928 12.7513 2.1833C11.5703 3.24732 10.7076 4.61823 10.2595 6.14342C9.81136 7.66861 9.79528 9.28825 10.213 10.822C10.6308 12.3558 11.466 13.7436 12.6257 14.8309C13.7854 15.9181 15.2241 16.6622 16.7816 16.9804C17.3462 17.103 17.9217 17.1694 18.4994 17.1786C20.7775 17.1786 22.9622 16.2736 24.573 14.6628C26.1838 13.052 27.0887 10.8673 27.0887 8.58928C27.0887 8.29857 27.0887 8.02107 27.0491 7.73035ZM18.4994 15.8571C18.0112 15.8585 17.5241 15.8098 17.0459 15.7118C15.7289 15.4434 14.5121 14.8151 13.5308 13.8967C12.5495 12.9784 11.842 11.8058 11.4871 10.5095C11.1322 9.21318 11.1437 7.84383 11.5203 6.55364C11.8969 5.26345 12.624 4.10297 13.6206 3.20118C14.6172 2.29939 15.8443 1.69161 17.1656 1.4454C18.4869 1.19919 19.8506 1.32418 21.1051 1.8065C22.3596 2.28881 23.4558 3.10954 24.2719 4.17748C25.0879 5.24542 25.5918 6.51873 25.7276 7.85589C25.7544 8.09943 25.7677 8.34427 25.7673 8.58928C25.7673 10.5168 25.0016 12.3654 23.6386 13.7284C22.2756 15.0914 20.427 15.8571 18.4994 15.8571Z" fill="#CBFB45"/>
<path opacity="0.5" d="M20.8916 8.23911C21.0556 7.94159 21.142 7.60756 21.1427 7.26786C21.1416 6.85891 21.014 6.46033 20.7774 6.12676C20.5408 5.79319 20.2068 5.54096 19.8213 5.40464V4.625C19.8213 4.44977 19.7517 4.28171 19.6278 4.15781C19.5039 4.0339 19.3358 3.96429 19.1606 3.96429C18.9853 3.96429 18.8173 4.0339 18.6934 4.15781C18.5695 4.28171 18.4999 4.44977 18.4999 4.625V5.28572H17.8391V4.625C17.8391 4.44977 17.7695 4.28171 17.6456 4.15781C17.5217 4.0339 17.3537 3.96429 17.1784 3.96429C17.0032 3.96429 16.8351 4.0339 16.7112 4.15781C16.5873 4.28171 16.5177 4.44977 16.5177 4.625V5.28572H15.857C15.6818 5.28572 15.5137 5.35533 15.3898 5.47923C15.2659 5.60314 15.1963 5.7712 15.1963 5.94643C15.1963 6.12166 15.2659 6.28972 15.3898 6.41363C15.5137 6.53753 15.6818 6.60714 15.857 6.60714V10.5714C15.6818 10.5714 15.5137 10.641 15.3898 10.7649C15.2659 10.8889 15.1963 11.0569 15.1963 11.2321C15.1963 11.4074 15.2659 11.5754 15.3898 11.6993C15.5137 11.8232 15.6818 11.8929 15.857 11.8929H16.5177V12.5536C16.5177 12.7288 16.5873 12.8969 16.7112 13.0208C16.8351 13.1447 17.0032 13.2143 17.1784 13.2143C17.3537 13.2143 17.5217 13.1447 17.6456 13.0208C17.7695 12.8969 17.8391 12.7288 17.8391 12.5536V11.8929H18.4999V12.5536C18.4999 12.7288 18.5695 12.8969 18.6934 13.0208C18.8173 13.1447 18.9853 13.2143 19.1606 13.2143C19.3358 13.2143 19.5039 13.1447 19.6278 13.0208C19.7517 12.8969 19.8213 12.7288 19.8213 12.5536V11.8929C20.2507 11.894 20.6688 11.7557 21.0127 11.4987C21.3567 11.2417 21.608 10.88 21.7287 10.468C21.8494 10.0559 21.833 9.61582 21.6821 9.21387C21.5311 8.81191 21.2537 8.46984 20.8916 8.23911ZM17.1784 6.60714H19.1606C19.3358 6.60714 19.5039 6.67675 19.6278 6.80066C19.7517 6.92457 19.8213 7.09263 19.8213 7.26786C19.8213 7.44309 19.7517 7.61115 19.6278 7.73505C19.5039 7.85896 19.3358 7.92857 19.1606 7.92857H17.1784V6.60714ZM19.8213 10.5714H17.1784V9.25H19.8213C19.9965 9.25 20.1646 9.31961 20.2885 9.44352C20.4124 9.56743 20.482 9.73548 20.482 9.91072C20.482 10.0859 20.4124 10.254 20.2885 10.3779C20.1646 10.5018 19.9965 10.5714 19.8213 10.5714Z" fill="#CBFB45"/>
</g>
<defs>
<clipPath id="clip0_41_940">
<rect width="37" height="37" fill="white"/>
</clipPath>
</defs>
</svg>
