<svg width="36" height="36" viewBox="0 0 36 36" fill="none" xmlns="http://www.w3.org/2000/svg">
<g clip-path="url(#clip0_41_956)">
<path d="M35.6207 7.77222L18.2636 0.0579317C18.1807 0.0206775 18.0909 0.00141525 18 0.00141525C17.9091 0.00141525 17.8193 0.0206775 17.7364 0.0579317L0.379286 7.77222C0.266496 7.82292 0.170724 7.90507 0.10345 8.00883C0.036177 8.1126 0.000258018 8.23356 0 8.35722L0 12.2144C0 12.3849 0.0677294 12.5484 0.188289 12.6689C0.308848 12.7895 0.472361 12.8572 0.642857 12.8572H35.3571C35.5276 12.8572 35.6912 12.7895 35.8117 12.6689C35.9323 12.5484 36 12.3849 36 12.2144V8.35722C35.9997 8.23356 35.9638 8.1126 35.8965 8.00883C35.8293 7.90507 35.7335 7.82292 35.6207 7.77222ZM34.7143 11.5715H1.28571V8.77507L18 1.34365L34.7143 8.77507V11.5715Z" fill="#CBFB45"/>
<path opacity="0.5" d="M18.0004 1.34357L1.28613 8.775V11.5714H34.7147V8.775L18.0004 1.34357ZM18.0004 9.64286C17.4918 9.64286 16.9947 9.49204 16.5718 9.20949C16.1489 8.92694 15.8194 8.52534 15.6247 8.05547C15.4301 7.5856 15.3792 7.06858 15.4784 6.56977C15.5776 6.07096 15.8225 5.61277 16.1821 5.25315C16.5418 4.89353 17 4.64863 17.4988 4.54941C17.9976 4.45019 18.5146 4.50111 18.9845 4.69574C19.4543 4.89036 19.8559 5.21995 20.1385 5.64282C20.421 6.06569 20.5718 6.56285 20.5718 7.07143C20.5718 7.75341 20.3009 8.40747 19.8187 8.8897C19.3365 9.37194 18.6824 9.64286 18.0004 9.64286Z" fill="#CBFB45"/>
<path d="M35.3571 31.5H0.642857C0.472361 31.5 0.308848 31.5677 0.188289 31.6883C0.0677294 31.8088 0 31.9724 0 32.1429L0 35.3571C0 35.5276 0.0677294 35.6912 0.188289 35.8117C0.308848 35.9323 0.472361 36 0.642857 36H35.3571C35.5276 36 35.6912 35.9323 35.8117 35.8117C35.9323 35.6912 36 35.5276 36 35.3571V32.1429C36 31.9724 35.9323 31.8088 35.8117 31.6883C35.6912 31.5677 35.5276 31.5 35.3571 31.5ZM34.7143 34.7143H1.28571V32.7857H34.7143V34.7143Z" fill="#CBFB45"/>
<path opacity="0.5" d="M34.7147 32.7857H1.28613V34.7143H34.7147V32.7857Z" fill="#CBFB45"/>
<path d="M24.429 28.9286V28.2857H11.5718V28.9286C11.5718 29.0991 11.5041 29.2626 11.3836 29.3831C11.263 29.5037 11.0995 29.5714 10.929 29.5714H25.0718C24.9014 29.5714 24.7378 29.5037 24.6173 29.3831C24.4967 29.2626 24.429 29.0991 24.429 28.9286ZM34.0718 28.2857H1.92899C1.75849 28.2857 1.59498 28.3534 1.47442 28.474C1.35386 28.5946 1.28613 28.7581 1.28613 28.9286V32.1429C1.28613 32.3134 1.35386 32.4769 1.47442 32.5974C1.59498 32.718 1.75849 32.7857 1.92899 32.7857H34.0718C34.2423 32.7857 34.4059 32.718 34.5264 32.5974C34.647 32.4769 34.7147 32.3134 34.7147 32.1429V28.9286C34.7147 28.7581 34.647 28.5946 34.5264 28.474C34.4059 28.3534 34.2423 28.2857 34.0718 28.2857ZM2.57185 31.5V29.5714H33.429V31.5H2.57185ZM24.429 28.9286V28.2857H11.5718V28.9286C11.5718 29.0991 11.5041 29.2626 11.3836 29.3831C11.263 29.5037 11.0995 29.5714 10.929 29.5714H25.0718C24.9014 29.5714 24.7378 29.5037 24.6173 29.3831C24.4967 29.2626 24.429 29.0991 24.429 28.9286Z" fill="#CBFB45"/>
<path opacity="0.5" d="M33.4284 29.5714H2.57129V31.5H33.4284V29.5714Z" fill="#CBFB45"/>
<path d="M9.64272 25.155C9.43331 25.0976 9.21698 25.0695 8.99986 25.0715H5.14272C4.9256 25.0695 4.70926 25.0976 4.49986 25.155C3.94821 25.2975 3.45948 25.6191 3.11041 26.0694C2.76135 26.5197 2.57171 27.0731 2.57129 27.6429V28.9286C2.57129 29.0991 2.63902 29.2626 2.75958 29.3832C2.88014 29.5037 3.04365 29.5715 3.21415 29.5715H10.9284C11.0989 29.5715 11.2624 29.5037 11.383 29.3832C11.5036 29.2626 11.5713 29.0991 11.5713 28.9286V27.6429C11.5709 27.0731 11.3812 26.5197 11.0322 26.0694C10.6831 25.6191 10.1944 25.2975 9.64272 25.155ZM3.857 28.2857V27.6429C3.857 27.3019 3.99246 26.9749 4.23358 26.7337C4.4747 26.4926 4.80172 26.3572 5.14272 26.3572H8.99986C9.34085 26.3572 9.66788 26.4926 9.909 26.7337C10.1501 26.9749 10.2856 27.3019 10.2856 27.6429V28.2857H3.857Z" fill="#CBFB45"/>
<path d="M10.9284 11.5714H3.21415C3.04365 11.5714 2.88014 11.6392 2.75958 11.7597C2.63902 11.8803 2.57129 12.0438 2.57129 12.2143V13.5C2.57171 14.0697 2.76135 14.6232 3.11041 15.0735C3.45948 15.5238 3.94821 15.8454 4.49986 15.9879C4.70926 16.0452 4.9256 16.0734 5.14272 16.0714H8.99986C9.21698 16.0734 9.43331 16.0452 9.64272 15.9879C10.1944 15.8454 10.6831 15.5238 11.0322 15.0735C11.3812 14.6232 11.5709 14.0697 11.5713 13.5V12.2143C11.5713 12.0438 11.5036 11.8803 11.383 11.7597C11.2624 11.6392 11.0989 11.5714 10.9284 11.5714ZM10.2856 13.5C10.2856 13.841 10.1501 14.168 9.909 14.4091C9.66788 14.6503 9.34085 14.7857 8.99986 14.7857H5.14272C4.80172 14.7857 4.4747 14.6503 4.23358 14.4091C3.99246 14.168 3.857 13.841 3.857 13.5V12.8571H10.2856V13.5Z" fill="#CBFB45"/>
<path d="M31.5001 25.155C31.2907 25.0976 31.0744 25.0695 30.8573 25.0715H27.0001C26.783 25.0695 26.5667 25.0976 26.3573 25.155C25.8056 25.2975 25.3169 25.6191 24.9678 26.0694C24.6188 26.5197 24.4291 27.0731 24.4287 27.6429V28.9286C24.4287 29.0991 24.4964 29.2626 24.617 29.3832C24.7376 29.5037 24.9011 29.5715 25.0716 29.5715H32.7859C32.9564 29.5715 33.1199 29.5037 33.2404 29.3832C33.361 29.2626 33.4287 29.0991 33.4287 28.9286V27.6429C33.4283 27.0731 33.2387 26.5197 32.8896 26.0694C32.5405 25.6191 32.0518 25.2975 31.5001 25.155ZM25.7144 28.2857V27.6429C25.7144 27.3019 25.8499 26.9749 26.091 26.7337C26.3321 26.4926 26.6591 26.3572 27.0001 26.3572H30.8573C31.1983 26.3572 31.5253 26.4926 31.7664 26.7337C32.0075 26.9749 32.143 27.3019 32.143 27.6429V28.2857H25.7144Z" fill="#CBFB45"/>
<path d="M32.7859 11.5714H25.0716C24.9011 11.5714 24.7376 11.6392 24.617 11.7597C24.4964 11.8803 24.4287 12.0438 24.4287 12.2143V13.5C24.4291 14.0697 24.6188 14.6232 24.9678 15.0735C25.3169 15.5238 25.8056 15.8454 26.3573 15.9879C26.5667 16.0452 26.783 16.0734 27.0001 16.0714H30.8573C31.0744 16.0734 31.2907 16.0452 31.5001 15.9879C32.0518 15.8454 32.5405 15.5238 32.8896 15.0735C33.2387 14.6232 33.4283 14.0697 33.4287 13.5V12.2143C33.4287 12.0438 33.361 11.8803 33.2404 11.7597C33.1199 11.6392 32.9564 11.5714 32.7859 11.5714ZM32.143 13.5C32.143 13.841 32.0075 14.168 31.7664 14.4091C31.5253 14.6503 31.1983 14.7857 30.8573 14.7857H27.0001C26.6591 14.7857 26.3321 14.6503 26.091 14.4091C25.8499 14.168 25.7144 13.841 25.7144 13.5V12.8571H32.143V13.5Z" fill="#CBFB45"/>
<path d="M9 14.7857H5.14286C4.97236 14.7857 4.80885 14.8534 4.68829 14.974C4.56773 15.0946 4.5 15.2581 4.5 15.4286V25.7143C4.5 25.8848 4.56773 26.0483 4.68829 26.1689C4.80885 26.2894 4.97236 26.3571 5.14286 26.3571H9C9.1705 26.3571 9.33401 26.2894 9.45457 26.1689C9.57513 26.0483 9.64286 25.8848 9.64286 25.7143V15.4286C9.64286 15.2581 9.57513 15.0946 9.45457 14.974C9.33401 14.8534 9.1705 14.7857 9 14.7857ZM5.78571 25.0714V16.0714H8.35714V25.0714H5.78571Z" fill="#CBFB45"/>
<path d="M30.8574 14.7857H27.0003C26.8298 14.7857 26.6663 14.8534 26.5457 14.974C26.4252 15.0946 26.3574 15.2581 26.3574 15.4286V25.7143C26.3574 25.8848 26.4252 26.0483 26.5457 26.1689C26.6663 26.2894 26.8298 26.3571 27.0003 26.3571H30.8574C31.0279 26.3571 31.1914 26.2894 31.312 26.1689C31.4325 26.0483 31.5003 25.8848 31.5003 25.7143V15.4286C31.5003 15.2581 31.4325 15.0946 31.312 14.974C31.1914 14.8534 31.0279 14.7857 30.8574 14.7857ZM27.6431 25.0714V16.0714H30.2146V25.0714H27.6431Z" fill="#CBFB45"/>
<g opacity="0.5">
<path opacity="0.5" d="M24.4283 13.5V12.8571H11.5711V13.5C11.5707 14.0697 11.3811 14.6232 11.032 15.0735C10.683 15.5238 10.1942 15.8454 9.64258 15.9879V25.155C10.1942 25.2974 10.683 25.619 11.032 26.0693C11.3811 26.5196 11.5707 27.0731 11.5711 27.6429V28.2857H24.4283V27.6429C24.4287 27.0731 24.6184 26.5196 24.9674 26.0693C25.3165 25.619 25.8052 25.2974 26.3569 25.155V15.9879C25.8052 15.8454 25.3165 15.5238 24.9674 15.0735C24.6184 14.6232 24.4287 14.0697 24.4283 13.5ZM19.6069 25.0714H19.2854V25.7143C19.2854 25.8848 19.2177 26.0483 19.0971 26.1689C18.9766 26.2894 18.8131 26.3571 18.6426 26.3571C18.4721 26.3571 18.3086 26.2894 18.188 26.1689C18.0675 26.0483 17.9997 25.8848 17.9997 25.7143V25.0714H16.714V25.7143C16.714 25.8848 16.6463 26.0483 16.5257 26.1689C16.4052 26.2894 16.2416 26.3571 16.0711 26.3571C15.9007 26.3571 15.7371 26.2894 15.6166 26.1689C15.496 26.0483 15.4283 25.8848 15.4283 25.7143V25.0714H14.7854C14.6149 25.0714 14.4514 25.0037 14.3309 24.8831C14.2103 24.7626 14.1426 24.5991 14.1426 24.4286C14.1426 24.2581 14.2103 24.0946 14.3309 23.974C14.4514 23.8534 14.6149 23.7857 14.7854 23.7857V18.6429C14.6149 18.6429 14.4514 18.5751 14.3309 18.4546C14.2103 18.334 14.1426 18.1705 14.1426 18C14.1426 17.8295 14.2103 17.666 14.3309 17.5454C14.4514 17.4249 14.6149 17.3571 14.7854 17.3571H15.4283V16.7143C15.4283 16.5438 15.496 16.3803 15.6166 16.2597C15.7371 16.1392 15.9007 16.0714 16.0711 16.0714C16.2416 16.0714 16.4052 16.1392 16.5257 16.2597C16.6463 16.3803 16.714 16.5438 16.714 16.7143V17.3571H17.9997V16.7143C17.9997 16.5438 18.0675 16.3803 18.188 16.2597C18.3086 16.1392 18.4721 16.0714 18.6426 16.0714C18.8131 16.0714 18.9766 16.1392 19.0971 16.2597C19.2177 16.3803 19.2854 16.5438 19.2854 16.7143V17.3571C19.8183 17.4259 20.308 17.6863 20.6629 18.0897C21.0178 18.4931 21.2137 19.012 21.214 19.5493V19.6264C21.2182 20.088 21.074 20.5387 20.8026 20.9121C21.1307 21.1143 21.4006 21.3985 21.5854 21.7366C21.7703 22.0748 21.8639 22.4554 21.8569 22.8407C21.8518 23.4341 21.6125 24.0015 21.1911 24.4192C20.7697 24.837 20.2003 25.0714 19.6069 25.0714Z" fill="#CBFB45"/>
<path opacity="0.5" d="M20.5713 22.8214C20.5713 23.0772 20.4697 23.3224 20.2889 23.5033C20.108 23.6841 19.8627 23.7857 19.607 23.7857H16.0713V21.8571H19.607C19.8627 21.8571 20.108 21.9587 20.2889 22.1396C20.4697 22.3204 20.5713 22.5657 20.5713 22.8214Z" fill="#CBFB45"/>
<path opacity="0.5" d="M19.9284 19.5686V19.6457C19.9267 19.8907 19.8287 20.1252 19.6554 20.2984C19.4822 20.4717 19.2477 20.5697 19.0027 20.5714H16.0713V18.6428H19.0027C19.2477 18.6445 19.4822 18.7426 19.6554 18.9158C19.8287 19.0891 19.9267 19.3236 19.9284 19.5686Z" fill="#CBFB45"/>
</g>
</g>
<defs>
<clipPath id="clip0_41_956">
<rect width="36" height="36" fill="white"/>
</clipPath>
</defs>
</svg>
