<svg width="141" height="140" viewBox="0 0 141 140" fill="none" xmlns="http://www.w3.org/2000/svg">
<rect x="0.697266" width="139.884" height="140" rx="69.9419" fill="white"/>
<path d="M94.5614 75.0614H105.972C106.106 75.0614 106.241 75.0355 106.365 74.9843C106.49 74.9331 106.604 74.8577 106.699 74.7634C106.795 74.6684 106.871 74.5557 106.922 74.432C106.974 74.3083 107.001 74.1753 107 74.0413V65.8813C107 65.6108 106.892 65.3514 106.699 65.1601C106.506 64.9688 106.245 64.8613 105.972 64.8613H89.983L77.3865 36.8069C77.279 36.5682 77.1048 36.3651 76.8842 36.222C76.6641 36.0789 76.4063 36.0018 76.1427 36H65.8572C65.5918 36.0001 65.3328 36.0763 65.1104 36.2195C64.8881 36.3628 64.7121 36.5668 64.6047 36.8069L52.0172 64.8613H36.0286C35.7558 64.8613 35.4941 64.9688 35.3012 65.1601C35.1084 65.3514 35 65.6108 35 65.8813V74.0413C34.9997 74.1753 35.0261 74.3083 35.0776 74.432C35.1293 74.5557 35.205 74.6684 35.3005 74.7634C35.3961 74.8577 35.5096 74.9331 35.6346 74.9843C35.7595 75.0355 35.8934 75.0614 36.0286 75.0614H47.4388L35.096 102.565C35.0264 102.72 34.9969 102.89 35.0102 103.059C35.0234 103.228 35.0789 103.391 35.1718 103.533C35.2645 103.675 35.3917 103.793 35.5417 103.875C35.6917 103.956 35.8598 103.999 36.0308 104H45.2126C45.4776 103.999 45.7371 103.923 45.9593 103.78C46.1817 103.637 46.3573 103.433 46.4651 103.193L70.9999 48.546L95.5351 103.193C95.6425 103.433 95.8185 103.637 96.0409 103.78C96.2633 103.923 96.5222 103.999 96.7876 104H105.969C106.141 104 106.31 103.958 106.461 103.877C106.612 103.796 106.74 103.679 106.833 103.536C106.927 103.394 106.983 103.23 106.996 103.06C107.01 102.891 106.981 102.72 106.911 102.565L94.5614 75.0614Z" fill="black"/>
</svg>
