<svg width="81" height="80" viewBox="0 0 81 80" fill="none" xmlns="http://www.w3.org/2000/svg">
<rect x="0.801758" width="79.9336" height="80" rx="39.9668" fill="white"/>
<g clip-path="url(#clip0_62_989)">
<path d="M40.7696 67.5401C46.2036 67.5401 50.6086 64.9948 50.6086 61.855C50.6086 58.7152 46.2036 56.1699 40.7696 56.1699C35.3357 56.1699 30.9307 58.7152 30.9307 61.855C30.9307 64.9948 35.3357 67.5401 40.7696 67.5401Z" fill="#E6007A"/>
<path d="M64.3939 53.9889C67.1108 49.3137 67.0947 44.2511 64.3579 42.6812C61.621 41.1113 57.1999 43.6286 54.4829 48.3038C51.766 52.979 51.7821 58.0416 54.519 59.6115C57.2558 61.1814 61.6769 58.664 64.3939 53.9889Z" fill="#E6007A"/>
<path d="M40.7696 24.7035C46.2036 24.7035 50.6086 22.1582 50.6086 19.0184C50.6086 15.8786 46.2036 13.3333 40.7696 13.3333C35.3357 13.3333 30.9307 15.8786 30.9307 19.0184C30.9307 22.1582 35.3357 24.7035 40.7696 24.7035Z" fill="#E6007A"/>
<path d="M27.0581 32.5734C29.7751 27.8982 29.7575 22.8347 27.0187 21.2637C24.28 19.6927 19.8572 22.2092 17.1402 26.8844C14.4233 31.5597 14.4409 36.6232 17.1796 38.1942C19.9184 39.7651 24.3411 37.2487 27.0581 32.5734Z" fill="#E6007A"/>
<path d="M27.0206 59.6103C29.7593 58.0394 29.7769 52.9759 27.0599 48.3007C24.343 43.6255 19.9203 41.109 17.1815 42.68C14.4428 44.251 14.4252 49.3145 17.1422 53.9896C19.8591 58.6648 24.2818 61.1813 27.0206 59.6103Z" fill="#E6007A"/>
<path d="M64.3611 38.1948C67.098 36.6249 67.1141 31.5622 64.3971 26.8871C61.6801 22.2119 57.2589 19.6946 54.522 21.2645C51.7851 22.8344 51.769 27.897 54.486 32.5722C57.2029 37.2473 61.6242 39.7646 64.3611 38.1948Z" fill="#E6007A"/>
</g>
<defs>
<clipPath id="clip0_62_989">
<rect width="57.0954" height="54.2373" fill="white" transform="translate(12.2207 13.3333)"/>
</clipPath>
</defs>
</svg>
