<svg width="14" height="11" viewBox="0 0 14 11" fill="none" xmlns="http://www.w3.org/2000/svg">
<path d="M11.8516 0.91184C10.9593 0.489789 10.0024 0.17884 9.00194 0.000747078C8.98372 -0.00269006 8.96552 0.00589954 8.95613 0.0230792C8.83307 0.248701 8.69676 0.543043 8.6013 0.774395C7.52524 0.608331 6.45469 0.608331 5.40069 0.774395C5.30521 0.537901 5.16395 0.248701 5.04034 0.0230792C5.03095 0.00647274 5.01275 -0.00211687 4.99453 0.000747078C3.99461 0.178271 3.03774 0.48922 2.14488 0.91184C2.13715 0.915275 2.13052 0.921007 2.12613 0.928446C0.311145 3.72357 -0.186054 6.44999 0.0578551 9.14261C0.0589587 9.15578 0.0661324 9.16838 0.0760655 9.17639C1.27354 10.0829 2.4335 10.6332 3.57191 10.998C3.59013 11.0037 3.60944 10.9969 3.62103 10.9814C3.89032 10.6023 4.13037 10.2026 4.33619 9.78225C4.34834 9.75764 4.33675 9.72843 4.31192 9.71869C3.93116 9.5698 3.5686 9.38827 3.21984 9.18212C3.19226 9.16552 3.19005 9.12484 3.21543 9.10537C3.28882 9.04868 3.36223 8.98969 3.43231 8.93014C3.44499 8.91926 3.46265 8.91697 3.47756 8.92384C5.76875 10.0022 8.24923 10.0022 10.5134 8.92384C10.5283 8.9164 10.546 8.9187 10.5592 8.92957C10.6293 8.98913 10.7027 9.04868 10.7766 9.10537C10.802 9.12484 10.8003 9.16552 10.7728 9.18212C10.424 9.39227 10.0614 9.5698 9.68013 9.71812C9.65531 9.72786 9.64427 9.75764 9.65641 9.78225C9.86665 10.202 10.1067 10.6017 10.371 10.9808C10.3821 10.9969 10.4019 11.0037 10.4201 10.998C11.5641 10.6332 12.724 10.0829 13.9215 9.17639C13.932 9.16838 13.9386 9.15635 13.9397 9.14318C14.2316 6.03022 13.4508 3.32615 11.8698 0.929015C11.8659 0.921007 11.8593 0.915275 11.8516 0.91184ZM4.67835 7.50308C3.98854 7.50308 3.42016 6.85027 3.42016 6.04855C3.42016 5.24683 3.97752 4.59401 4.67835 4.59401C5.38468 4.59401 5.94756 5.25256 5.93651 6.04855C5.93651 6.85027 5.37916 7.50308 4.67835 7.50308ZM9.33027 7.50308C8.64048 7.50308 8.0721 6.85027 8.0721 6.04855C8.0721 5.24683 8.62944 4.59401 9.33027 4.59401C10.0366 4.59401 10.5995 5.25256 10.5885 6.04855C10.5885 6.85027 10.0366 7.50308 9.33027 7.50308Z" fill="#1F1F1F"/>
</svg>
