<svg width="24" height="24" viewBox="0 0 24 24" fill="none" xmlns="http://www.w3.org/2000/svg">
<path d="M3 12.5H21V11.5H3V12.5ZM12 20.5C7.30558 20.5 3.5 16.6944 3.5 12H2.5C2.5 17.2467 6.75329 21.5 12 21.5V20.5ZM3.5 12C3.5 7.30558 7.30558 3.5 12 3.5V2.5C6.75329 2.5 2.5 6.75329 2.5 12H3.5ZM12 3.5C16.6944 3.5 20.5 7.30558 20.5 12H21.5C21.5 6.75329 17.2467 2.5 12 2.5V3.5ZM20.5 12C20.5 16.6944 16.6944 20.5 12 20.5V21.5C17.2467 21.5 21.5 17.2467 21.5 12H20.5ZM12 20.5C11.6104 20.5 11.2016 20.3244 10.7877 19.9305C10.3712 19.5342 9.97343 18.937 9.62848 18.1609C8.93913 16.6099 8.5 14.4321 8.5 12H7.5C7.5 14.5385 7.9563 16.8607 8.71467 18.567C9.09357 19.4196 9.55769 20.1404 10.0983 20.6549C10.6415 21.1719 11.285 21.5 12 21.5V20.5ZM8.5 12C8.5 9.56793 8.93913 7.39015 9.62848 5.83911C9.97343 5.06296 10.3712 4.46581 10.7877 4.06946C11.2016 3.67557 11.6104 3.5 12 3.5V2.5C11.285 2.5 10.6415 2.82811 10.0983 3.34507C9.55769 3.85957 9.09357 4.58044 8.71467 5.43297C7.9563 7.13929 7.5 9.46151 7.5 12H8.5ZM12 3.5C12.3896 3.5 12.7984 3.67557 13.2123 4.06946C13.6288 4.46581 14.0266 5.06296 14.3715 5.83911C15.0609 7.39015 15.5 9.56793 15.5 12H16.5C16.5 9.46151 16.0437 7.13929 15.2853 5.43297C14.9064 4.58044 14.4423 3.85957 13.9017 3.34507C13.3585 2.82811 12.715 2.5 12 2.5V3.5ZM15.5 12C15.5 14.4321 15.0609 16.6099 14.3715 18.1609C14.0266 18.937 13.6288 19.5342 13.2123 19.9305C12.7984 20.3244 12.3896 20.5 12 20.5V21.5C12.715 21.5 13.3585 21.1719 13.9017 20.6549C14.4423 20.1404 14.9064 19.4196 15.2853 18.567C16.0437 16.8607 16.5 14.5385 16.5 12H15.5Z" fill="white"/>
</svg>
