<svg width="12" height="12" viewBox="0 0 12 12" fill="none" xmlns="http://www.w3.org/2000/svg">
<path d="M10.2246 10.2248H8.44655V7.44025C8.44655 6.77625 8.4347 5.92147 7.52179 5.92147C6.59574 5.92147 6.45405 6.64493 6.45405 7.39191V10.2246H4.67601V4.49845H6.38292V5.28099H6.40682C6.57764 4.98891 6.82448 4.74863 7.12105 4.58575C7.41762 4.42286 7.75282 4.34346 8.09094 4.35602C9.89305 4.35602 10.2253 5.54141 10.2253 7.08352L10.2246 10.2248ZM2.66981 3.71572C2.46574 3.71576 2.26623 3.65528 2.09653 3.54193C1.92683 3.42858 1.79456 3.26745 1.71644 3.07891C1.63831 2.89038 1.61783 2.68292 1.65761 2.48275C1.69738 2.28259 1.79562 2.09871 1.9399 1.95438C2.08418 1.81005 2.26801 1.71174 2.46815 1.67189C2.6683 1.63204 2.87576 1.65244 3.06431 1.7305C3.25287 1.80857 3.41404 1.94079 3.52744 2.11046C3.64085 2.28012 3.7014 2.47961 3.70144 2.68369C3.70146 2.81919 3.6748 2.95337 3.62296 3.07857C3.57113 3.20377 3.49516 3.31753 3.39936 3.41337C3.30357 3.5092 3.18983 3.58523 3.06465 3.6371C2.93948 3.68898 2.80531 3.71569 2.66981 3.71572ZM3.55882 10.2248H1.77895V4.49845H3.55882V10.2248ZM11.111 0.000817579H0.885495C0.653405 -0.00180164 0.429759 0.0878317 0.26372 0.250021C0.0976811 0.412211 0.00283253 0.633687 0 0.865782V11.134C0.00273558 11.3663 0.0975285 11.5879 0.263562 11.7502C0.429595 11.9126 0.65329 12.0024 0.885495 11.9999H11.111C11.3437 12.0028 11.568 11.9133 11.7347 11.7509C11.9014 11.5886 11.9968 11.3667 12 11.134V0.865041C11.9967 0.632486 11.9012 0.410758 11.7345 0.248572C11.5678 0.0863865 11.3435 -0.00299072 11.111 7.64109e-05" fill="#1F1F1F"/>
</svg>
