<svg width="32" height="32" viewBox="0 0 32 32" fill="none" xmlns="http://www.w3.org/2000/svg">
<path d="M28.4002 29.3334C28.1602 29.3334 27.9202 29.24 27.7468 29.0667L25.2668 26.5867C24.9068 26.2267 24.9068 25.64 25.2668 25.2667C25.6268 24.9067 26.2135 24.9067 26.5868 25.2667L29.0668 27.7467C29.4268 28.1067 29.4268 28.6934 29.0668 29.0667C28.8802 29.24 28.6402 29.3334 28.4002 29.3334Z" fill="#8C8C8C"/>
<path d="M15.3334 2.66663C8.34675 2.66663 2.66675 8.34663 2.66675 15.3333C2.66675 22.32 8.34675 28 15.3334 28C22.3201 28 28.0001 22.32 28.0001 15.3333C28.0001 8.34663 22.3201 2.66663 15.3334 2.66663ZM18.6667 16.6H12.0001C11.4534 16.6 11.0001 16.1466 11.0001 15.6C11.0001 15.0533 11.4534 14.6 12.0001 14.6H18.6667C19.2134 14.6 19.6667 15.0533 19.6667 15.6C19.6667 16.1466 19.2134 16.6 18.6667 16.6Z" fill="#8C8C8C"/>
</svg>
