<svg width="32" height="32" viewBox="0 0 32 32" fill="none" xmlns="http://www.w3.org/2000/svg">
<path d="M28.4002 29.3334C28.1602 29.3334 27.9202 29.24 27.7468 29.0667L25.2668 26.5867C24.9068 26.2267 24.9068 25.64 25.2668 25.2667C25.6268 24.9067 26.2135 24.9067 26.5868 25.2667L29.0668 27.7467C29.4268 28.1067 29.4268 28.6934 29.0668 29.0667C28.8802 29.24 28.6402 29.3334 28.4002 29.3334Z" fill="white"/>
<path d="M15.3334 2.66663C8.34675 2.66663 2.66675 8.34663 2.66675 15.3333C2.66675 22.32 8.34675 28 15.3334 28C22.3201 28 28.0001 22.32 28.0001 15.3333C28.0001 8.34663 22.3201 2.66663 15.3334 2.66663ZM18.9334 16.6H16.6001V18.9333C16.6001 19.48 16.1467 19.9333 15.6001 19.9333C15.0534 19.9333 14.6001 19.48 14.6001 18.9333V16.6H12.2667C11.7201 16.6 11.2667 16.1466 11.2667 15.6C11.2667 15.0533 11.7201 14.6 12.2667 14.6H14.6001V12.2666C14.6001 11.72 15.0534 11.2666 15.6001 11.2666C16.1467 11.2666 16.6001 11.72 16.6001 12.2666V14.6H18.9334C19.4801 14.6 19.9334 15.0533 19.9334 15.6C19.9334 16.1466 19.4801 16.6 18.9334 16.6Z" fill="white"/>
</svg>
