<svg width="14" height="11" viewBox="0 0 14 11" fill="none" xmlns="http://www.w3.org/2000/svg">
<path fill-rule="evenodd" clip-rule="evenodd" d="M0.967204 4.75338C4.72002 3.18801 7.22859 2.17624 8.49291 1.67991C12.0651 0.267259 12.8076 0.0190899 13.2893 0C13.3896 0 13.6305 0.01909 13.791 0.133629C13.9114 0.229079 13.9516 0.362708 13.9716 0.458157C13.9917 0.553606 14.0118 0.763595 13.9917 0.935404C13.791 2.86348 12.9682 7.57868 12.5267 9.73583C12.3461 10.6521 11.9848 10.9576 11.6437 10.9958C10.9011 11.053 10.3191 10.5185 9.59668 10.0794C8.47284 9.37312 7.83065 8.93406 6.72688 8.24682C5.46256 7.44505 6.28537 7.00598 7.00783 6.29965C7.18845 6.10876 10.4998 3.26437 10.56 2.99711C10.56 2.95893 10.58 2.84439 10.4998 2.78712C10.4195 2.72985 10.3191 2.74894 10.2389 2.76803C10.1185 2.78712 8.31229 3.93251 4.8003 6.18512C4.27851 6.52873 3.81694 6.68145 3.3955 6.68145C2.93392 6.68145 2.05091 6.43328 1.38864 6.2233C0.585902 5.97513 -0.0562915 5.8415 0.00391411 5.42152C0.0440512 5.21153 0.365148 4.98245 0.967204 4.75338Z" fill="#1F1F1F"/>
</svg>
