<svg xmlns="http://www.w3.org/2000/svg" width="141" height="26" viewBox="0 0 141 26" fill="none"><path d="M28.4575 7.13494C23.3353 7.13494 19.333 10.9924 19.333 16.1564C19.333 21.3205 23.2342 25.145 28.4575 25.145C33.6808 25.145 37.6498 21.2545 37.6498 16.1234C37.6498 11.0254 33.7487 7.13494 28.4575 7.13494ZM28.4921 21.4233C25.5752 21.4233 23.4377 19.1759 23.4377 16.1577C23.4377 13.1052 25.5406 10.8591 28.4575 10.8591C31.409 10.8591 33.5452 13.1395 33.5452 16.1577C33.5452 19.1759 31.409 21.4233 28.4921 21.4233ZM38.7685 11.0597H41.3129V24.811H45.383V7.47013H38.7685V11.0597ZM9.0899 10.8578C11.2274 10.8578 12.9233 12.1656 13.567 14.1109H17.8752C17.0945 9.95254 13.6349 7.13494 9.1245 7.13494C4.0023 7.13494 0 10.9924 0 16.1577C0 21.323 3.9012 25.1462 9.1245 25.1462C13.5338 25.1462 17.0612 22.3287 17.8419 18.136H13.567C12.9565 20.0812 11.2606 21.4233 9.1232 21.4233C6.1717 21.4233 4.1034 19.1759 4.1034 16.1577C4.1047 13.1052 6.1397 10.8578 9.0899 10.8578ZM116.103 14.4804L113.118 14.0448C111.694 13.8442 110.676 13.3744 110.676 12.2672C110.676 11.0597 112 10.4565 113.797 10.4565C115.764 10.4565 117.02 11.2946 117.291 12.6697H121.225C120.784 9.18174 118.07 7.13623 113.899 7.13623C109.591 7.13623 106.742 9.31633 106.742 12.4018C106.742 15.3527 108.608 17.0643 112.372 17.6001L115.357 18.0357C116.816 18.2363 117.63 18.8077 117.63 19.8806C117.63 21.2557 116.206 21.8259 114.238 21.8259C111.83 21.8259 110.473 20.8532 110.269 19.3778H106.267C106.641 22.7655 109.32 25.1462 114.204 25.1462C118.648 25.1462 121.598 23.1337 121.598 19.6787C121.598 16.5932 119.462 14.9832 116.103 14.4804ZM43.348 0.326534C41.8556 0.326534 40.7357 1.39944 40.7357 2.87494C40.7357 4.35034 41.8543 5.42334 43.348 5.42334C44.8404 5.42334 45.9603 4.35034 45.9603 2.87494C45.9603 1.39944 44.8404 0.326534 43.348 0.326534ZM103.079 13.4074C103.079 9.65153 100.772 7.13623 95.888 7.13623C91.275 7.13623 88.698 9.45093 88.188 13.0062H92.225C92.429 11.6311 93.514 10.4908 95.82 10.4908C97.89 10.4908 98.908 11.3962 98.908 12.5034C98.908 13.9458 97.041 14.314 94.735 14.5489C91.615 14.8841 87.748 15.9571 87.748 19.9822C87.748 23.1019 90.089 25.1132 93.82 25.1132C96.737 25.1132 98.568 23.9057 99.485 21.9935C99.621 23.7038 100.909 24.811 102.708 24.811H105.082V21.2227H103.08V13.4074H103.079ZM99.077 17.7677C99.077 20.0825 97.041 21.7928 94.565 21.7928C93.038 21.7928 91.749 21.1554 91.749 19.8146C91.749 18.1042 93.819 17.6344 95.718 17.4338C97.55 17.2662 98.567 16.8637 99.077 16.0917V17.7677ZM77.47 7.13494C75.197 7.13494 73.298 8.07454 71.941 9.65034V0.158936H67.871V24.811H71.873V22.5306C73.23 24.1736 75.164 25.1462 77.47 25.1462C82.355 25.1462 86.052 21.323 86.052 16.1577C86.052 10.9924 82.287 7.13494 77.47 7.13494ZM76.86 21.4233C73.943 21.4233 71.806 19.1759 71.806 16.1577C71.806 13.1395 73.976 10.8591 76.893 10.8591C79.845 10.8591 81.913 13.1065 81.913 16.1577C81.913 19.1759 79.777 21.4233 76.86 21.4233ZM58.136 7.13494C55.49 7.13494 53.76 8.20784 52.743 9.71764V7.47013H48.706V24.8098H52.776V15.3857C52.776 12.7357 54.472 10.8578 56.982 10.8578C59.323 10.8578 60.78 12.5008 60.78 14.8829V24.811H64.85V14.5819C64.852 10.2204 62.58 7.13494 58.136 7.13494ZM141 15.5876C141 10.6241 137.337 7.13623 132.418 7.13623C127.195 7.13623 123.362 11.0267 123.362 16.1577C123.362 21.5579 127.466 25.1462 132.486 25.1462C136.726 25.1462 140.05 22.6639 140.898 19.1429H136.657C136.047 20.6856 134.554 21.5579 132.553 21.5579C129.94 21.5579 127.973 19.9479 127.533 17.1303H140.999V15.5876H141ZM127.771 14.2455C128.416 11.8304 130.247 10.6572 132.35 10.6572C134.657 10.6572 136.42 11.965 136.827 14.2455H127.771Z" fill="#F3F3F3"></path></svg>