<svg xmlns="http://www.w3.org/2000/svg" width="136" height="26" viewBox="0 0 136 26" fill="none"><path d="M9.47902 9.37197C11.4118 9.37197 12.9669 9.96197 14.1462 11.14C15.3443 12.32 15.9433 14.068 15.9433 16.386V25.463H11.4216V17.093C11.4216 15.836 11.1502 14.903 10.6092 14.293C10.0682 13.665 9.28623 13.351 8.26131 13.351C7.12131 13.351 6.21344 13.714 5.53672 14.441C4.86 15.148 4.52164 16.209 4.52164 17.624V25.464H0V9.60697H4.31902V11.464C4.91902 10.796 5.66262 10.284 6.5518 9.93097C7.44 9.55797 8.41574 9.37097 9.47902 9.37097V9.37197Z" fill="#F3F3F3"></path><path d="M29.2279 22.015C30.0393 22.015 30.7544 21.897 31.3721 21.661C32.0324 21.391 32.6335 20.9907 33.1407 20.483L35.5466 23.135C34.078 24.845 31.9328 25.699 29.1118 25.699C27.3531 25.699 25.797 25.355 24.4446 24.668C23.0921 23.96 22.0485 22.988 21.3138 21.75C20.579 20.512 20.2121 19.107 20.2121 17.536C20.2121 15.983 20.5702 14.588 21.2843 13.351C21.9952 12.1164 23.0289 11.1063 24.2705 10.433C25.5462 9.72605 26.9754 9.37305 28.561 9.37305C30.0492 9.37305 31.4016 9.69605 32.6193 10.345C33.8278 10.9652 34.8344 11.9271 35.518 13.115C36.2518 14.313 36.6197 15.738 36.6197 17.388L25.082 19.658C25.4105 20.443 25.9229 21.033 26.6184 21.426C27.3334 21.819 28.2029 22.016 29.2279 22.016V22.015ZM28.561 12.85C27.42 12.85 26.4934 13.223 25.7774 13.97C25.0633 14.716 24.6856 15.748 24.6472 17.064L32.2426 15.561C32.0506 14.7667 31.5882 14.067 30.9374 13.586C30.2803 13.096 29.4885 12.85 28.561 12.85V12.85Z" fill="#F3F3F3"></path><path d="M56.5298 9.60806V25.4631H52.2403V23.5771C51.6477 24.2601 50.9156 24.8034 50.0951 25.1691C49.2403 25.5273 48.3235 25.7075 47.399 25.6991C45.3502 25.6991 43.7272 25.0991 42.5292 23.9011C41.3311 22.7031 40.7311 20.9251 40.7311 18.5671V9.60706H45.2538V17.8891C45.2538 20.4431 46.3062 21.7211 48.4131 21.7211C49.4951 21.7211 50.3656 21.3671 51.0226 20.6601C51.6797 19.9331 52.0082 18.8621 52.0082 17.4471V9.60706H56.5298V9.60806Z" fill="#F3F3F3"></path><path d="M71.2711 24.697C70.8265 25.031 70.2757 25.287 69.6187 25.463C68.9637 25.6222 68.2924 25.7015 67.619 25.699C65.7442 25.699 64.3042 25.218 63.299 24.255C62.2947 23.292 61.7921 21.878 61.7921 20.011V6.10095H66.3138V9.96095H70.1695V13.498H66.3138V19.952C66.3138 20.62 66.478 21.141 66.8065 21.514C67.1351 21.868 67.6092 22.044 68.2279 22.044C68.9233 22.044 69.542 21.848 70.0829 21.455L71.2711 24.697V24.697Z" fill="#F3F3F3"></path><path d="M79.3042 11.6999C79.8452 10.9339 80.5692 10.3549 81.478 9.96195C82.4056 9.56895 83.4688 9.37195 84.6669 9.37195V13.6159C84.3292 13.5856 83.9907 13.5659 83.6518 13.5569C82.3574 13.5569 81.3423 13.9299 80.6085 14.6769C79.8738 15.4039 79.5069 16.5039 79.5069 17.9769V25.4629H74.9852V9.60795H79.3033V11.6999H79.3042Z" fill="#F3F3F3"></path><path d="M88.5148 9.60803H93.0374V25.463H88.5148V9.60803Z" fill="#F3F3F3"></path><path d="M107.873 9.37197C109.805 9.37197 111.361 9.96197 112.539 11.14C113.737 12.32 114.337 14.068 114.337 16.386V25.463H109.815V17.093C109.815 15.836 109.544 14.903 109.003 14.293C108.462 13.665 107.679 13.351 106.655 13.351C105.515 13.351 104.607 13.714 103.93 14.441C103.254 15.148 102.916 16.209 102.916 17.624V25.464H98.3931V9.60697H102.713V11.464C103.312 10.796 104.056 10.284 104.945 9.93097C105.834 9.55797 106.81 9.37097 107.873 9.37097V9.37197Z" fill="#F3F3F3"></path><path d="M127.186 25.7C125.544 25.7 124.065 25.355 122.751 24.668C121.457 23.96 120.442 22.988 119.708 21.75C118.973 20.512 118.606 19.107 118.606 17.536C118.606 15.964 118.973 14.559 119.708 13.321C120.442 12.084 121.457 11.121 122.751 10.433C124.065 9.72605 125.544 9.37305 127.186 9.37305C128.829 9.37305 130.297 9.72605 131.593 10.433C132.887 11.121 133.902 12.083 134.636 13.321C135.371 14.559 135.738 15.964 135.738 17.536C135.738 19.107 135.371 20.512 134.636 21.75C133.902 22.988 132.887 23.96 131.593 24.668C130.297 25.355 128.829 25.699 127.186 25.699V25.7ZM127.186 21.927C128.346 21.927 129.293 21.534 130.027 20.747C130.78 19.942 131.158 18.872 131.158 17.536C131.158 16.2 130.78 15.139 130.027 14.353C129.293 13.547 128.346 13.144 127.186 13.144C126.027 13.144 125.07 13.547 124.316 14.353C123.563 15.139 123.186 16.2 123.186 17.536C123.186 18.872 123.563 19.942 124.316 20.748C125.07 21.534 126.027 21.927 127.186 21.927Z" fill="#F3F3F3"></path><path d="M90.7456 0.780029L94.3721 4.46703L90.7456 8.15303L87.119 4.46703L90.7456 0.780029Z" fill="#F3F3F3"></path></svg>