<svg xmlns="http://www.w3.org/2000/svg" width="124" height="28" viewBox="0 0 124 28" fill="none"><path d="M18.6947 9.33596V0.00805664H0V18.6639H9.3474V9.33596H18.6947Z" fill="#F3F3F3"></path><path d="M18.6945 9.33618V18.6641H9.3472V27.9921H28.0419V9.33618H18.6945Z" fill="#F3F3F3"></path><path d="M104.535 9.4917H100.433V24.0018H104.535H106.301V22.2399H104.535V9.4917Z" fill="#F3F3F3"></path><path d="M102.457 8.40329C103.652 8.40329 104.638 7.41869 104.638 6.22679C104.638 5.03489 103.652 4.05029 102.457 4.05029C101.263 4.05029 100.276 5.03489 100.276 6.22679C100.276 7.41869 101.263 8.40329 102.457 8.40329Z" fill="#F3F3F3"></path><path d="M121.568 22.2398V14.5701C121.568 12.9118 121.153 11.5645 120.27 10.6317C119.387 9.69886 118.193 9.18066 116.635 9.18066C116.115 9.18066 115.648 9.23247 115.233 9.38797C114.817 9.49157 114.454 9.69887 114.09 9.90617C113.727 10.1135 113.415 10.3726 113.155 10.6317C112.896 10.8908 112.636 11.2017 112.376 11.5126V9.43977H108.274V23.9499H112.376V15.9175C112.376 14.9329 112.584 14.2074 113.051 13.6892C113.519 13.1709 114.142 12.9637 114.921 12.9637C115.7 12.9637 116.323 13.2228 116.79 13.6892C117.206 14.2074 117.465 14.9329 117.465 15.9175V24.0017H121.568H123.334V22.2398H121.568Z" fill="#F3F3F3"></path><path d="M68.859 11.0979C68.184 10.4242 67.353 9.90599 66.366 9.49139C65.432 9.12869 64.393 8.92139 63.251 8.92139C62.108 8.92139 61.07 9.12869 60.135 9.49139C59.2 9.90599 58.369 10.4242 57.642 11.0979C56.915 11.7716 56.396 12.6007 55.98 13.4817C55.565 14.4145 55.409 15.3473 55.409 16.3837V16.4356C55.409 17.472 55.617 18.4566 55.98 19.3894C56.396 20.3222 56.915 21.0995 57.642 21.7732C58.317 22.4469 59.148 22.9651 60.135 23.3797C61.07 23.7424 62.108 23.9497 63.251 23.9497C64.393 23.9497 65.432 23.7424 66.366 23.3797C67.301 22.9651 68.132 22.4469 68.859 21.7732C69.586 21.0995 70.105 20.2704 70.521 19.3894C70.936 18.4566 71.092 17.5238 71.092 16.4356V16.3837C71.092 15.3473 70.884 14.3627 70.521 13.4299C70.105 12.6007 69.534 11.7716 68.859 11.0979ZM67.041 16.5392C67.041 17.0574 66.938 17.5756 66.782 18.042C66.626 18.5084 66.366 18.923 66.055 19.2858C65.743 19.6485 65.328 19.9076 64.86 20.1149C64.393 20.3222 63.874 20.4258 63.303 20.4258C62.731 20.4258 62.212 20.3222 61.745 20.1149C61.277 19.9076 60.862 19.5967 60.55 19.2339C60.187 18.8712 59.927 18.4566 59.771 17.9902C59.615 17.5238 59.512 17.0056 59.512 16.4874V16.4356C59.512 15.9173 59.615 15.3991 59.771 14.9327C59.927 14.4663 60.187 14.0517 60.498 13.689C60.81 13.3262 61.225 13.0671 61.693 12.8598C62.16 12.6526 62.679 12.5489 63.251 12.5489C63.822 12.5489 64.341 12.6526 64.808 12.8598C65.276 13.0671 65.691 13.3781 66.003 13.7408C66.366 14.1036 66.626 14.5181 66.782 14.9845C66.938 15.4509 67.041 15.9692 67.041 16.4874V16.5392Z" fill="#F3F3F3"></path><path d="M86.463 11.0979C85.788 10.4242 84.957 9.90599 83.97 9.49139C83.036 9.12869 81.997 8.92139 80.855 8.92139C79.712 8.92139 78.674 9.12869 77.739 9.49139C76.804 9.90599 75.973 10.4242 75.246 11.0979C74.519 11.7716 74 12.6007 73.584 13.4817C73.169 14.4145 73.013 15.3473 73.013 16.3837V16.4356C73.013 17.472 73.221 18.4566 73.584 19.3894C74 20.3222 74.519 21.0995 75.246 21.7732C75.921 22.4469 76.752 22.9651 77.739 23.3797C78.674 23.7424 79.712 23.9497 80.855 23.9497C81.997 23.9497 83.036 23.7424 83.97 23.3797C84.905 22.9651 85.736 22.4469 86.463 21.7732C87.19 21.0995 87.709 20.2704 88.125 19.3894C88.54 18.4566 88.696 17.5238 88.696 16.4356V16.3837C88.696 15.3473 88.488 14.3627 88.125 13.4299C87.709 12.6007 87.19 11.7716 86.463 11.0979ZM84.645 16.5392C84.645 17.0574 84.542 17.5756 84.386 18.042C84.23 18.5084 83.97 18.923 83.659 19.2858C83.347 19.6485 82.932 19.9076 82.464 20.1149C81.997 20.3222 81.478 20.4258 80.907 20.4258C80.335 20.4258 79.816 20.3222 79.349 20.1149C78.881 19.9076 78.466 19.5967 78.154 19.2339C77.791 18.8712 77.531 18.4566 77.375 17.9902C77.219 17.5238 77.116 17.0056 77.116 16.4874V16.4356C77.116 15.9173 77.219 15.3991 77.375 14.9327C77.531 14.4663 77.791 14.0517 78.102 13.689C78.414 13.3262 78.829 13.0671 79.297 12.8598C79.764 12.6526 80.283 12.5489 80.855 12.5489C81.426 12.5489 81.945 12.6526 82.412 12.8598C82.88 13.0671 83.295 13.3781 83.607 13.7408C83.97 14.1036 84.23 14.5181 84.386 14.9845C84.542 15.4509 84.645 15.9692 84.645 16.4874V16.5392Z" fill="#F3F3F3"></path><path d="M51.514 6.90037C50.891 6.33037 50.112 5.86397 49.229 5.55307C48.347 5.24207 47.308 5.08667 46.166 5.08667H38.48V22.2397H36.7144V24.0016H38.48H42.634V18.3531H45.802C46.841 18.3531 47.879 18.1976 48.814 17.9385C49.749 17.6794 50.58 17.2648 51.255 16.6948C51.93 16.1247 52.501 15.451 52.916 14.6219C53.332 13.7927 53.488 12.8081 53.488 11.7199V11.668C53.488 10.6834 53.332 9.80247 52.968 9.02507C52.605 8.19597 52.138 7.47047 51.514 6.90037ZM49.229 11.7717C49.229 12.6008 48.918 13.2745 48.347 13.7927C47.775 14.3628 46.945 14.6219 45.906 14.6219H42.582V8.86967H45.802C46.841 8.86967 47.672 9.12877 48.295 9.59517C48.918 10.0616 49.178 10.7871 49.178 11.7199V11.7717H49.229Z" fill="#F3F3F3"></path><path d="M92.435 22.2396H90.669V24.0015H92.435H96.538V4.3092H92.435V22.2396Z" fill="#F3F3F3"></path></svg>