<svg xmlns="http://www.w3.org/2000/svg" width="108" height="33" viewBox="0 0 108 33" fill="none"><path d="M4.565 12.748C4.565 13.334 4.891 13.796 5.533 14.137C6.177 14.477 6.963 14.771 7.89 15.017C8.816 15.261 9.747 15.552 10.686 15.879C11.626 16.207 12.416 16.769 13.062 17.551C13.705 18.337 14.029 19.327 14.029 20.521C14.029 22.21 13.376 23.533 12.077 24.495C10.774 25.457 9.142 25.938 7.171 25.938C5.436 25.938 3.948 25.575 2.707 24.848C1.466 24.124 0.56 23.113 0 21.823L3.266 19.921C3.875 21.61 5.177 22.452 7.171 22.452C9.164 22.452 10.161 21.797 10.161 20.485C10.161 19.921 9.835 19.466 9.192 19.113C8.549 18.759 7.762 18.463 6.836 18.218C5.89289 17.9665 4.95986 17.6786 4.039 17.355C3.11313 17.0371 2.29183 16.4721 1.664 15.721C1.02 14.954 0.696 13.99 0.696 12.814C0.696 11.197 1.31 9.89398 2.546 8.90898C3.776 7.92498 5.303 7.43298 7.133 7.43298C8.588 7.43298 9.881 7.75798 11.021 8.39998C12.1363 9.02322 13.0457 9.95801 13.638 11.09L10.438 12.885C9.828 11.549 8.728 10.879 7.132 10.879C6.405 10.879 5.795 11.038 5.305 11.352C4.815 11.672 4.565 12.138 4.565 12.749V12.748Z" fill="#F3F3F3"></path><path d="M37.083 7.89197H41.092L35.57 25.476H31.841L28.182 13.624L24.491 25.476H20.762L15.24 7.89197H19.25L22.66 20.023L26.352 7.89297H29.975L33.635 20.023L37.083 7.89297V7.89197Z" fill="#F3F3F3"></path><path d="M73.897 7.43398C76.31 7.43398 78.375 8.33198 80.084 10.124C81.793 11.918 82.65 14.103 82.65 16.682C82.65 19.284 81.793 21.474 80.084 23.258C78.373 25.042 76.306 25.929 73.897 25.929C71.227 25.929 69.173 24.944 67.743 22.973V32.503H63.945V7.89298H67.743V10.423C69.177 8.43298 71.226 7.43298 73.897 7.43298V7.43398ZM69.327 20.712C70.384 21.779 71.709 22.311 73.3 22.311C74.893 22.311 76.22 21.779 77.274 20.712C78.332 19.645 78.856 18.302 78.856 16.684C78.856 15.067 78.33 13.727 77.274 12.656C76.22 11.589 74.895 11.057 73.3 11.057C71.706 11.057 70.38 11.589 69.326 12.656C68.273 13.723 67.745 15.066 67.745 16.684C67.745 18.301 68.273 19.645 69.326 20.712H69.327Z" fill="#F3F3F3"></path><path d="M89.564 25.1239C89.323 25.3733 89.0334 25.5705 88.7131 25.7034C88.3929 25.8364 88.0487 25.9022 87.702 25.8969C87.3553 25.902 87.0113 25.836 86.691 25.7031C86.3708 25.5702 86.0812 25.3731 85.84 25.1239C85.5898 24.8834 85.3917 24.594 85.258 24.2737C85.1244 23.9534 85.058 23.609 85.063 23.2619C85.063 22.5349 85.313 21.9139 85.817 21.3989C86.323 20.8809 86.951 20.6219 87.698 20.6219C88.425 20.6219 89.046 20.8809 89.561 21.3989C90.077 21.9159 90.334 22.5349 90.334 23.2619C90.3401 23.6085 90.2748 23.9526 90.1424 24.2729C90.0099 24.5932 89.8131 24.8829 89.564 25.1239Z" fill="#F3F3F3"></path><path d="M107.998 7.89195V25.476H104.196V11.55H98.36V25.48H94.562V11.55H91.892V7.89195H94.562V7.53795C94.564 2.78195 97.209 0.402954 102.512 0.402954C103.753 0.402954 105.052 0.555954 106.416 0.857954V4.33995C105.123 4.14942 103.818 4.05582 102.512 4.05995C101.104 4.05995 100.06 4.31795 99.382 4.83195C98.701 5.34895 98.364 6.25295 98.364 7.53895V7.89295H108V7.89095H107.998V7.89195Z" fill="#F3F3F3"></path><path fill-rule="evenodd" clip-rule="evenodd" d="M60.946 18.747C61.18 17.93 61.306 17.067 61.306 16.175C61.306 11.038 57.143 6.875 52.006 6.875C50.3404 6.87445 48.7053 7.32141 47.2715 8.16916C45.8378 9.0169 44.6582 10.2343 43.856 11.694L46.776 14.159C47.1582 13.1686 47.8137 12.307 48.6663 11.6744C49.5188 11.0419 50.5335 10.6643 51.5922 10.5858C52.6509 10.5072 53.7102 10.7308 54.6468 11.2306C55.5834 11.7304 56.3589 12.4858 56.883 13.409L55.121 13.855L57.708 16.008L60.946 18.747ZM59.992 20.944C58.8504 22.8605 57.0579 24.3029 54.9415 25.0078C52.825 25.7128 50.5257 25.6334 48.4629 24.7842C46.4001 23.9349 44.7113 22.3725 43.7046 20.3817C42.6979 18.391 42.4404 16.1048 42.979 13.94L45.734 16.266L48.48 18.552L47.108 18.9C47.6124 19.8053 48.3578 20.5531 49.2615 21.0605C50.1651 21.5678 51.1917 21.8149 52.2272 21.7742C53.2628 21.7335 54.2668 21.4066 55.1278 20.8299C55.9889 20.2531 56.6732 19.4491 57.105 18.507L59.992 20.944Z" fill="#F3F3F3"></path><path fill-rule="evenodd" clip-rule="evenodd" d="M60.946 18.747C61.18 17.93 61.306 17.067 61.306 16.175C61.306 11.038 57.143 6.875 52.006 6.875C50.3404 6.87445 48.7053 7.32141 47.2715 8.16916C45.8378 9.0169 44.6582 10.2343 43.856 11.694L46.776 14.159C47.1582 13.1686 47.8137 12.307 48.6663 11.6744C49.5188 11.0419 50.5335 10.6643 51.5922 10.5858C52.6509 10.5072 53.7102 10.7308 54.6468 11.2306C55.5834 11.7304 56.3589 12.4858 56.883 13.409L55.121 13.855L57.708 16.008L60.946 18.747Z" fill="#F3F3F3"></path></svg>